{"glyphs":{"0":{"ha":822,"x_min":0,"x_max":0,"o":"m 411 1000 b 776 492 650 1000 776 810 b 411 -17 776 172 650 -17 b 46 492 172 -17 46 175 b 411 1000 46 811 174 1000 m 254 492 b 411 175 254 269 310 175 b 568 492 514 175 568 271 b 410 808 568 714 514 808 b 254 492 310 808 254 713 "},"1":{"ha":822,"x_min":0,"x_max":0,"o":"m 600 0 l 400 0 l 400 750 l 203 576 l 85 713 l 406 983 l 600 983 "},"2":{"ha":822,"x_min":0,"x_max":0,"o":"m 428 1000 b 746 704 617 1000 746 890 b 596 422 746 579 701 514 l 318 183 l 754 183 l 754 0 l 68 0 l 68 221 l 450 564 b 538 701 519 626 538 658 b 417 808 538 765 481 808 b 289 683 346 808 296 760 l 81 699 b 428 1000 93 893 225 1000 "},"3":{"ha":822,"x_min":0,"x_max":0,"o":"m 403 1000 b 735 726 597 1000 735 901 b 567 511 735 614 672 533 l 567 507 b 751 278 683 492 751 393 b 397 -17 751 93 606 -17 b 44 238 207 -17 81 75 l 264 289 b 410 175 278 218 322 175 b 543 301 494 175 543 222 b 354 415 543 415 431 415 l 300 415 l 300 596 l 364 596 b 526 706 472 596 526 628 b 404 808 526 768 471 808 b 282 717 346 808 297 776 l 53 764 b 403 1000 93 918 215 1000 "},"4":{"ha":822,"x_min":0,"x_max":0,"o":"m 33 372 l 435 983 l 663 983 l 663 372 l 789 372 l 789 197 l 663 197 l 663 0 l 463 0 l 463 197 l 33 197 m 242 372 l 463 372 l 463 711 l 460 711 "},"5":{"ha":822,"x_min":0,"x_max":0,"o":"m 718 800 l 328 800 l 324 649 b 410 660 347 657 375 660 b 751 335 622 660 751 526 b 376 -17 751 119 600 -17 b 44 235 206 -17 88 69 l 263 285 b 397 167 274 214 324 167 b 543 314 479 167 543 224 b 317 476 543 419 463 476 b 113 440 250 476 181 464 l 124 983 l 718 983 "},"6":{"ha":822,"x_min":0,"x_max":0,"o":"m 629 983 l 399 632 b 467 642 421 638 443 642 b 775 321 649 642 775 503 b 408 -17 775 113 607 -17 b 42 321 217 -17 42 107 b 161 649 42 457 90 539 l 375 983 m 250 329 b 408 175 250 231 328 175 b 567 329 497 175 567 235 b 407 483 567 424 496 483 b 250 329 318 483 250 418 "},"7":{"ha":822,"x_min":0,"x_max":0,"o":"m 771 800 l 378 0 l 135 0 l 538 792 l 51 792 l 51 983 l 771 983 "},"8":{"ha":822,"x_min":0,"x_max":0,"o":"m 411 1000 b 740 729 611 1000 740 896 b 574 511 740 624 681 542 l 574 508 b 757 269 693 475 757 393 b 411 -17 757 94 613 -17 b 65 269 211 -17 65 90 b 249 508 65 393 131 476 l 249 511 b 82 729 143 542 82 622 b 411 1000 82 892 208 1000 m 290 700 b 411 590 290 639 340 590 b 532 700 483 590 532 639 b 410 808 532 763 482 808 b 290 700 335 808 290 757 m 274 299 b 411 175 274 226 333 175 b 549 299 488 175 549 224 b 410 424 549 371 489 424 b 274 299 333 424 274 372 "},"9":{"ha":822,"x_min":0,"x_max":0,"o":"m 414 1000 b 781 663 613 1000 781 871 b 660 332 781 525 729 442 l 447 0 l 193 0 l 424 351 b 354 342 401 346 378 342 b 47 663 172 342 47 481 b 414 1000 47 868 214 1000 m 256 654 b 414 500 256 564 321 500 b 572 654 504 500 572 563 b 413 808 572 746 503 808 b 256 654 324 808 256 744 "},"\u0000":{"ha":0,"x_min":0,"x_max":0,"o":""},"\r":{"ha":411,"x_min":0,"x_max":0,"o":""}," ":{"ha":411,"x_min":0,"x_max":0,"o":""},"!":{"ha":617,"x_min":0,"x_max":0,"o":"m 413 325 l 204 325 l 204 983 l 413 983 m 436 119 b 308 -8 436 51 382 -8 b 181 119 236 -8 181 50 b 308 247 181 192 239 247 b 436 119 378 247 436 192 "},"\"":{"ha":722,"x_min":0,"x_max":0,"o":"m 435 983 l 610 983 l 610 592 l 435 592 m 113 983 l 288 983 l 288 592 l 113 592 "},"#":{"ha":822,"x_min":0,"x_max":0,"o":"m 196 404 l 219 579 l 103 579 l 103 704 l 236 704 l 275 983 l 410 983 l 371 704 l 508 704 l 547 983 l 682 983 l 643 704 l 760 704 l 760 579 l 626 579 l 603 404 l 719 404 l 719 279 l 586 279 l 547 0 l 413 0 l 451 279 l 314 279 l 275 0 l 140 0 l 179 279 l 63 279 l 63 404 m 331 404 l 468 404 l 492 579 l 354 579 "},"$":{"ha":822,"x_min":0,"x_max":0,"o":"m 168 261 b 364 175 217 201 289 181 l 364 410 l 268 439 b 47 700 118 485 47 564 b 364 1000 47 853 171 976 l 364 1097 l 456 1097 l 456 1000 b 753 913 576 1000 685 967 l 619 750 b 456 808 575 789 515 806 l 456 588 l 586 550 b 790 297 717 511 790 421 b 456 -17 790 126 665 4 l 456 -114 l 364 -114 l 364 -17 b 21 96 217 -17 101 22 m 456 178 b 574 281 532 193 574 229 b 456 386 574 331 551 354 m 264 710 b 364 610 264 626 340 618 l 364 804 b 264 710 296 790 264 757 "},"%":{"ha":1260,"x_min":0,"x_max":0,"o":"m 854 1028 l 971 963 l 397 -44 l 292 15 m 554 725 b 281 450 554 572 433 450 b 7 725 126 450 7 575 b 281 1000 7 878 128 1000 b 554 725 431 1000 554 879 m 281 592 b 413 725 353 592 413 649 b 281 858 413 801 353 858 b 149 725 207 858 149 797 b 281 592 149 653 207 592 m 1253 260 b 979 -17 1253 108 1132 -17 b 706 260 826 -17 706 107 b 979 535 706 411 828 535 b 1253 260 1131 535 1253 411 m 979 125 b 1111 260 1053 125 1111 183 b 979 393 1111 336 1051 393 b 847 260 906 393 847 332 b 979 125 847 186 906 125 "},"&":{"ha":1054,"x_min":0,"x_max":0,"o":"m 465 1008 b 751 767 618 1008 751 931 b 569 511 751 665 689 574 l 696 376 l 792 507 l 1033 507 l 826 232 l 1046 0 l 778 0 l 696 93 b 407 -25 614 8 522 -25 b 58 269 210 -25 58 89 b 267 538 58 383 136 492 b 158 758 181 628 158 683 b 465 1008 158 944 321 1008 m 367 750 b 449 626 367 714 392 678 b 560 753 519 667 560 710 b 463 842 560 804 521 842 b 367 750 407 842 367 804 m 283 279 b 415 158 283 208 346 158 b 569 231 471 158 507 176 l 396 419 b 283 279 340 385 283 353 "},"'":{"ha":411,"x_min":0,"x_max":0,"o":"m 293 592 l 118 592 l 118 983 l 293 983 "},"(":{"ha":436,"x_min":0,"x_max":0,"o":"m 407 933 b 228 400 268 718 228 578 b 407 -133 228 219 269 79 l 264 -217 l 261 -211 b 61 400 124 -6 61 186 b 261 1011 61 688 178 886 l 264 1017 l 407 933 "},")":{"ha":436,"x_min":0,"x_max":0,"o":"m 175 1011 b 375 400 290 844 375 642 b 175 -211 375 165 301 -22 l 172 -217 l 29 -133 b 208 400 143 46 208 186 b 29 933 208 611 142 760 l 172 1017 "},"*":{"ha":669,"x_min":0,"x_max":0,"o":"m 407 792 l 589 851 l 631 719 l 449 661 l 564 503 l 449 418 l 332 578 l 219 425 l 107 510 l 224 661 l 39 725 l 83 857 l 265 792 l 265 983 l 407 983 "},"+":{"ha":925,"x_min":0,"x_max":0,"o":"m 82 508 l 375 508 l 375 801 l 550 801 l 550 508 l 843 508 l 843 333 l 550 333 l 550 40 l 375 40 l 375 333 l 82 333 "},",":{"ha":411,"x_min":0,"x_max":0,"o":"m 201 -167 l 24 -167 l 126 225 l 326 225 "},"-":{"ha":411,"x_min":0,"x_max":0,"o":"m 376 263 l 35 263 l 35 429 l 376 429 "},".":{"ha":411,"x_min":0,"x_max":0,"o":"m 206 247 b 333 119 275 247 333 192 b 206 -8 333 47 276 -8 b 78 119 133 -8 78 50 b 206 247 78 190 135 247 "},"/":{"ha":565,"x_min":0,"x_max":0,"o":"m 153 -74 l -4 -25 l 411 1057 l 569 1008 "},":":{"ha":411,"x_min":0,"x_max":0,"o":"m 206 692 b 333 564 275 692 333 638 b 206 436 333 494 276 436 b 78 564 136 436 78 493 b 206 692 78 635 136 692 m 206 247 b 333 119 275 247 333 193 b 206 -8 333 50 276 -8 b 78 119 136 -8 78 46 b 206 247 78 190 136 247 "},";":{"ha":411,"x_min":0,"x_max":0,"o":"m 206 692 b 333 564 278 692 333 633 b 206 436 333 494 276 436 b 78 564 136 436 78 493 b 206 692 78 635 135 692 m 201 -167 l 24 -167 l 126 225 l 326 225 "},"<":{"ha":925,"x_min":0,"x_max":0,"o":"m 111 333 l 111 508 l 814 783 l 814 594 l 374 422 l 374 419 l 814 247 l 814 58 "},"=":{"ha":925,"x_min":0,"x_max":0,"o":"m 82 467 l 82 642 l 843 642 l 843 467 m 843 375 l 843 200 l 82 200 l 82 375 "},">":{"ha":925,"x_min":0,"x_max":0,"o":"m 814 508 l 814 333 l 111 58 l 111 247 l 551 419 l 551 422 l 111 594 l 111 783 "},"?":{"ha":772,"x_min":0,"x_max":0,"o":"m 422 1008 b 735 735 597 1008 735 908 b 571 468 735 615 681 557 b 508 360 528 433 508 410 l 508 325 l 300 325 l 300 376 b 350 513 300 435 308 474 l 468 621 b 526 721 506 656 526 686 b 426 817 526 778 486 817 b 289 693 350 817 297 772 l 75 707 b 422 1008 94 900 226 1008 m 404 247 b 532 119 472 247 532 192 b 404 -8 532 47 474 -8 b 276 119 335 -8 276 46 b 404 247 276 190 335 247 "},"@":{"ha":1111,"x_min":0,"x_max":0,"o":"m 575 1008 b 1067 551 840 1008 1067 828 b 975 297 1067 463 1046 363 b 758 213 910 236 829 213 b 649 288 678 213 650 256 l 646 288 b 468 213 597 236 539 213 b 268 446 338 213 268 321 b 546 758 268 611 375 758 b 696 679 611 758 665 742 l 699 679 l 710 742 l 840 742 l 790 475 b 776 376 785 443 776 410 b 814 338 776 353 789 338 b 933 544 886 338 933 422 b 571 883 933 768 782 883 b 186 490 335 883 186 711 b 594 100 186 247 361 100 b 857 185 685 100 778 122 l 1010 185 b 583 -25 910 49 756 -25 b 44 490 288 -25 44 188 b 575 1008 44 786 283 1008 m 418 461 b 515 338 418 396 440 338 b 660 506 617 338 660 408 b 556 633 660 572 631 633 b 418 461 465 633 418 546 "},"A":{"ha":1029,"x_min":0,"x_max":0,"o":"m -1 0 l 424 983 l 603 983 l 1031 0 l 786 0 l 701 208 l 319 208 l 238 0 m 388 392 l 628 392 l 507 697 "},"B":{"ha":900,"x_min":0,"x_max":0,"o":"m 475 983 b 826 733 649 983 826 940 b 657 517 826 624 758 549 l 657 514 b 872 274 772 500 872 414 b 504 0 872 68 678 0 l 100 0 l 100 983 m 317 183 l 515 183 b 656 299 586 183 656 219 b 486 407 656 389 557 407 l 317 407 m 317 800 l 317 590 l 478 590 b 610 697 544 590 610 622 b 468 800 610 776 535 800 "},"C":{"ha":951,"x_min":0,"x_max":0,"o":"m 578 1008 b 910 864 707 1008 836 958 l 743 728 b 557 808 696 785 631 808 b 272 492 403 808 272 685 b 550 175 272 328 378 175 b 753 281 635 175 706 210 l 933 146 b 578 -25 856 32 713 -25 b 47 492 269 -25 47 178 b 578 1008 47 803 268 1008 "},"D":{"ha":1054,"x_min":0,"x_max":0,"o":"m 433 983 b 1007 490 744 983 1007 843 b 460 0 1007 178 754 0 l 100 0 l 100 983 m 436 200 b 782 499 629 200 782 279 b 450 783 782 694 626 783 l 317 783 l 317 200 "},"E":{"ha":875,"x_min":0,"x_max":0,"o":"m 108 983 l 776 983 l 776 783 l 325 783 l 325 600 l 751 600 l 751 400 l 325 400 l 325 200 l 801 200 l 801 0 l 108 0 "},"F":{"ha":824,"x_min":0,"x_max":0,"o":"m 108 983 l 768 983 l 768 783 l 325 783 l 325 583 l 735 583 l 735 383 l 325 383 l 325 0 l 108 0 "},"G":{"ha":1081,"x_min":0,"x_max":0,"o":"m 579 1008 b 969 882 724 1008 863 979 l 817 715 b 579 808 751 785 672 808 b 272 492 394 808 272 676 b 579 175 272 306 394 175 b 782 224 650 175 719 190 l 782 383 l 606 383 l 606 583 l 990 583 l 990 69 b 579 -25 863 1 722 -25 b 47 492 269 -25 47 175 b 579 1008 47 807 269 1008 "},"H":{"ha":1054,"x_min":0,"x_max":0,"o":"m 100 983 l 317 983 l 317 617 l 738 617 l 738 983 l 954 983 l 954 0 l 738 0 l 738 425 l 317 425 l 317 0 l 100 0 "},"I":{"ha":411,"x_min":0,"x_max":0,"o":"m 314 0 l 97 0 l 97 983 l 314 983 "},"J":{"ha":694,"x_min":0,"x_max":0,"o":"m 608 321 b 294 -25 608 79 503 -25 b -7 204 132 -25 25 53 l 192 253 b 289 167 199 203 243 167 b 392 346 360 167 392 215 l 392 983 l 608 983 "},"K":{"ha":1003,"x_min":0,"x_max":0,"o":"m 108 983 l 325 983 l 325 575 l 707 983 l 990 983 l 553 526 l 1028 0 l 725 0 l 325 467 l 325 0 l 108 0 "},"L":{"ha":746,"x_min":0,"x_max":0,"o":"m 325 200 l 726 200 l 726 0 l 108 0 l 108 983 l 325 983 "},"M":{"ha":1311,"x_min":0,"x_max":0,"o":"m 100 983 l 428 983 l 654 342 l 657 342 l 885 983 l 1211 983 l 1211 0 l 994 0 l 994 754 l 992 754 l 733 0 l 568 0 l 319 754 l 317 754 l 317 0 l 100 0 "},"N":{"ha":1132,"x_min":0,"x_max":0,"o":"m 100 0 l 100 983 l 394 983 l 813 300 l 815 300 l 815 983 l 1032 983 l 1032 0 l 749 0 l 319 700 l 317 700 l 317 0 "},"O":{"ha":1156,"x_min":0,"x_max":0,"o":"m 578 1008 b 1108 492 890 1008 1108 804 b 578 -25 1108 179 886 -25 b 47 492 268 -25 47 178 b 578 1008 47 806 268 1008 m 272 492 b 578 175 272 307 393 175 b 883 492 761 175 883 307 b 576 808 883 676 761 808 b 272 492 394 808 272 678 "},"P":{"ha":875,"x_min":0,"x_max":0,"o":"m 100 0 l 100 983 l 472 983 b 839 685 708 983 839 888 b 482 383 839 476 708 383 l 317 383 l 317 0 m 317 567 l 465 567 b 614 685 551 567 614 604 b 433 800 614 761 556 800 l 317 800 "},"Q":{"ha":1183,"x_min":0,"x_max":0,"o":"m 572 1008 b 1097 504 861 1008 1097 804 b 901 169 1097 365 1033 225 l 901 167 l 1176 167 l 1176 0 l 574 0 b 47 504 276 0 47 189 b 572 1008 47 801 282 1008 m 272 504 b 572 200 272 338 404 200 b 872 504 740 200 872 338 b 571 808 872 675 738 808 b 272 504 403 808 272 668 "},"R":{"ha":900,"x_min":0,"x_max":0,"o":"m 100 0 l 100 983 l 488 983 b 851 685 665 983 851 924 b 639 415 851 540 772 440 l 889 0 l 629 0 l 424 393 l 317 393 l 317 0 m 451 576 b 626 686 551 576 626 593 b 464 800 626 767 567 800 l 317 800 l 317 576 "},"S":{"ha":797,"x_min":0,"x_max":0,"o":"m 433 1008 b 735 906 543 1008 650 979 l 586 743 b 429 808 551 788 482 808 b 283 707 369 808 283 781 b 496 569 283 621 388 603 b 736 299 614 533 736 476 b 357 -25 736 75 557 -25 b 26 99 231 -25 119 11 l 181 268 b 369 175 226 210 296 175 b 519 278 429 175 519 201 b 306 422 519 364 415 386 b 58 689 185 461 58 517 b 433 1008 58 899 242 1008 "},"T":{"ha":797,"x_min":0,"x_max":0,"o":"m 10 983 l 788 983 l 788 792 l 507 792 l 507 0 l 290 0 l 290 792 l 10 792 "},"U":{"ha":1029,"x_min":0,"x_max":0,"o":"m 317 983 l 317 385 b 515 175 317 268 400 175 b 713 385 618 175 713 257 l 713 983 l 929 983 l 929 375 b 515 -25 929 161 799 -25 b 100 375 232 -25 100 161 l 100 983 "},"V":{"ha":978,"x_min":0,"x_max":0,"o":"m 250 983 l 493 339 l 496 339 l 743 983 l 975 983 l 569 0 l 396 0 l 3 983 "},"W":{"ha":1389,"x_min":0,"x_max":0,"o":"m -3 983 l 233 983 l 390 353 l 393 353 l 599 983 l 800 983 l 1004 336 l 1007 336 l 1172 983 l 1392 983 l 1104 0 l 911 0 l 694 681 l 692 681 l 475 0 l 289 0 "},"X":{"ha":1003,"x_min":0,"x_max":0,"o":"m 0 0 l 344 514 l 19 983 l 292 983 l 501 639 l 703 983 l 965 983 l 647 518 l 1003 0 l 731 0 l 490 396 l 257 0 "},"Y":{"ha":900,"x_min":0,"x_max":0,"o":"m 242 983 l 450 615 l 671 983 l 928 983 l 558 419 l 558 0 l 342 0 l 342 419 l -28 983 "},"Z":{"ha":875,"x_min":0,"x_max":0,"o":"m 810 792 l 321 200 l 826 200 l 826 0 l 49 0 l 49 200 l 547 792 l 67 792 l 67 983 l 810 983 "},"[":{"ha":411,"x_min":0,"x_max":0,"o":"m 92 1017 l 383 1017 l 383 892 l 258 892 l 258 -92 l 383 -92 l 383 -217 l 92 -217 "},"\\":{"ha":565,"x_min":0,"x_max":0,"o":"m 569 -25 l 413 -74 l -4 1008 l 154 1057 "},"]":{"ha":411,"x_min":0,"x_max":0,"o":"m 28 -217 l 28 -92 l 153 -92 l 153 892 l 28 892 l 28 1017 l 319 1017 l 319 -217 "},"^":{"ha":925,"x_min":0,"x_max":0,"o":"m 111 476 l 361 983 l 564 983 l 814 476 l 617 476 l 463 807 l 307 476 "},"_":{"ha":694,"x_min":0,"x_max":0,"o":"m 694 -174 l 0 -174 l 0 -104 l 694 -104 "},"`":{"ha":361,"x_min":0,"x_max":0,"o":"m 322 783 l 139 783 l -101 983 l 182 983 "},"a":{"ha":746,"x_min":0,"x_max":0,"o":"m 40 192 b 497 429 40 428 332 429 b 364 550 497 506 433 550 b 194 469 296 550 239 519 l 83 583 b 381 692 161 658 275 692 b 689 353 614 692 689 576 l 689 0 l 497 0 l 497 85 l 494 85 b 281 -17 449 13 364 -17 b 40 192 156 -17 40 56 m 435 296 b 240 199 372 296 240 286 b 340 125 240 146 296 125 b 497 253 419 125 497 167 l 497 296 l 435 296 "},"b":{"ha":875,"x_min":0,"x_max":0,"o":"m 301 1050 l 301 603 l 304 603 b 518 692 353 671 439 692 b 826 332 715 692 826 513 b 494 -17 826 131 697 -17 b 288 89 415 -17 333 24 l 285 89 l 285 0 l 93 0 l 93 1050 m 285 338 b 451 167 285 236 349 167 b 618 338 553 167 618 233 b 450 508 618 443 553 508 b 285 338 357 508 285 450 "},"c":{"ha":669,"x_min":0,"x_max":0,"o":"m 428 692 b 668 601 513 692 608 664 l 531 457 b 428 508 507 489 467 508 b 261 338 325 508 261 439 b 428 167 261 232 329 167 b 531 218 458 167 499 179 l 668 74 b 428 -17 607 11 514 -17 b 53 338 219 -17 53 122 b 428 692 53 553 219 692 "},"d":{"ha":875,"x_min":0,"x_max":0,"o":"m 782 1050 l 782 0 l 590 0 l 590 89 l 588 89 b 379 -17 542 24 458 -17 b 49 332 176 -17 49 131 b 357 692 49 513 160 692 b 571 603 438 692 521 671 l 574 603 l 574 1050 m 257 338 b 424 167 257 236 321 167 b 590 338 525 167 590 233 b 422 508 590 447 521 508 b 257 338 321 508 257 442 "},"e":{"ha":797,"x_min":0,"x_max":0,"o":"m 53 338 b 433 692 53 551 217 692 b 744 331 564 692 744 611 l 744 272 l 261 272 b 418 142 278 196 333 142 b 567 224 489 142 532 178 l 713 117 b 428 -17 647 32 533 -17 b 53 338 226 -17 53 117 m 536 414 b 407 542 536 490 479 542 b 261 414 329 542 268 492 "},"f":{"ha":514,"x_min":0,"x_max":0,"o":"m 8 508 l 8 675 l 146 675 l 146 801 b 410 1067 146 968 208 1067 b 532 1054 453 1067 493 1064 l 522 878 b 454 892 494 888 476 892 b 354 781 378 892 354 861 l 354 675 l 508 675 l 508 508 l 354 508 l 354 0 l 146 0 l 146 508 "},"g":{"ha":875,"x_min":0,"x_max":0,"o":"m 357 692 b 588 586 443 692 535 661 l 590 586 l 590 675 l 782 675 l 782 50 b 392 -333 782 -203 643 -333 b 53 -235 269 -333 151 -312 l 168 -62 b 388 -150 232 -115 303 -150 b 574 13 492 -150 574 -99 l 574 81 l 571 81 b 379 -8 528 22 451 -8 b 49 340 176 -8 49 143 b 357 692 49 518 167 692 m 257 342 b 424 175 257 249 333 175 b 590 342 513 175 590 250 b 422 508 590 432 515 508 b 257 342 332 508 257 431 "},"h":{"ha":797,"x_min":0,"x_max":0,"o":"m 74 0 l 74 1050 l 282 1050 l 282 583 l 285 583 b 474 692 310 649 388 692 b 724 379 654 692 724 592 l 724 0 l 515 0 l 515 343 b 407 508 515 469 478 508 b 282 343 324 508 282 458 l 282 0 "},"i":{"ha":361,"x_min":0,"x_max":0,"o":"m 181 1008 b 301 888 249 1008 301 953 b 181 767 301 822 249 767 b 60 888 114 767 60 822 b 181 1008 60 957 115 1008 m 285 0 l 76 0 l 76 675 l 285 675 "},"j":{"ha":361,"x_min":0,"x_max":0,"o":"m 181 1008 b 301 888 249 1008 301 953 b 181 767 301 822 249 767 b 60 888 114 767 60 822 b 181 1008 60 953 113 1008 m 285 -57 b 35 -333 285 -243 206 -333 b -62 -322 4 -333 -32 -332 l -51 -137 b 3 -150 -33 -146 -17 -150 b 76 -19 53 -150 76 -112 l 76 675 l 285 675 "},"k":{"ha":772,"x_min":0,"x_max":0,"o":"m 74 1050 l 282 1050 l 282 408 l 513 675 l 768 675 l 500 371 l 775 0 l 513 0 l 285 342 l 282 342 l 282 0 l 74 0 "},"l":{"ha":361,"x_min":0,"x_max":0,"o":"m 285 0 l 76 0 l 76 1050 l 285 1050 "},"m":{"ha":1208,"x_min":0,"x_max":0,"o":"m 74 0 l 74 675 l 274 675 l 274 583 l 276 583 b 474 692 314 651 389 692 b 682 571 569 692 644 653 b 896 692 731 657 796 692 b 1135 406 1057 692 1135 589 l 1135 0 l 926 0 l 926 396 b 835 508 926 465 896 508 b 708 361 749 508 708 451 l 708 0 l 500 0 l 500 369 b 407 508 500 472 467 508 b 282 343 324 508 282 461 l 282 0 "},"n":{"ha":797,"x_min":0,"x_max":0,"o":"m 74 0 l 74 675 l 274 675 l 274 583 l 276 583 b 474 692 314 651 388 692 b 724 382 644 692 724 604 l 724 0 l 515 0 l 515 347 b 407 508 515 467 479 508 b 282 343 324 508 282 458 l 282 0 "},"o":{"ha":847,"x_min":0,"x_max":0,"o":"m 424 692 b 799 338 632 692 799 553 b 424 -17 799 124 631 -17 b 49 338 215 -17 49 121 b 424 692 49 553 215 692 m 257 338 b 424 167 257 236 321 167 b 590 338 525 167 590 233 b 422 508 590 443 525 508 b 257 338 321 508 257 438 "},"p":{"ha":875,"x_min":0,"x_max":0,"o":"m 494 692 b 826 343 697 692 826 544 b 518 -17 826 169 721 -17 b 304 72 444 -17 356 1 l 301 72 l 301 -317 l 93 -317 l 93 675 l 285 675 l 285 586 l 288 586 b 494 692 333 650 415 692 m 285 338 b 451 167 285 236 349 167 b 618 338 553 167 618 233 b 450 508 618 443 553 508 b 285 338 349 508 285 438 "},"q":{"ha":875,"x_min":0,"x_max":0,"o":"m 379 692 b 588 586 460 692 544 650 l 590 586 l 590 675 l 782 675 l 782 -317 l 574 -317 l 574 72 l 571 72 b 357 -17 521 4 438 -17 b 49 343 158 -17 49 165 b 379 692 49 544 178 692 m 257 338 b 424 167 257 236 321 167 b 590 338 525 167 590 233 b 422 508 590 443 525 508 b 257 338 313 508 257 429 "},"r":{"ha":565,"x_min":0,"x_max":0,"o":"m 74 675 l 282 675 l 282 567 l 285 567 b 481 692 329 649 388 692 b 549 685 503 692 529 690 l 549 494 b 460 508 518 503 492 508 b 282 290 311 508 282 429 l 282 0 l 74 0 "},"s":{"ha":643,"x_min":0,"x_max":0,"o":"m 333 692 b 583 603 443 692 529 660 l 456 476 b 336 533 424 515 383 533 b 258 478 290 533 258 511 b 383 413 258 444 293 431 b 610 206 550 381 610 315 b 299 -17 610 54 478 -17 b 33 75 185 -17 92 15 l 160 215 b 307 142 200 168 244 142 b 401 190 368 142 401 160 b 294 256 401 228 358 243 b 50 464 179 279 50 308 b 333 692 50 607 171 692 "},"t":{"ha":565,"x_min":0,"x_max":0,"o":"m 8 508 l 8 675 l 142 675 l 142 875 l 350 875 l 350 675 l 533 675 l 533 508 l 350 508 l 350 271 b 449 158 350 188 379 158 b 533 178 489 158 522 167 l 533 4 b 388 -17 485 -12 435 -17 b 142 182 225 -17 142 61 l 142 508 "},"u":{"ha":797,"x_min":0,"x_max":0,"o":"m 282 675 l 282 340 b 390 167 282 272 282 167 b 515 333 478 167 515 221 l 515 675 l 724 675 l 724 0 l 524 0 l 524 92 l 521 92 b 322 -17 483 24 410 -17 b 74 294 146 -17 74 79 l 74 675 "},"v":{"ha":772,"x_min":0,"x_max":0,"o":"m 228 675 l 399 217 l 401 217 l 560 675 l 769 675 l 503 0 l 282 0 l 3 675 "},"w":{"ha":1157,"x_min":0,"x_max":0,"o":"m -7 675 l 215 675 l 353 251 l 356 251 l 471 675 l 699 675 l 824 251 l 826 251 l 953 675 l 1164 675 l 924 0 l 718 0 l 578 449 l 575 449 l 450 0 l 240 0 "},"x":{"ha":772,"x_min":0,"x_max":0,"o":"m -11 0 l 256 361 l 31 675 l 276 675 l 396 492 l 511 675 l 743 675 l 524 361 l 783 0 l 538 0 l 390 225 l 232 0 "},"y":{"ha":772,"x_min":0,"x_max":0,"o":"m 4 675 l 229 675 l 403 229 l 406 229 l 554 675 l 768 675 l 465 -103 b 176 -333 407 -253 378 -333 b 21 -308 124 -333 71 -325 l 49 -137 b 146 -158 81 -151 111 -158 b 300 -6 257 -158 265 -94 "},"z":{"ha":694,"x_min":0,"x_max":0,"o":"m 639 475 l 272 167 l 647 167 l 647 0 l 47 0 l 47 208 l 397 508 l 56 508 l 56 675 l 639 675 "},"{":{"ha":514,"x_min":0,"x_max":0,"o":"m 19 479 b 169 572 110 479 169 518 l 169 819 b 344 1017 169 971 261 1017 l 494 1017 l 494 858 l 440 858 b 336 774 394 858 336 857 l 336 554 b 197 401 336 451 299 408 l 197 399 b 336 257 267 394 336 375 l 336 33 b 435 -58 336 -43 371 -58 l 494 -58 l 494 -217 l 344 -217 b 169 -11 242 -217 169 -150 l 169 225 b 19 321 169 285 108 321 l 19 479 "},"|":{"ha":308,"x_min":0,"x_max":0,"o":"m 242 -347 l 67 -347 l 67 1042 l 242 1042 "},"}":{"ha":514,"x_min":0,"x_max":0,"o":"m 19 1017 l 169 1017 b 344 821 282 1017 344 935 l 344 571 b 494 479 344 517 404 479 l 494 321 b 344 228 406 321 344 285 l 344 -11 b 167 -217 344 -37 350 -217 l 19 -217 l 19 -58 l 75 -58 b 178 31 128 -58 178 -54 l 178 254 b 317 399 178 371 246 394 l 317 401 b 178 554 213 408 178 450 l 178 774 b 75 858 178 853 126 858 l 19 858 "},"~":{"ha":925,"x_min":0,"x_max":0,"o":"m 315 556 b 469 511 358 556 407 539 b 611 461 558 471 585 461 b 733 556 647 461 676 475 l 783 406 b 610 286 739 322 683 286 b 456 331 567 286 514 304 b 314 381 364 372 339 381 b 192 286 279 381 249 365 l 142 436 b 315 556 186 519 242 556 "},"Á":{"ha":1029,"x_min":0,"x_max":0,"o":"m -1 0 l 424 983 l 603 983 l 1031 0 l 786 0 l 701 208 l 319 208 l 238 0 m 517 1256 l 800 1256 l 560 1056 l 376 1056 m 388 392 l 628 392 l 507 697 "},"Â":{"ha":1029,"x_min":0,"x_max":0,"o":"m 424 983 l 603 983 l 1031 0 l 786 0 l 701 208 l 319 208 l 238 0 l -1 0 m 404 1256 l 631 1256 l 792 1056 l 600 1056 l 513 1164 l 426 1056 l 239 1056 m 388 392 l 628 392 l 507 697 "},"Ä":{"ha":1029,"x_min":0,"x_max":0,"o":"m 424 983 l 603 983 l 1031 0 l 786 0 l 701 208 l 319 208 l 238 0 l -1 0 m 254 1167 b 367 1281 254 1226 306 1281 b 488 1167 432 1281 488 1233 b 369 1047 488 1101 439 1047 b 254 1167 306 1047 254 1103 m 543 1167 b 656 1281 543 1228 596 1281 b 776 1167 721 1281 776 1233 b 658 1047 776 1101 728 1047 b 543 1167 594 1047 543 1103 m 628 392 l 507 697 l 388 392 "},"À":{"ha":1029,"x_min":0,"x_max":0,"o":"m -1 0 l 424 983 l 603 983 l 1031 0 l 786 0 l 701 208 l 319 208 l 238 0 m 517 1256 l 657 1056 l 474 1056 l 233 1256 m 388 392 l 628 392 l 507 697 "},"Å":{"ha":1029,"x_min":0,"x_max":0,"o":"m 424 983 l 603 983 l 1031 0 l 786 0 l 701 208 l 319 208 l 238 0 l -1 0 m 361 1169 b 515 1324 361 1251 431 1324 b 669 1169 603 1324 669 1250 b 515 1015 669 1085 597 1015 b 361 1169 432 1015 361 1086 m 388 392 l 628 392 l 507 697 m 444 1169 b 515 1099 444 1131 476 1099 b 586 1169 556 1099 586 1132 b 514 1240 586 1208 554 1240 b 444 1169 479 1240 444 1210 "},"Ã":{"ha":1029,"x_min":0,"x_max":0,"o":"m 424 983 l 603 983 l 1031 0 l 786 0 l 701 208 l 319 208 l 238 0 l -1 0 m 243 1064 b 419 1256 261 1175 328 1256 b 540 1226 465 1256 503 1242 b 618 1206 579 1210 600 1206 b 679 1256 650 1206 667 1228 l 788 1256 b 607 1064 765 1124 704 1064 b 499 1093 567 1064 533 1078 b 411 1122 471 1106 440 1122 b 353 1064 383 1122 363 1096 m 628 392 l 507 697 l 388 392 "},"Æ":{"ha":1440,"x_min":0,"x_max":0,"o":"m -21 0 l 603 983 l 1350 983 l 1350 783 l 958 783 l 958 600 l 1317 600 l 1317 400 l 958 400 l 958 200 l 1367 200 l 1367 0 l 742 0 l 742 208 l 376 208 l 244 0 m 742 392 l 742 783 l 718 783 l 469 392 "},"Ç":{"ha":951,"x_min":0,"x_max":0,"o":"m 578 1008 b 910 864 707 1008 836 958 l 743 728 b 557 808 696 785 631 808 b 272 492 403 808 272 685 b 550 175 272 328 378 175 b 753 281 635 175 706 210 l 933 146 b 578 -25 856 32 714 -25 b 551 -24 568 -25 561 -25 l 511 -83 l 519 -83 b 686 -199 636 -83 686 -122 b 493 -333 686 -287 588 -333 b 319 -292 446 -333 376 -319 l 354 -226 b 461 -250 410 -247 435 -250 b 553 -206 518 -250 553 -235 b 483 -158 553 -176 519 -158 b 433 -169 465 -158 450 -162 l 389 -129 l 464 -15 b 47 492 217 29 47 218 b 578 1008 47 803 268 1008 "},"Ð":{"ha":1054,"x_min":0,"x_max":0,"o":"m 17 442 l 17 583 l 100 583 l 100 983 l 433 983 b 1007 490 744 983 1007 843 b 460 0 1007 178 754 0 l 100 0 l 100 442 m 317 583 l 592 583 l 592 442 l 317 442 l 317 200 l 436 200 b 782 499 629 200 782 279 b 450 783 782 694 626 783 l 317 783 "},"É":{"ha":875,"x_min":0,"x_max":0,"o":"m 108 983 l 776 983 l 776 783 l 325 783 l 325 600 l 751 600 l 751 400 l 325 400 l 325 200 l 801 200 l 801 0 l 108 0 m 439 1256 l 722 1256 l 482 1056 l 299 1056 "},"Ê":{"ha":875,"x_min":0,"x_max":0,"o":"m 776 983 l 776 783 l 325 783 l 325 600 l 751 600 l 751 400 l 325 400 l 325 200 l 801 200 l 801 0 l 108 0 l 108 983 m 161 1056 l 326 1256 l 553 1256 l 714 1056 l 522 1056 l 435 1164 l 349 1056 "},"Ë":{"ha":875,"x_min":0,"x_max":0,"o":"m 108 0 l 108 983 l 776 983 l 776 783 l 325 783 l 325 600 l 751 600 l 751 400 l 325 400 l 325 200 l 801 200 l 801 0 m 176 1167 b 289 1281 176 1226 228 1281 b 410 1167 354 1281 410 1233 b 292 1047 410 1101 361 1047 b 176 1167 228 1047 176 1103 m 465 1167 b 578 1281 465 1228 518 1281 b 699 1167 643 1281 699 1233 b 581 1047 699 1101 650 1047 b 465 1167 517 1047 465 1103 "},"È":{"ha":875,"x_min":0,"x_max":0,"o":"m 108 983 l 776 983 l 776 783 l 325 783 l 325 600 l 751 600 l 751 400 l 325 400 l 325 200 l 801 200 l 801 0 l 108 0 m 439 1256 l 579 1056 l 396 1056 l 156 1256 "},"Í":{"ha":411,"x_min":0,"x_max":0,"o":"m 250 1056 l 67 1056 l 207 1256 l 490 1256 m 314 0 l 97 0 l 97 983 l 314 983 "},"Î":{"ha":411,"x_min":0,"x_max":0,"o":"m 97 983 l 314 983 l 314 0 l 97 0 m -71 1056 l 94 1256 l 321 1256 l 482 1056 l 290 1056 l 203 1164 l 117 1056 "},"Ï":{"ha":411,"x_min":0,"x_max":0,"o":"m 57 1281 b 178 1167 122 1281 178 1233 b 60 1047 178 1101 129 1047 b -56 1167 -4 1047 -56 1103 b 57 1281 -56 1226 -4 1281 m 346 1281 b 467 1167 411 1281 467 1233 b 349 1047 467 1101 418 1047 b 233 1167 285 1047 233 1103 b 346 1281 233 1228 286 1281 m 314 0 l 97 0 l 97 983 l 314 983 "},"Ì":{"ha":411,"x_min":0,"x_max":0,"o":"m 347 1056 l 164 1056 l -76 1256 l 207 1256 m 314 0 l 97 0 l 97 983 l 314 983 "},"Ł":{"ha":746,"x_min":0,"x_max":0,"o":"m 108 406 l 108 983 l 325 983 l 325 593 l 617 850 l 617 669 l 325 414 l 325 200 l 726 200 l 726 0 l 108 0 l 108 222 l 25 150 l 25 333 "},"Ñ":{"ha":1132,"x_min":0,"x_max":0,"o":"m 100 0 l 100 983 l 394 983 l 813 300 l 815 300 l 815 983 l 1032 983 l 1032 0 l 749 0 l 319 700 l 317 700 l 317 0 m 294 1064 b 471 1256 313 1175 379 1256 b 592 1226 517 1256 554 1242 b 669 1206 631 1210 651 1206 b 731 1256 701 1206 718 1228 l 839 1256 b 658 1064 817 1124 756 1064 b 550 1093 618 1064 585 1078 b 463 1122 522 1106 492 1122 b 404 1064 435 1122 414 1096 "},"Ó":{"ha":1156,"x_min":0,"x_max":0,"o":"m 622 1056 l 439 1056 l 579 1256 l 863 1256 m 578 1008 b 1108 492 890 1008 1108 804 b 578 -25 1108 179 886 -25 b 47 492 268 -25 47 178 b 578 1008 47 806 268 1008 m 272 492 b 578 175 272 307 393 175 b 883 492 761 175 883 307 b 576 808 883 676 761 808 b 272 492 394 808 272 678 "},"Ô":{"ha":1156,"x_min":0,"x_max":0,"o":"m 47 492 b 578 1008 47 806 268 1008 b 1108 492 890 1008 1108 804 b 578 -25 1108 179 886 -25 b 47 492 268 -25 47 178 m 576 808 b 272 492 394 808 272 678 b 578 175 272 307 393 175 b 883 492 761 175 883 307 b 576 808 883 676 761 808 m 301 1056 l 467 1256 l 693 1256 l 854 1056 l 663 1056 l 575 1164 l 489 1056 "},"Ö":{"ha":1156,"x_min":0,"x_max":0,"o":"m 429 1281 b 550 1167 494 1281 550 1233 b 432 1047 550 1101 501 1047 b 317 1167 368 1047 317 1103 b 429 1281 317 1226 368 1281 m 718 1281 b 839 1167 783 1281 839 1233 b 721 1047 839 1101 790 1047 b 606 1167 657 1047 606 1103 b 718 1281 606 1228 658 1281 m 578 1008 b 1108 492 890 1008 1108 804 b 578 -25 1108 179 886 -25 b 47 492 268 -25 47 178 b 578 1008 47 806 268 1008 m 272 492 b 578 175 272 307 393 175 b 883 492 761 175 883 307 b 576 808 883 676 761 808 b 272 492 394 808 272 678 "},"Ò":{"ha":1156,"x_min":0,"x_max":0,"o":"m 719 1056 l 536 1056 l 296 1256 l 579 1256 m 578 1008 b 1108 492 890 1008 1108 804 b 578 -25 1108 179 886 -25 b 47 492 268 -25 47 178 b 578 1008 47 806 268 1008 m 272 492 b 578 175 272 307 393 175 b 883 492 761 175 883 307 b 576 808 883 676 761 808 b 272 492 394 808 272 678 "},"Ø":{"ha":1156,"x_min":0,"x_max":0,"o":"m 1097 990 l 972 854 b 1108 492 1068 756 1108 624 b 578 -25 1108 178 886 -25 b 254 69 464 -25 347 3 l 125 -71 l 47 -4 l 176 138 b 47 492 86 236 47 360 b 578 1008 47 806 268 1008 b 893 919 690 1008 799 982 l 1021 1058 m 272 492 b 326 301 272 424 289 358 l 749 761 b 576 808 696 794 638 808 b 272 492 393 808 272 671 m 399 228 b 578 175 451 190 514 175 b 883 492 761 175 883 307 b 822 690 883 563 867 631 "},"Õ":{"ha":1156,"x_min":0,"x_max":0,"o":"m 482 1256 b 603 1226 528 1256 565 1242 b 681 1206 642 1210 663 1206 b 742 1256 713 1206 729 1228 l 850 1256 b 669 1064 828 1124 767 1064 b 561 1093 629 1064 596 1078 b 474 1122 533 1106 503 1122 b 415 1064 446 1122 425 1096 l 306 1064 b 482 1256 324 1175 390 1256 m 578 1008 b 1108 492 890 1008 1108 804 b 578 -25 1108 179 886 -25 b 47 492 268 -25 47 178 b 578 1008 47 806 268 1008 m 272 492 b 578 175 272 307 393 175 b 883 492 761 175 883 307 b 576 808 883 676 761 808 b 272 492 394 808 272 678 "},"Œ":{"ha":1414,"x_min":0,"x_max":0,"o":"m 47 492 b 583 983 47 806 285 983 l 1324 983 l 1324 783 l 924 783 l 924 600 l 1290 600 l 1290 400 l 924 400 l 924 200 l 1340 200 l 1340 0 l 596 0 b 47 492 368 0 47 128 m 636 783 b 272 492 471 783 272 719 b 628 200 272 290 435 200 l 707 200 l 707 783 l 636 783 "},"Þ":{"ha":875,"x_min":0,"x_max":0,"o":"m 100 983 l 317 983 l 317 808 l 472 808 b 839 510 713 808 839 710 b 482 208 839 308 717 208 l 317 208 l 317 0 l 100 0 m 464 392 b 614 510 558 392 614 433 b 433 625 614 586 556 625 l 317 625 l 317 392 "},"Š":{"ha":797,"x_min":0,"x_max":0,"o":"m 181 268 b 369 175 226 210 296 175 b 519 278 429 175 519 201 b 306 422 519 364 415 386 b 58 689 185 461 58 517 b 433 1008 58 899 242 1008 b 735 906 543 1008 650 979 l 586 743 b 429 808 551 788 482 808 b 283 707 369 808 283 781 b 496 569 283 621 388 603 b 736 299 614 533 736 476 b 357 -25 736 75 557 -25 b 26 99 231 -25 119 11 m 117 1292 l 308 1292 l 396 1183 l 482 1292 l 669 1292 l 504 1092 l 278 1092 "},"ẞ":{"ha":1069,"x_min":0,"x_max":0,"o":"m 897 801 b 671 694 826 801 671 796 b 853 538 671 633 756 601 b 1022 264 960 467 1022 406 b 689 -25 1022 75 885 -25 b 365 90 581 -25 465 -1 l 519 247 b 696 167 579 193 632 167 b 800 258 750 167 800 203 b 651 408 800 338 731 358 b 461 647 553 471 461 540 b 583 822 461 729 513 783 l 538 822 b 303 649 458 822 303 807 l 303 0 l 86 0 l 86 647 b 556 1008 86 910 293 1008 b 897 990 682 1008 771 1004 l 897 801 "},"Ú":{"ha":1029,"x_min":0,"x_max":0,"o":"m 317 983 l 317 385 b 515 175 317 268 400 175 b 713 385 618 175 713 257 l 713 983 l 929 983 l 929 375 b 515 -25 929 161 799 -25 b 100 375 232 -25 100 161 l 100 983 m 376 1056 l 517 1256 l 800 1256 l 560 1056 "},"Û":{"ha":1029,"x_min":0,"x_max":0,"o":"m 317 983 l 317 385 b 515 175 317 268 400 175 b 713 385 618 175 713 257 l 713 983 l 929 983 l 929 375 b 515 -25 929 161 799 -25 b 100 375 232 -25 100 161 l 100 983 m 239 1056 l 404 1256 l 631 1256 l 792 1056 l 600 1056 l 513 1164 l 426 1056 "},"Ü":{"ha":1029,"x_min":0,"x_max":0,"o":"m 515 -25 b 100 375 232 -25 100 161 l 100 983 l 317 983 l 317 385 b 515 175 317 268 400 175 b 713 385 618 175 713 257 l 713 983 l 929 983 l 929 375 b 515 -25 929 161 799 -25 m 254 1167 b 367 1281 254 1226 306 1281 b 488 1167 432 1281 488 1233 b 369 1047 488 1101 439 1047 b 254 1167 306 1047 254 1103 m 658 1047 b 543 1167 594 1047 543 1103 b 656 1281 543 1228 596 1281 b 776 1167 721 1281 776 1233 b 658 1047 776 1101 728 1047 "},"Ù":{"ha":1029,"x_min":0,"x_max":0,"o":"m 317 983 l 317 385 b 515 175 317 268 400 175 b 713 385 618 175 713 257 l 713 983 l 929 983 l 929 375 b 515 -25 929 161 799 -25 b 100 375 232 -25 100 161 l 100 983 m 517 1256 l 657 1056 l 474 1056 l 233 1256 "},"Ý":{"ha":900,"x_min":0,"x_max":0,"o":"m -28 983 l 242 983 l 450 615 l 671 983 l 928 983 l 558 419 l 558 0 l 342 0 l 342 419 m 451 1292 l 735 1292 l 494 1092 l 311 1092 "},"Ÿ":{"ha":900,"x_min":0,"x_max":0,"o":"m -28 983 l 242 983 l 450 615 l 671 983 l 928 983 l 558 419 l 558 0 l 342 0 l 342 419 m 189 1203 b 301 1317 189 1263 240 1317 b 422 1203 367 1317 422 1269 b 304 1083 422 1138 374 1083 b 189 1203 240 1083 189 1139 m 593 1083 b 478 1203 529 1083 478 1139 b 590 1317 478 1264 531 1317 b 711 1203 656 1317 711 1269 b 593 1083 711 1138 663 1083 "},"Ž":{"ha":875,"x_min":0,"x_max":0,"o":"m 49 200 l 547 792 l 67 792 l 67 983 l 810 983 l 810 792 l 321 200 l 826 200 l 826 0 l 49 0 m 156 1293 l 347 1293 l 435 1185 l 521 1293 l 708 1293 l 543 1093 l 317 1093 "},"á":{"ha":746,"x_min":0,"x_max":0,"o":"m 40 192 b 497 429 40 428 332 429 b 364 550 497 506 433 550 b 194 469 296 550 239 519 l 83 583 b 381 692 161 658 275 692 b 689 353 614 692 689 576 l 689 0 l 497 0 l 497 85 l 494 85 b 281 -17 449 13 364 -17 b 40 192 156 -17 40 56 m 235 783 l 375 983 l 658 983 l 418 783 m 240 199 b 340 125 240 146 296 125 b 497 253 419 125 497 167 l 497 296 l 435 296 b 240 199 372 296 240 286 "},"â":{"ha":746,"x_min":0,"x_max":0,"o":"m 281 -17 b 40 192 156 -17 40 56 b 497 429 40 428 332 429 b 364 550 497 506 433 550 b 194 469 296 550 239 519 l 83 583 b 381 692 161 658 275 692 b 689 353 614 692 689 576 l 689 0 l 497 0 l 497 85 l 494 85 b 281 -17 449 13 364 -17 m 97 783 l 263 983 l 489 983 l 650 783 l 458 783 l 371 892 l 285 783 m 240 199 b 340 125 240 146 296 125 b 497 253 419 125 497 167 l 497 296 l 435 296 b 240 199 372 296 240 286 "},"ä":{"ha":746,"x_min":0,"x_max":0,"o":"m 281 -17 b 40 192 156 -17 40 56 b 497 429 40 428 332 429 b 364 550 497 506 433 550 b 194 469 296 550 239 519 l 83 583 b 381 692 161 658 275 692 b 689 353 614 692 689 576 l 689 0 l 497 0 l 497 85 l 494 85 b 281 -17 449 13 364 -17 m 113 894 b 225 1008 113 954 164 1008 b 346 894 283 1008 346 965 b 228 775 346 829 297 775 b 113 894 161 775 113 832 m 401 894 b 514 1008 401 956 454 1008 b 635 894 578 1008 635 961 b 517 775 635 829 586 775 b 401 894 453 775 401 829 m 435 296 b 240 199 372 296 240 286 b 340 125 240 146 296 125 b 497 253 419 125 497 167 l 497 296 l 435 296 "},"à":{"ha":746,"x_min":0,"x_max":0,"o":"m 281 -17 b 40 192 156 -17 40 56 b 497 429 40 428 332 429 b 364 550 497 506 433 550 b 194 469 296 550 239 519 l 83 583 b 381 692 161 658 275 692 b 689 353 614 692 689 576 l 689 0 l 497 0 l 497 85 l 494 85 b 281 -17 449 13 364 -17 m 375 983 l 515 783 l 332 783 l 92 983 m 435 296 b 240 199 372 296 240 286 b 340 125 240 146 296 125 b 497 253 419 125 497 167 l 497 296 l 435 296 "},"å":{"ha":746,"x_min":0,"x_max":0,"o":"m 281 -17 b 40 192 156 -17 40 56 b 497 429 40 428 332 429 b 364 550 497 506 433 550 b 194 469 296 550 239 519 l 83 583 b 381 692 161 658 275 692 b 689 353 614 692 689 576 l 689 0 l 497 0 l 497 85 l 494 85 b 281 -17 449 13 364 -17 m 219 911 b 374 1065 219 993 289 1065 b 528 911 460 1065 528 992 b 374 757 528 832 461 757 b 219 911 292 757 219 828 m 240 199 b 340 125 240 146 296 125 b 497 253 419 125 497 167 l 497 296 l 435 296 b 240 199 372 296 240 286 m 303 911 b 374 840 303 872 335 840 b 444 911 414 840 444 874 b 372 982 444 950 414 982 b 303 911 338 982 303 951 "},"ã":{"ha":746,"x_min":0,"x_max":0,"o":"m 40 192 b 497 429 40 428 332 429 b 364 550 497 506 433 550 b 194 469 296 550 239 519 l 83 583 b 381 692 161 658 275 692 b 689 353 614 692 689 576 l 689 0 l 497 0 l 497 85 l 494 85 b 281 -17 449 13 364 -17 b 40 192 156 -17 40 56 m 101 792 b 278 983 119 903 186 983 b 399 954 324 983 361 969 b 476 933 438 938 458 933 b 538 983 508 933 525 956 l 646 983 b 465 792 624 851 563 792 b 357 821 425 792 392 806 b 269 850 329 833 299 850 b 211 792 242 850 221 824 m 435 296 b 240 199 372 296 240 286 b 340 125 240 146 296 125 b 497 253 419 125 497 167 l 497 296 l 435 296 "},"æ":{"ha":1183,"x_min":0,"x_max":0,"o":"m 40 192 b 461 414 40 406 300 414 l 485 414 b 364 550 485 489 443 550 b 194 469 296 550 239 519 l 83 583 b 379 692 160 657 275 692 b 600 610 460 692 542 667 b 826 692 660 668 744 692 b 1143 336 1001 692 1143 575 l 1143 272 l 660 272 b 817 142 676 194 736 142 b 965 224 882 142 928 172 l 1111 117 b 826 -17 1043 32 935 -17 b 557 93 726 -17 617 6 b 282 -17 496 7 383 -17 b 40 192 161 -17 40 51 m 240 193 b 347 125 240 132 299 125 b 485 269 442 125 485 179 l 485 272 l 458 272 b 447 272 456 272 451 272 b 240 193 386 272 240 269 m 935 414 b 806 542 935 489 878 542 b 660 414 728 542 668 492 "},"ç":{"ha":669,"x_min":0,"x_max":0,"o":"m 428 692 b 668 601 513 692 608 664 l 531 457 b 428 508 507 489 467 508 b 261 338 325 508 261 439 b 428 167 261 232 329 167 b 531 218 458 167 499 179 l 668 74 b 428 -17 607 11 514 -17 l 414 -17 l 369 -83 l 378 -83 b 544 -199 494 -83 544 -122 b 351 -333 544 -304 414 -333 b 178 -292 304 -333 235 -319 l 213 -226 b 319 -250 268 -247 292 -250 b 411 -206 379 -250 411 -235 b 342 -158 411 -176 378 -158 b 292 -169 324 -158 308 -162 l 247 -129 l 329 -6 b 53 338 169 31 53 157 b 428 692 53 553 219 692 "},"ð":{"ha":847,"x_min":0,"x_max":0,"o":"m 354 1113 b 465 1013 394 1082 429 1049 l 624 1079 l 731 986 l 560 915 b 799 394 706 765 799 606 b 428 -17 799 160 682 -17 b 49 338 219 -17 49 117 b 393 692 49 556 226 692 b 529 656 440 692 490 686 l 532 658 b 378 838 488 721 436 782 l 231 775 l 131 869 l 281 933 b 185 1015 253 963 218 993 m 257 338 b 424 167 257 236 321 167 b 590 338 529 167 590 238 b 422 508 590 439 526 508 b 257 338 319 508 257 438 "},"é":{"ha":797,"x_min":0,"x_max":0,"o":"m 443 783 l 260 783 l 400 983 l 683 983 m 53 338 b 433 692 53 551 217 692 b 744 331 564 692 744 611 l 744 272 l 261 272 b 418 142 278 196 333 142 b 567 224 489 142 532 178 l 713 117 b 428 -17 647 32 533 -17 b 53 338 226 -17 53 117 m 536 414 b 407 542 536 490 479 542 b 261 414 329 542 268 492 "},"ê":{"ha":797,"x_min":0,"x_max":0,"o":"m 428 -17 b 53 338 226 -17 53 117 b 433 692 53 551 217 692 b 744 331 564 692 744 611 l 744 272 l 261 272 b 418 142 278 196 333 142 b 567 224 489 142 532 178 l 713 117 b 428 -17 647 32 533 -17 m 288 983 l 514 983 l 675 783 l 483 783 l 396 892 l 310 783 l 122 783 m 536 414 b 407 542 536 490 479 542 b 261 414 329 542 268 492 "},"ë":{"ha":797,"x_min":0,"x_max":0,"o":"m 250 1008 b 371 894 308 1008 371 965 b 253 775 371 829 322 775 b 138 894 186 775 138 832 b 250 1008 138 954 189 1008 m 539 1008 b 660 894 603 1008 660 961 b 542 775 660 829 611 775 b 426 894 478 775 426 829 b 539 1008 426 956 479 1008 m 53 338 b 433 692 53 551 217 692 b 744 331 564 692 744 611 l 744 272 l 261 272 b 418 142 278 196 333 142 b 567 224 489 142 532 178 l 713 117 b 428 -17 647 32 533 -17 b 53 338 226 -17 53 117 m 536 414 b 407 542 536 490 479 542 b 261 414 329 542 268 492 "},"è":{"ha":797,"x_min":0,"x_max":0,"o":"m 540 783 l 357 783 l 117 983 l 400 983 m 53 338 b 433 692 53 551 217 692 b 744 331 564 692 744 611 l 744 272 l 261 272 b 418 142 278 196 333 142 b 567 224 489 142 532 178 l 713 117 b 428 -17 647 32 533 -17 b 53 338 226 -17 53 117 m 536 414 b 407 542 536 490 479 542 b 261 414 329 542 268 492 "},"ı":{"ha":361,"x_min":0,"x_max":0,"o":"m 285 0 l 76 0 l 76 675 l 285 675 "},"í":{"ha":361,"x_min":0,"x_max":0,"o":"m 225 783 l 42 783 l 182 983 l 465 983 m 285 0 l 76 0 l 76 675 l 285 675 "},"î":{"ha":361,"x_min":0,"x_max":0,"o":"m 76 675 l 285 675 l 285 0 l 76 0 m -96 783 l 69 983 l 296 983 l 457 783 l 265 783 l 178 892 l 92 783 "},"ï":{"ha":361,"x_min":0,"x_max":0,"o":"m 32 1008 b 153 894 90 1008 153 965 b 35 775 153 829 104 775 b -81 894 -32 775 -81 832 b 32 1008 -81 954 -29 1008 m 321 1008 b 442 894 385 1008 442 961 b 324 775 442 829 393 775 b 208 894 260 775 208 829 b 321 1008 208 956 261 1008 m 285 0 l 76 0 l 76 675 l 285 675 "},"ì":{"ha":361,"x_min":0,"x_max":0,"o":"m 322 783 l 139 783 l -101 983 l 182 983 m 285 0 l 76 0 l 76 675 l 285 675 "},"ł":{"ha":361,"x_min":0,"x_max":0,"o":"m -7 260 l -7 439 l 76 524 l 76 1050 l 285 1050 l 285 732 l 368 817 l 368 638 l 285 553 l 285 0 l 76 0 l 76 344 "},"ñ":{"ha":797,"x_min":0,"x_max":0,"o":"m 74 0 l 74 675 l 274 675 l 274 583 l 276 583 b 474 692 314 651 388 692 b 724 382 644 692 724 604 l 724 0 l 515 0 l 515 347 b 407 508 515 467 479 508 b 282 343 324 508 282 458 l 282 0 m 126 792 b 303 983 144 903 211 983 b 424 954 349 983 386 969 b 501 933 463 938 483 933 b 563 983 533 933 550 956 l 671 983 b 490 792 649 851 588 792 b 382 821 450 792 417 806 b 294 850 354 833 324 850 b 236 792 267 850 246 824 "},"ó":{"ha":847,"x_min":0,"x_max":0,"o":"m 468 783 l 285 783 l 425 983 l 708 983 m 424 692 b 799 338 632 692 799 553 b 424 -17 799 124 631 -17 b 49 338 215 -17 49 121 b 424 692 49 553 215 692 m 257 338 b 424 167 257 236 321 167 b 590 338 525 167 590 233 b 422 508 590 443 525 508 b 257 338 321 508 257 438 "},"ô":{"ha":847,"x_min":0,"x_max":0,"o":"m 49 338 b 424 692 49 553 215 692 b 799 338 632 692 799 553 b 424 -17 799 124 631 -17 b 49 338 215 -17 49 121 m 422 508 b 257 338 321 508 257 438 b 424 167 257 236 321 167 b 590 338 525 167 590 233 b 422 508 590 443 525 508 m 313 983 l 539 983 l 700 783 l 508 783 l 421 892 l 335 783 l 147 783 "},"ö":{"ha":847,"x_min":0,"x_max":0,"o":"m 275 1008 b 396 894 333 1008 396 965 b 278 775 396 829 347 775 b 163 894 211 775 163 832 b 275 1008 163 954 214 1008 m 564 1008 b 685 894 628 1008 685 961 b 567 775 685 829 636 775 b 451 894 503 775 451 829 b 564 1008 451 956 504 1008 m 424 692 b 799 338 632 692 799 553 b 424 -17 799 124 631 -17 b 49 338 215 -17 49 121 b 424 692 49 553 215 692 m 257 338 b 424 167 257 236 321 167 b 590 338 525 167 590 233 b 422 508 590 443 525 508 b 257 338 321 508 257 438 "},"ò":{"ha":847,"x_min":0,"x_max":0,"o":"m 565 783 l 382 783 l 142 983 l 425 983 m 424 692 b 799 338 632 692 799 553 b 424 -17 799 124 631 -17 b 49 338 215 -17 49 121 b 424 692 49 553 215 692 m 257 338 b 424 167 257 236 321 167 b 590 338 525 167 590 233 b 422 508 590 443 525 508 b 257 338 321 508 257 438 "},"ø":{"ha":847,"x_min":0,"x_max":0,"o":"m 133 106 b 49 338 75 171 49 250 b 424 692 49 553 215 692 b 653 624 504 692 586 669 l 746 717 l 811 654 l 719 563 b 799 338 774 499 799 421 b 424 -17 799 124 633 -17 b 203 47 346 -17 267 4 l 101 -54 l 36 8 m 422 508 b 257 338 321 508 257 438 b 278 250 257 307 263 276 l 514 486 b 422 508 486 503 454 508 m 342 186 b 424 167 367 174 396 167 b 590 338 525 167 590 235 b 574 417 590 365 585 392 "},"õ":{"ha":847,"x_min":0,"x_max":0,"o":"m 328 983 b 449 954 374 983 411 969 b 526 933 488 938 508 933 b 588 983 558 933 575 956 l 696 983 b 515 792 674 851 613 792 b 407 821 475 792 442 806 b 319 850 379 833 349 850 b 261 792 292 850 271 824 l 151 792 b 328 983 169 903 236 983 m 424 692 b 799 338 632 692 799 553 b 424 -17 799 124 631 -17 b 49 338 215 -17 49 121 b 424 692 49 553 215 692 m 257 338 b 424 167 257 236 321 167 b 590 338 525 167 590 233 b 422 508 590 443 525 508 b 257 338 321 508 257 438 "},"œ":{"ha":1311,"x_min":0,"x_max":0,"o":"m 425 692 b 678 590 522 692 610 658 b 942 692 749 665 844 692 b 1258 335 1147 692 1258 540 l 1258 272 l 775 272 b 932 142 792 194 851 142 b 1081 224 996 142 1043 174 l 1226 117 b 942 -17 1158 32 1050 -17 b 678 79 840 -17 749 3 b 425 -17 608 8 522 -17 b 49 338 215 -17 49 121 b 425 692 49 554 215 692 m 1050 414 b 921 542 1050 490 993 542 b 775 414 843 542 782 492 m 257 338 b 425 167 257 235 321 167 b 592 338 526 167 592 233 b 424 508 592 443 526 508 b 257 338 321 508 257 439 "},"þ":{"ha":875,"x_min":0,"x_max":0,"o":"m 93 -317 l 93 1050 l 301 1050 l 301 603 l 304 603 b 494 692 342 663 426 692 b 826 343 697 692 826 544 b 518 -17 826 165 717 -17 b 306 71 439 -17 354 4 l 301 71 l 301 -317 m 285 338 b 451 167 285 238 346 167 b 618 338 553 167 618 233 b 450 508 618 443 553 508 b 285 338 346 508 285 436 "},"š":{"ha":643,"x_min":0,"x_max":0,"o":"m 160 215 b 307 142 200 168 244 142 b 401 190 368 142 401 160 b 294 256 401 228 358 243 b 50 464 179 279 50 308 b 333 692 50 607 171 692 b 583 603 443 692 529 660 l 456 476 b 336 533 424 515 383 533 b 258 478 290 533 258 511 b 383 413 258 444 293 431 b 610 206 550 381 610 315 b 299 -17 610 54 478 -17 b 33 75 185 -17 92 15 m 40 983 l 232 983 l 319 875 l 406 983 l 593 983 l 428 783 l 201 783 "},"ß":{"ha":875,"x_min":0,"x_max":0,"o":"m 429 1067 b 750 813 608 1067 750 972 b 608 590 750 706 707 631 l 608 588 b 825 301 746 560 825 454 b 494 -17 825 106 689 -17 b 365 0 451 -17 411 -11 l 365 169 b 433 158 388 163 410 158 b 625 321 550 158 625 221 b 431 490 625 426 561 490 l 407 490 l 407 665 l 421 665 b 550 775 499 665 550 707 b 424 883 550 843 490 883 b 282 751 336 883 282 825 l 282 0 l 74 0 l 74 718 b 429 1067 74 942 188 1067 "},"ú":{"ha":797,"x_min":0,"x_max":0,"o":"m 74 675 l 282 675 l 282 340 b 390 167 282 272 282 167 b 515 333 478 167 515 221 l 515 675 l 724 675 l 724 0 l 524 0 l 524 92 l 521 92 b 322 -17 483 24 410 -17 b 74 294 146 -17 74 79 m 260 783 l 400 983 l 683 983 l 443 783 "},"û":{"ha":797,"x_min":0,"x_max":0,"o":"m 74 675 l 282 675 l 282 340 b 390 167 282 272 282 167 b 515 333 478 167 515 221 l 515 675 l 724 675 l 724 0 l 524 0 l 524 92 l 521 92 b 322 -17 483 24 410 -17 b 74 294 146 -17 74 79 m 122 783 l 288 983 l 514 983 l 675 783 l 483 783 l 396 892 l 310 783 "},"ü":{"ha":797,"x_min":0,"x_max":0,"o":"m 282 675 l 282 340 b 390 167 282 272 282 167 b 515 333 478 167 515 221 l 515 675 l 724 675 l 724 0 l 524 0 l 524 92 l 521 92 b 322 -17 483 24 410 -17 b 74 294 146 -17 74 79 l 74 675 m 138 894 b 250 1008 138 954 189 1008 b 371 894 308 1008 371 965 b 253 775 371 829 322 775 b 138 894 186 775 138 832 m 426 894 b 539 1008 426 956 479 1008 b 660 894 603 1008 660 961 b 542 775 660 829 611 775 b 426 894 478 775 426 829 "},"ù":{"ha":797,"x_min":0,"x_max":0,"o":"m 74 675 l 282 675 l 282 340 b 390 167 282 272 282 167 b 515 333 478 167 515 221 l 515 675 l 724 675 l 724 0 l 524 0 l 524 92 l 521 92 b 322 -17 483 24 410 -17 b 74 294 146 -17 74 79 m 400 983 l 540 783 l 357 783 l 117 983 "},"ý":{"ha":772,"x_min":0,"x_max":0,"o":"m 4 675 l 229 675 l 403 229 l 406 229 l 554 675 l 768 675 l 465 -103 b 176 -333 407 -253 378 -333 b 21 -308 124 -333 71 -325 l 49 -137 b 146 -158 81 -151 111 -158 b 300 -6 257 -158 265 -94 m 388 983 l 671 983 l 431 783 l 247 783 "},"ÿ":{"ha":772,"x_min":0,"x_max":0,"o":"m 4 675 l 229 675 l 403 229 l 406 229 l 554 675 l 768 675 l 465 -103 b 176 -333 407 -253 378 -333 b 21 -308 124 -333 71 -325 l 49 -137 b 146 -158 81 -151 111 -158 b 300 -6 257 -158 265 -94 m 125 894 b 238 1008 125 954 176 1008 b 358 894 296 1008 358 965 b 240 775 358 829 310 775 b 125 894 174 775 125 832 m 529 775 b 414 894 465 775 414 829 b 526 1008 414 956 467 1008 b 647 894 590 1008 647 961 b 529 775 647 829 599 775 "},"ž":{"ha":694,"x_min":0,"x_max":0,"o":"m 47 208 l 397 508 l 56 508 l 56 675 l 639 675 l 639 475 l 272 167 l 647 167 l 647 0 l 47 0 m 257 983 l 344 875 l 431 983 l 618 983 l 453 783 l 226 783 l 65 983 "},"ﬁ":{"ha":875,"x_min":0,"x_max":0,"o":"m 8 675 l 146 675 l 146 801 b 410 1067 146 968 208 1067 b 532 1054 453 1067 493 1064 l 522 878 b 454 892 494 888 476 892 b 354 781 378 892 354 861 l 354 675 l 508 675 l 508 508 l 354 508 l 354 0 l 146 0 l 146 508 l 8 508 m 590 675 l 799 675 l 799 0 l 590 0 m 574 888 b 694 1008 574 957 629 1008 b 815 888 763 1008 815 953 b 694 767 815 822 763 767 b 574 888 628 767 574 822 "},"ﬂ":{"ha":875,"x_min":0,"x_max":0,"o":"m 146 675 l 146 801 b 410 1067 146 968 208 1067 b 532 1054 453 1067 493 1064 l 522 878 b 454 892 494 888 476 892 b 354 781 378 892 354 861 l 354 675 l 508 675 l 508 508 l 354 508 l 354 0 l 146 0 l 146 508 l 8 508 l 8 675 m 590 1050 l 799 1050 l 799 0 l 590 0 "},"ª":{"ha":485,"x_min":0,"x_max":0,"o":"m 254 1008 b 453 811 393 1008 453 950 l 453 599 l 319 599 l 319 650 l 317 650 b 188 590 299 611 250 590 b 32 714 101 590 32 638 b 308 860 32 811 118 860 l 319 860 b 242 925 319 897 285 925 b 132 875 197 925 161 904 l 60 943 b 254 1008 111 986 181 1008 m 174 719 b 233 682 174 693 196 682 b 328 751 279 682 328 711 l 328 776 l 307 776 b 174 719 211 776 174 754 "},"º":{"ha":551,"x_min":0,"x_max":0,"o":"m 275 1008 b 519 799 415 1008 519 921 b 275 590 519 672 418 590 b 32 799 131 590 32 674 b 275 1008 32 921 135 1008 m 174 800 b 275 707 174 749 214 707 b 378 799 335 707 378 747 b 275 892 378 856 331 892 b 174 800 219 892 174 856 "},"Δ":{"ha":963,"x_min":0,"x_max":0,"o":"m 924 110 l 924 0 l 38 0 l 38 108 l 371 1001 l 600 1001 m 475 806 b 401 579 456 731 424 653 l 236 151 l 715 151 l 560 558 b 479 806 533 642 501 726 l 475 806 "},"Ω":{"ha":1043,"x_min":0,"x_max":0,"o":"m 54 151 l 253 151 l 253 156 b 75 544 139 257 75 392 b 525 994 75 801 268 994 b 967 551 793 994 967 783 b 785 156 967 401 899 253 l 785 151 l 986 151 l 986 0 l 593 0 l 593 113 b 772 513 729 196 772 363 b 524 840 772 664 697 840 b 269 506 349 840 269 667 b 449 113 269 360 318 193 l 449 0 l 54 0 "},"μ":{"ha":797,"x_min":0,"x_max":0,"o":"m 74 675 l 282 675 l 282 329 b 390 167 282 215 314 167 b 515 333 478 167 515 221 l 515 675 l 724 675 l 724 0 l 524 0 l 524 92 l 521 92 b 324 -17 483 24 408 -17 b 282 -12 310 -17 294 -15 l 282 -317 l 74 -317 "},"π":{"ha":885,"x_min":0,"x_max":0,"o":"m 6 688 b 238 736 40 715 122 736 l 864 736 l 850 578 l 747 578 l 747 201 b 767 0 747 131 753 57 l 581 0 b 556 193 561 29 556 119 l 556 578 l 358 578 b 267 0 351 453 326 179 l 81 0 b 169 578 115 117 163 364 b 26 564 103 578 58 574 l 6 688 "},"ء":{"ha":656,"x_min":0,"x_max":0,"o":"m 164 163 b 135 281 143 200 135 244 b 410 524 135 426 243 524 b 561 503 478 524 529 511 l 524 335 b 425 349 482 344 453 349 b 322 251 361 349 322 307 b 347 163 322 222 335 181 l 586 163 l 586 0 l 78 0 l 78 163 "},"ا":{"ha":367,"x_min":0,"x_max":0,"o":"m 81 1050 l 286 1050 l 286 0 l 81 0 "},"ﺎ":{"ha":406,"x_min":0,"x_max":0,"o":"m 406 0 b 81 272 160 0 81 89 l 81 1050 l 286 1050 l 286 275 b 406 179 286 210 319 179 b 433 83 425 179 433 153 b 406 0 433 21 425 0 "},"أ":{"ha":367,"x_min":0,"x_max":0,"o":"m 81 1050 l 286 1050 l 286 0 l 81 0 m 100 1203 b 85 1260 90 1221 85 1240 b 217 1371 85 1325 135 1371 b 290 1361 243 1371 271 1367 l 274 1272 b 231 1278 263 1275 247 1278 b 182 1238 201 1278 182 1265 b 192 1203 182 1225 186 1214 l 303 1203 l 303 1110 l 56 1110 l 56 1203 "},"ﺄ":{"ha":406,"x_min":0,"x_max":0,"o":"m 286 1050 l 286 275 b 406 179 286 210 319 179 b 433 83 425 179 433 153 b 406 0 433 21 425 0 b 81 272 160 0 81 89 l 81 1050 m 56 1110 l 56 1203 l 100 1203 b 85 1260 90 1221 85 1240 b 217 1371 85 1325 135 1371 b 290 1361 243 1371 271 1367 l 274 1272 b 231 1278 263 1275 247 1278 b 182 1238 201 1278 182 1265 b 192 1203 182 1225 186 1214 l 303 1203 l 303 1110 "},"إ":{"ha":367,"x_min":0,"x_max":0,"o":"m 81 1050 l 286 1050 l 286 0 l 81 0 m 58 -360 l 58 -268 l 104 -268 b 88 -210 93 -250 88 -229 b 219 -99 88 -144 138 -99 b 293 -108 246 -99 274 -103 l 276 -197 b 233 -192 265 -194 250 -192 b 185 -232 204 -192 185 -204 b 196 -268 185 -244 189 -257 l 306 -268 l 306 -360 "},"ﺈ":{"ha":406,"x_min":0,"x_max":0,"o":"m 286 1050 l 286 275 b 406 179 286 210 319 179 b 433 83 425 179 433 153 b 406 0 433 21 425 0 b 81 272 160 0 81 89 l 81 1050 m 67 -268 l 113 -268 b 96 -210 101 -250 96 -229 b 228 -99 96 -144 146 -99 b 301 -108 254 -99 282 -103 l 285 -197 b 242 -192 274 -194 258 -192 b 193 -232 213 -192 193 -204 b 204 -268 193 -244 197 -257 l 314 -268 l 314 -360 l 67 -360 "},"آ":{"ha":367,"x_min":0,"x_max":0,"o":"m 285 1113 b 65 1150 211 1113 110 1150 b 0 1126 35 1150 14 1136 l -58 1207 b 67 1265 -26 1239 19 1265 b 279 1225 121 1265 218 1225 b 349 1257 304 1225 322 1233 l 414 1186 b 285 1113 372 1132 335 1113 m 81 1050 l 286 1050 l 286 0 l 81 0 "},"ﺂ":{"ha":406,"x_min":0,"x_max":0,"o":"m 285 1113 b 65 1150 211 1113 110 1150 b 0 1126 35 1150 14 1136 l -58 1207 b 67 1265 -26 1239 19 1265 b 279 1225 121 1265 218 1225 b 349 1257 304 1225 322 1233 l 414 1186 b 285 1113 372 1132 335 1113 m 406 0 b 81 272 160 0 81 89 l 81 1050 l 286 1050 l 286 275 b 406 179 286 210 319 179 b 433 83 425 179 433 153 b 406 0 433 21 425 0 "},"ٱ":{"ha":367,"x_min":0,"x_max":0,"o":"m 81 0 l 81 1050 l 286 1050 l 286 0 m -3 1114 l -3 1204 l 53 1204 l 53 1343 l 138 1343 l 138 1288 b 253 1347 168 1324 204 1347 b 372 1218 325 1347 372 1297 b 350 1114 372 1188 365 1151 m 276 1204 b 279 1215 278 1208 279 1213 b 228 1256 279 1236 261 1256 b 132 1204 199 1256 164 1242 "},"ﭑ":{"ha":406,"x_min":0,"x_max":0,"o":"m 406 0 b 81 272 160 0 81 89 l 81 1050 l 286 1050 l 286 275 b 406 179 286 210 319 179 b 433 83 425 179 433 153 b 406 0 433 21 425 0 m -3 1204 l 53 1204 l 53 1343 l 138 1343 l 138 1288 b 253 1347 168 1324 204 1347 b 372 1218 325 1347 372 1297 b 350 1114 372 1188 365 1151 l -3 1114 m 276 1204 b 279 1215 278 1208 279 1213 b 228 1256 279 1236 261 1256 b 132 1204 199 1256 164 1242 "},"ٮ":{"ha":1347,"x_min":0,"x_max":0,"o":"m 1283 592 l 1283 228 b 1047 0 1283 85 1204 0 l 388 0 b 28 292 161 0 28 124 b 72 517 28 378 51 461 l 249 471 b 226 335 232 399 226 367 b 421 179 226 238 304 179 l 972 179 b 1078 296 1050 179 1078 210 l 1078 592 "},"ب":{"ha":1347,"x_min":0,"x_max":0,"o":"m 1283 592 l 1283 228 b 1047 0 1283 85 1204 0 l 388 0 b 28 292 161 0 28 124 b 72 517 28 378 51 461 l 249 471 b 226 335 232 399 226 367 b 421 179 226 238 304 179 l 972 179 b 1078 296 1050 179 1078 210 l 1078 592 m 658 -107 b 758 -212 721 -107 758 -153 b 658 -314 758 -271 721 -314 b 556 -212 596 -314 556 -271 b 658 -107 556 -153 596 -107 "},"ﺐ":{"ha":1407,"x_min":0,"x_max":0,"o":"m 1407 179 b 1435 83 1426 179 1435 153 b 1407 0 1435 21 1426 0 b 1226 63 1319 0 1263 22 b 1047 0 1188 22 1128 0 l 388 0 b 28 292 161 0 28 124 b 72 517 28 378 51 461 l 249 471 b 226 335 232 399 226 367 b 421 179 226 238 304 179 l 972 179 b 1078 296 1050 179 1078 210 l 1078 592 l 1283 592 l 1283 307 b 1407 179 1283 217 1333 179 m 658 -107 b 758 -212 721 -107 758 -153 b 658 -314 758 -271 721 -314 b 556 -212 596 -314 556 -271 b 658 -107 556 -153 596 -107 "},"ﺒ":{"ha":450,"x_min":0,"x_max":0,"o":"m 450 179 b 478 83 469 179 478 153 b 450 0 478 21 469 0 b 260 75 354 0 294 26 b 0 0 207 19 121 0 l 0 179 b 121 326 96 179 121 204 l 121 592 l 326 592 l 326 307 b 450 179 326 217 376 179 m 206 -107 b 306 -212 268 -107 306 -153 b 206 -314 306 -271 268 -314 b 103 -212 143 -314 103 -271 b 206 -107 103 -153 143 -107 "},"ﺑ":{"ha":390,"x_min":0,"x_max":0,"o":"m 0 179 b 121 326 96 179 121 204 l 121 592 l 326 592 l 326 301 b 0 0 326 65 221 0 m 168 -314 b 65 -212 106 -314 65 -271 b 168 -107 65 -153 106 -107 b 268 -212 231 -107 268 -153 b 168 -314 268 -271 231 -314 "},"پ":{"ha":1347,"x_min":0,"x_max":0,"o":"m 1283 592 l 1283 228 b 1047 0 1283 85 1204 0 l 388 0 b 28 292 161 0 28 124 b 72 517 28 378 51 461 l 249 471 b 226 335 232 399 226 367 b 421 179 226 238 304 179 l 972 179 b 1078 296 1050 179 1078 210 l 1078 592 m 632 -212 b 531 -315 632 -272 590 -315 b 426 -212 471 -315 426 -272 b 531 -108 426 -154 471 -108 b 632 -212 590 -108 632 -154 m 781 -108 b 882 -212 839 -108 882 -154 b 781 -315 882 -272 839 -315 b 676 -212 721 -315 676 -272 b 781 -108 676 -154 721 -108 m 658 -317 b 760 -422 719 -317 760 -361 b 658 -524 760 -481 719 -524 b 554 -422 600 -524 554 -481 b 658 -317 554 -361 600 -317 "},"ﭗ":{"ha":1407,"x_min":0,"x_max":0,"o":"m 1407 179 b 1435 83 1426 179 1435 153 b 1407 0 1435 21 1426 0 b 1226 63 1319 0 1263 22 b 1047 0 1188 22 1128 0 l 388 0 b 28 292 161 0 28 124 b 72 517 28 378 51 461 l 249 471 b 226 335 232 399 226 367 b 421 179 226 238 304 179 l 972 179 b 1078 296 1050 179 1078 210 l 1078 592 l 1283 592 l 1283 307 b 1407 179 1283 217 1333 179 m 632 -212 b 531 -315 632 -272 590 -315 b 426 -212 471 -315 426 -272 b 531 -108 426 -154 471 -108 b 632 -212 590 -108 632 -154 m 781 -108 b 882 -212 839 -108 882 -154 b 781 -315 882 -272 839 -315 b 676 -212 721 -315 676 -272 b 781 -108 676 -154 721 -108 m 658 -317 b 760 -422 719 -317 760 -361 b 658 -524 760 -481 719 -524 b 554 -422 600 -524 554 -481 b 658 -317 554 -361 600 -317 "},"ﭙ":{"ha":504,"x_min":0,"x_max":0,"o":"m 504 179 b 532 83 524 179 532 153 b 504 0 532 21 524 0 b 314 75 408 0 349 26 b 46 0 261 21 174 0 l 0 0 l 0 179 l 40 179 b 175 326 151 179 175 208 l 175 592 l 381 592 l 381 307 b 504 179 381 217 431 179 m 225 -212 b 124 -315 225 -272 183 -315 b 19 -212 64 -315 19 -272 b 124 -108 19 -154 64 -108 b 225 -212 183 -108 225 -154 m 374 -108 b 475 -212 432 -108 475 -154 b 374 -315 475 -272 432 -315 b 269 -212 314 -315 269 -272 b 374 -108 269 -154 314 -108 m 251 -317 b 353 -422 313 -317 353 -361 b 251 -524 353 -481 313 -524 b 147 -422 193 -524 147 -481 b 251 -317 147 -361 193 -317 "},"ﭘ":{"ha":433,"x_min":0,"x_max":0,"o":"m 0 179 l 40 179 b 175 326 151 179 175 208 l 175 592 l 381 592 l 381 301 b 46 0 381 71 285 0 l 0 0 m 106 -315 b 1 -212 46 -315 1 -272 b 106 -108 1 -154 46 -108 b 207 -212 165 -108 207 -154 b 106 -315 207 -272 165 -315 m 356 -315 b 251 -212 296 -315 251 -272 b 356 -108 251 -154 296 -108 b 457 -212 414 -108 457 -154 b 356 -315 457 -272 414 -315 m 233 -524 b 129 -422 175 -524 129 -481 b 233 -317 129 -361 175 -317 b 335 -422 294 -317 335 -361 b 233 -524 335 -481 294 -524 "},"ﯩ":{"ha":450,"x_min":0,"x_max":0,"o":"m 450 179 b 478 83 469 179 478 153 b 450 0 478 21 469 0 b 260 75 354 0 294 26 b 0 0 207 19 121 0 l 0 179 b 121 326 96 179 121 204 l 121 592 l 326 592 l 326 307 b 450 179 326 217 376 179 "},"ﯨ":{"ha":390,"x_min":0,"x_max":0,"o":"m 0 179 b 121 326 96 179 121 204 l 121 592 l 326 592 l 326 301 b 0 0 326 65 221 0 "},"ت":{"ha":1347,"x_min":0,"x_max":0,"o":"m 546 596 b 442 700 486 596 442 642 b 546 803 442 760 486 803 b 647 700 606 803 647 760 b 546 596 647 642 606 596 m 796 596 b 692 700 736 596 692 642 b 796 803 692 760 736 803 b 897 700 854 803 897 760 b 796 596 897 642 854 596 m 1283 592 l 1283 228 b 1047 0 1283 85 1204 0 l 388 0 b 28 292 161 0 28 124 b 72 517 28 378 51 461 l 249 471 b 226 335 232 399 226 367 b 421 179 226 238 304 179 l 972 179 b 1078 296 1050 179 1078 210 l 1078 592 "},"ﺖ":{"ha":1407,"x_min":0,"x_max":0,"o":"m 546 596 b 442 700 486 596 442 642 b 546 803 442 760 486 803 b 647 700 606 803 647 760 b 546 596 647 642 606 596 m 796 596 b 692 700 736 596 692 642 b 796 803 692 760 736 803 b 897 700 854 803 897 760 b 796 596 897 642 854 596 m 1407 179 b 1435 83 1426 179 1435 153 b 1407 0 1435 21 1426 0 b 1226 63 1319 0 1263 22 b 1047 0 1188 22 1128 0 l 388 0 b 28 292 161 0 28 124 b 72 517 28 378 51 461 l 249 471 b 226 335 232 399 226 367 b 421 179 226 238 304 179 l 972 179 b 1078 296 1050 179 1078 210 l 1078 592 l 1283 592 l 1283 307 b 1407 179 1283 217 1333 179 "},"ﺘ":{"ha":504,"x_min":0,"x_max":0,"o":"m 124 753 b 19 857 64 753 19 799 b 124 960 19 917 64 960 b 225 857 183 960 225 917 b 124 753 225 799 183 753 m 374 753 b 269 857 314 753 269 799 b 374 960 269 917 314 960 b 475 857 432 960 475 917 b 374 753 475 799 432 753 m 504 179 b 532 83 524 179 532 153 b 504 0 532 21 524 0 b 314 75 408 0 349 26 b 46 0 261 21 174 0 l 0 0 l 0 179 l 40 179 b 175 326 151 179 175 208 l 175 592 l 381 592 l 381 307 b 504 179 381 217 431 179 "},"ﺗ":{"ha":486,"x_min":0,"x_max":0,"o":"m 124 753 b 19 857 64 753 19 799 b 124 960 19 917 64 960 b 225 857 183 960 225 917 b 124 753 225 799 183 753 m 374 753 b 269 857 314 753 269 799 b 374 960 269 917 314 960 b 475 857 432 960 475 917 b 374 753 475 799 432 753 m 0 179 l 40 179 b 175 326 151 179 175 208 l 175 592 l 381 592 l 381 301 b 46 0 381 71 285 0 l 0 0 "},"ث":{"ha":1347,"x_min":0,"x_max":0,"o":"m 675 792 b 574 896 618 792 574 839 b 675 1001 574 954 618 1001 b 778 896 738 1001 778 954 b 675 792 778 839 738 792 m 546 579 b 442 685 486 579 442 625 b 546 788 442 744 486 788 b 647 685 606 788 647 744 b 546 579 647 625 606 579 m 692 685 b 796 788 692 744 736 788 b 897 685 854 788 897 744 b 796 579 897 625 854 579 b 692 685 736 579 692 625 m 1283 592 l 1283 228 b 1047 0 1283 85 1204 0 l 388 0 b 28 292 161 0 28 124 b 72 517 28 378 51 461 l 249 471 b 226 335 232 399 226 367 b 421 179 226 238 304 179 l 972 179 b 1078 296 1050 179 1078 210 l 1078 592 "},"ﺚ":{"ha":1407,"x_min":0,"x_max":0,"o":"m 675 792 b 574 896 618 792 574 839 b 675 1001 574 954 618 1001 b 778 896 738 1001 778 954 b 675 792 778 839 738 792 m 546 579 b 442 685 486 579 442 625 b 546 788 442 744 486 788 b 647 685 606 788 647 744 b 546 579 647 625 606 579 m 692 685 b 796 788 692 744 736 788 b 897 685 854 788 897 744 b 796 579 897 625 854 579 b 692 685 736 579 692 625 m 1407 179 b 1435 83 1426 179 1435 153 b 1407 0 1435 21 1426 0 b 1226 63 1319 0 1263 22 b 1047 0 1188 22 1128 0 l 388 0 b 28 292 161 0 28 124 b 72 517 28 378 51 461 l 249 471 b 226 335 232 399 226 367 b 421 179 226 238 304 179 l 972 179 b 1078 296 1050 179 1078 210 l 1078 592 l 1283 592 l 1283 307 b 1407 179 1283 217 1333 179 "},"ﺜ":{"ha":504,"x_min":0,"x_max":0,"o":"m 253 949 b 151 1053 196 949 151 996 b 253 1158 151 1111 196 1158 b 356 1053 315 1158 356 1111 b 253 949 356 996 315 949 m 124 736 b 19 842 64 736 19 782 b 124 944 19 901 64 944 b 225 842 183 944 225 901 b 124 736 225 782 183 736 m 269 842 b 374 944 269 901 314 944 b 475 842 432 944 475 901 b 374 736 475 782 432 736 b 269 842 314 736 269 782 m 504 179 b 532 83 524 179 532 153 b 504 0 532 21 524 0 b 314 75 408 0 349 26 b 46 0 261 21 174 0 l 0 0 l 0 179 l 40 179 b 175 326 151 179 175 208 l 175 592 l 381 592 l 381 307 b 504 179 381 217 431 179 "},"ﺛ":{"ha":486,"x_min":0,"x_max":0,"o":"m 253 949 b 151 1053 196 949 151 996 b 253 1158 151 1111 196 1158 b 356 1053 315 1158 356 1111 b 253 949 356 996 315 949 m 124 736 b 19 842 64 736 19 782 b 124 944 19 901 64 944 b 225 842 183 944 225 901 b 124 736 225 782 183 736 m 374 736 b 269 842 314 736 269 782 b 374 944 269 901 314 944 b 475 842 432 944 475 901 b 374 736 475 782 432 736 m 0 179 l 40 179 b 175 326 151 179 175 208 l 175 592 l 381 592 l 381 301 b 46 0 381 71 285 0 l 0 0 "},"ٹ":{"ha":1347,"x_min":0,"x_max":0,"o":"m 388 0 b 28 292 161 0 28 124 b 72 517 28 378 51 461 l 249 471 b 226 335 232 399 226 367 b 421 179 226 238 304 179 l 972 179 b 1078 296 1050 179 1078 210 l 1078 592 l 1283 592 l 1283 228 b 1047 0 1283 85 1204 0 l 388 0 m 439 601 l 439 703 l 501 703 l 501 942 l 596 942 l 596 810 b 719 876 626 851 664 876 b 864 719 804 876 864 818 b 839 601 864 685 856 646 m 758 703 b 760 719 760 708 760 714 b 707 775 760 754 739 775 b 596 703 671 775 628 750 "},"ﭧ":{"ha":1407,"x_min":0,"x_max":0,"o":"m 28 292 b 72 517 28 378 51 461 l 249 471 b 226 335 232 399 226 367 b 421 179 226 238 304 179 l 972 179 b 1078 296 1050 179 1078 210 l 1078 592 l 1283 592 l 1283 307 b 1407 179 1283 217 1333 179 b 1435 83 1426 179 1435 153 b 1407 0 1435 21 1426 0 b 1226 63 1319 0 1263 22 b 1047 0 1188 22 1128 0 l 388 0 b 28 292 161 0 28 124 m 439 601 l 439 703 l 501 703 l 501 942 l 596 942 l 596 810 b 719 876 626 851 664 876 b 864 719 804 876 864 818 b 839 601 864 685 856 646 m 758 703 b 760 719 760 708 760 714 b 707 775 760 754 739 775 b 596 703 671 775 628 750 "},"ﭩ":{"ha":450,"x_min":0,"x_max":0,"o":"m 0 179 b 121 326 96 179 121 204 l 121 592 l 326 592 l 326 307 b 450 179 326 217 376 179 b 478 83 469 179 478 153 b 450 0 478 21 469 0 b 260 75 354 0 294 26 b 0 0 207 19 121 0 m -10 758 l -10 860 l 53 860 l 53 1099 l 147 1099 l 147 967 b 271 1033 178 1008 215 1033 b 415 876 356 1033 415 975 b 390 758 415 842 407 803 m 310 860 b 311 876 311 865 311 871 b 258 932 311 911 290 932 b 147 860 222 932 179 907 "},"ﭨ":{"ha":390,"x_min":0,"x_max":0,"o":"m 326 301 b 0 0 326 65 221 0 l 0 179 b 121 326 96 179 121 204 l 121 592 l 326 592 l 326 301 m -10 860 l 53 860 l 53 1099 l 147 1099 l 147 967 b 271 1033 178 1008 215 1033 b 415 876 356 1033 415 975 b 390 758 415 842 407 803 l -10 758 m 258 932 b 147 860 222 932 179 907 l 310 860 b 311 876 311 865 311 871 b 258 932 311 911 290 932 "},"ج":{"ha":826,"x_min":0,"x_max":0,"o":"m 389 607 b 769 210 668 607 769 446 b 749 0 769 144 763 74 l 343 0 b 240 -93 279 0 240 -36 b 344 -186 240 -154 293 -186 l 346 -186 l 354 -361 l 351 -361 b 29 -101 168 -361 29 -264 b 338 179 29 75 147 179 l 578 179 l 578 183 b 378 421 578 357 517 421 b 244 406 332 421 289 415 l 200 575 b 389 607 253 596 329 607 m 504 -46 b 594 -142 560 -46 594 -87 b 504 -232 594 -194 560 -232 b 411 -142 447 -232 411 -194 b 504 -46 411 -87 447 -46 "},"ﺞ":{"ha":842,"x_min":0,"x_max":0,"o":"m 351 -361 b 29 -101 168 -361 29 -264 b 338 179 29 75 147 179 l 578 179 l 578 183 b 378 421 578 357 517 421 b 244 406 332 421 289 415 l 200 575 b 389 607 253 596 329 607 b 769 210 668 607 769 446 l 769 179 l 842 179 b 869 83 861 179 869 153 b 842 0 869 21 861 0 l 343 0 b 240 -93 279 0 240 -36 b 344 -186 240 -154 293 -186 l 346 -186 l 354 -361 l 351 -361 m 504 -232 b 411 -142 447 -232 411 -194 b 504 -46 411 -87 447 -46 b 594 -142 560 -46 594 -87 b 504 -232 594 -194 560 -232 "},"ﺠ":{"ha":654,"x_min":0,"x_max":0,"o":"m 390 179 b 203 421 407 303 374 421 b 71 406 158 421 115 415 l 25 575 b 215 607 93 600 179 607 b 599 179 508 607 613 438 l 654 179 b 682 83 674 179 682 153 b 654 0 682 21 674 0 l 0 0 l 0 179 m 286 -314 b 183 -212 224 -314 183 -271 b 286 -107 183 -153 224 -107 b 386 -212 349 -107 386 -153 b 286 -314 386 -271 349 -314 "},"ﺟ":{"ha":657,"x_min":0,"x_max":0,"o":"m 0 179 l 390 179 b 203 421 407 303 374 421 b 71 406 158 421 115 415 l 25 575 b 215 607 93 600 179 607 b 575 0 572 607 649 357 l 0 0 m 286 -314 b 183 -212 224 -314 183 -271 b 286 -107 183 -153 224 -107 b 386 -212 349 -107 386 -153 b 286 -314 386 -271 349 -314 "},"چ":{"ha":826,"x_min":0,"x_max":0,"o":"m 389 607 b 769 210 668 607 769 446 b 749 0 769 144 763 74 l 343 0 b 240 -93 279 0 240 -36 b 344 -186 240 -154 293 -186 l 346 -186 l 354 -361 l 351 -361 b 29 -101 168 -361 29 -264 b 338 179 29 75 147 179 l 578 179 l 578 183 b 378 421 578 357 517 421 b 244 406 332 421 289 415 l 200 575 b 389 607 253 596 329 607 m 531 -112 b 460 -185 531 -154 501 -185 b 386 -112 418 -185 386 -154 b 460 -40 386 -72 418 -40 b 531 -112 501 -40 531 -72 m 635 -40 b 706 -112 675 -40 706 -72 b 635 -185 706 -154 675 -185 b 561 -112 593 -185 561 -154 b 635 -40 561 -72 593 -40 m 549 -186 b 619 -260 592 -186 619 -217 b 549 -331 619 -300 592 -331 b 476 -260 508 -331 476 -300 b 549 -186 476 -217 508 -186 "},"ﭻ":{"ha":842,"x_min":0,"x_max":0,"o":"m 351 -361 b 29 -101 168 -361 29 -264 b 338 179 29 75 147 179 l 578 179 l 578 183 b 378 421 578 357 517 421 b 244 406 332 421 289 415 l 200 575 b 389 607 253 596 329 607 b 769 210 668 607 769 446 l 769 179 l 842 179 b 869 83 861 179 869 153 b 842 0 869 21 861 0 l 343 0 b 240 -93 279 0 240 -36 b 344 -186 240 -154 293 -186 l 346 -186 l 354 -361 l 351 -361 m 460 -185 b 386 -112 418 -185 386 -154 b 460 -40 386 -72 418 -40 b 531 -112 501 -40 531 -72 b 460 -185 531 -154 501 -185 m 561 -112 b 635 -40 561 -72 593 -40 b 706 -112 675 -40 706 -72 b 635 -185 706 -154 675 -185 b 561 -112 593 -185 561 -154 m 549 -331 b 476 -260 508 -331 476 -300 b 549 -186 476 -217 508 -186 b 619 -260 592 -186 619 -217 b 549 -331 619 -300 592 -331 "},"ﭽ":{"ha":654,"x_min":0,"x_max":0,"o":"m 390 179 b 203 421 407 303 374 421 b 71 406 158 421 115 415 l 25 575 b 215 607 93 600 179 607 b 599 179 508 607 613 438 l 654 179 b 682 83 674 179 682 153 b 654 0 682 21 674 0 l 0 0 l 0 179 m 182 -422 b 286 -317 182 -361 228 -317 b 388 -422 347 -317 388 -361 b 286 -524 388 -481 347 -524 b 182 -422 228 -524 182 -481 m 54 -212 b 158 -108 54 -154 99 -108 b 260 -212 218 -108 260 -154 b 158 -315 260 -272 218 -315 b 54 -212 99 -315 54 -272 m 304 -212 b 408 -108 304 -154 349 -108 b 510 -212 467 -108 510 -154 b 408 -315 510 -272 467 -315 b 304 -212 349 -315 304 -272 "},"ﭼ":{"ha":657,"x_min":0,"x_max":0,"o":"m 0 179 l 390 179 b 203 421 407 303 374 421 b 71 406 158 421 115 415 l 25 575 b 215 607 93 600 179 607 b 575 0 572 607 649 357 l 0 0 m 158 -315 b 54 -212 99 -315 54 -272 b 158 -108 54 -154 99 -108 b 260 -212 218 -108 260 -154 b 158 -315 260 -272 218 -315 m 408 -315 b 304 -212 349 -315 304 -272 b 408 -108 304 -154 349 -108 b 510 -212 467 -108 510 -154 b 408 -315 510 -272 467 -315 m 286 -524 b 182 -422 228 -524 182 -481 b 286 -317 182 -361 228 -317 b 388 -422 347 -317 388 -361 b 286 -524 388 -481 347 -524 "},"ح":{"ha":840,"x_min":0,"x_max":0,"o":"m 343 0 b 235 -87 279 0 235 -32 b 369 -175 235 -150 288 -175 b 471 -165 401 -175 438 -172 l 507 -336 b 353 -361 458 -351 419 -361 b 29 -82 168 -361 29 -264 b 332 179 29 75 147 179 l 578 179 l 578 183 b 378 421 578 357 517 421 b 244 406 332 421 289 415 l 200 575 b 389 607 253 596 329 607 b 783 210 668 607 783 446 b 763 0 783 144 776 74 l 343 0 "},"ﺢ":{"ha":842,"x_min":0,"x_max":0,"o":"m 353 -361 b 29 -82 168 -361 29 -264 b 332 179 29 75 147 179 l 578 179 l 578 183 b 378 421 578 357 517 421 b 244 406 332 421 289 415 l 200 575 b 389 607 253 596 329 607 b 783 210 668 607 783 446 l 783 179 l 842 179 b 869 83 861 179 869 153 b 842 0 869 21 861 0 l 343 0 b 235 -87 279 0 235 -32 b 369 -175 235 -150 288 -175 b 471 -165 401 -175 438 -172 l 507 -336 b 353 -361 458 -351 419 -361 "},"ﺤ":{"ha":654,"x_min":0,"x_max":0,"o":"m 0 179 l 390 179 b 203 421 407 303 374 421 b 71 406 158 421 115 415 l 25 575 b 215 607 93 600 179 607 b 599 179 508 607 613 438 l 654 179 b 682 83 674 179 682 153 b 654 0 682 21 674 0 l 0 0 "},"ﺣ":{"ha":657,"x_min":0,"x_max":0,"o":"m 0 179 l 390 179 b 203 421 407 303 374 421 b 71 406 158 421 115 415 l 25 575 b 215 607 93 600 179 607 b 575 0 572 607 649 357 l 0 0 "},"خ":{"ha":840,"x_min":0,"x_max":0,"o":"m 389 768 b 286 872 326 768 286 814 b 389 975 286 932 326 975 b 489 872 451 975 489 932 b 389 768 489 814 451 768 m 343 0 b 235 -87 279 0 235 -32 b 369 -175 235 -150 288 -175 b 471 -165 401 -175 438 -172 l 507 -336 b 353 -361 458 -351 419 -361 b 29 -82 168 -361 29 -264 b 332 179 29 75 147 179 l 578 179 l 578 183 b 378 421 578 357 517 421 b 244 406 332 421 289 415 l 200 575 b 389 607 253 596 329 607 b 783 210 668 607 783 446 b 763 0 783 144 776 74 l 343 0 "},"ﺦ":{"ha":842,"x_min":0,"x_max":0,"o":"m 353 -361 b 29 -82 168 -361 29 -264 b 332 179 29 75 147 179 l 578 179 l 578 183 b 378 421 578 357 517 421 b 244 406 332 421 289 415 l 200 575 b 389 607 253 596 329 607 b 783 210 668 607 783 446 l 783 179 l 842 179 b 869 83 861 179 869 153 b 842 0 869 21 861 0 l 343 0 b 235 -87 279 0 235 -32 b 369 -175 235 -150 288 -175 b 471 -165 401 -175 438 -172 l 507 -336 b 353 -361 458 -351 419 -361 m 389 768 b 286 872 326 768 286 814 b 389 975 286 932 326 975 b 489 872 451 975 489 932 b 389 768 489 814 451 768 "},"ﺨ":{"ha":654,"x_min":0,"x_max":0,"o":"m 0 179 l 390 179 b 203 421 407 303 374 421 b 71 406 158 421 115 415 l 25 575 b 215 607 93 600 179 607 b 599 179 508 607 613 438 l 654 179 b 682 83 674 179 682 153 b 654 0 682 21 674 0 l 0 0 m 215 768 b 113 872 153 768 113 814 b 215 975 113 932 153 975 b 315 872 278 975 315 932 b 215 768 315 814 278 768 "},"ﺧ":{"ha":657,"x_min":0,"x_max":0,"o":"m 215 768 b 113 872 153 768 113 814 b 215 975 113 932 153 975 b 315 872 278 975 315 932 b 215 768 315 814 278 768 m 0 179 l 390 179 b 203 421 407 303 374 421 b 71 406 158 421 115 415 l 25 575 b 215 607 93 600 179 607 b 575 0 572 607 649 357 l 0 0 "},"د":{"ha":692,"x_min":0,"x_max":0,"o":"m 324 639 b 636 93 592 465 636 293 l 636 0 l 42 0 l 42 179 l 431 179 b 199 474 421 308 268 433 l 324 639 "},"ﺪ":{"ha":707,"x_min":0,"x_max":0,"o":"m 431 179 b 199 474 421 308 268 433 l 324 639 b 633 179 553 490 618 343 l 707 179 b 735 83 726 179 735 153 b 707 0 735 21 726 0 l 42 0 l 42 179 "},"ذ":{"ha":692,"x_min":0,"x_max":0,"o":"m 253 726 b 150 831 190 726 150 772 b 253 933 150 890 190 933 b 353 831 315 933 353 890 b 253 726 353 772 315 726 m 324 639 b 636 93 592 465 636 293 l 636 0 l 42 0 l 42 179 l 431 179 b 199 474 421 308 268 433 l 324 639 "},"ﺬ":{"ha":707,"x_min":0,"x_max":0,"o":"m 42 179 l 431 179 b 199 474 421 308 268 433 l 324 639 b 633 179 553 490 618 343 l 707 179 b 735 83 726 179 735 153 b 707 0 735 21 726 0 l 42 0 m 150 831 b 253 933 150 890 190 933 b 353 831 315 933 353 890 b 253 726 353 772 315 726 b 150 831 190 726 150 772 "},"ڈ":{"ha":692,"x_min":0,"x_max":0,"o":"m 431 179 b 199 474 421 308 268 433 l 324 639 b 636 93 592 465 636 293 l 636 0 l 42 0 l 42 179 m 19 833 l 82 833 l 82 1072 l 176 1072 l 176 940 b 300 1007 207 982 244 1007 b 444 850 385 1007 444 949 b 419 732 444 815 436 776 l 19 732 m 339 833 b 340 850 340 839 340 844 b 288 906 340 885 319 906 b 176 833 251 906 208 881 "},"ﮉ":{"ha":707,"x_min":0,"x_max":0,"o":"m 42 0 l 42 179 l 431 179 b 199 474 421 308 268 433 l 324 639 b 633 179 553 490 618 343 l 707 179 b 735 83 726 179 735 153 b 707 0 735 21 726 0 m 19 833 l 82 833 l 82 1072 l 176 1072 l 176 940 b 300 1007 207 982 244 1007 b 444 850 385 1007 444 949 b 419 732 444 815 436 776 l 19 732 m 339 833 b 340 850 340 839 340 844 b 288 906 340 885 319 906 b 176 833 251 906 208 881 "},"ر":{"ha":439,"x_min":0,"x_max":0,"o":"m -7 -92 b 153 44 110 -79 153 -49 l 153 592 l 358 592 l 358 86 b 18 -265 358 -153 253 -256 "},"ﺮ":{"ha":468,"x_min":0,"x_max":0,"o":"m 468 179 b 496 83 488 179 496 153 b 468 0 496 21 488 0 l 353 0 b 18 -265 329 -178 222 -257 l -7 -92 b 153 44 110 -79 153 -49 l 153 592 l 358 592 l 358 179 l 468 179 "},"ز":{"ha":439,"x_min":0,"x_max":0,"o":"m 254 753 b 151 857 192 753 151 799 b 254 960 151 917 192 960 b 354 857 317 960 354 917 b 254 753 354 799 317 753 m -7 -92 b 153 44 110 -79 153 -49 l 153 592 l 358 592 l 358 86 b 18 -265 358 -153 253 -256 "},"ﺰ":{"ha":468,"x_min":0,"x_max":0,"o":"m 254 753 b 151 857 192 753 151 799 b 254 960 151 917 192 960 b 354 857 317 960 354 917 b 254 753 354 799 317 753 m 468 179 b 496 83 488 179 496 153 b 468 0 496 21 488 0 l 353 0 b 18 -265 329 -178 222 -257 l -7 -92 b 153 44 110 -79 153 -49 l 153 592 l 358 592 l 358 179 l 468 179 "},"ڑ":{"ha":439,"x_min":0,"x_max":0,"o":"m -7 -92 b 153 44 110 -79 153 -49 l 153 592 l 358 592 l 358 86 b 18 -265 358 -153 253 -256 m 21 860 l 83 860 l 83 1099 l 178 1099 l 178 967 b 301 1033 208 1008 246 1033 b 446 876 386 1033 446 975 b 421 758 446 842 438 803 l 21 758 m 289 932 b 178 860 253 932 210 907 l 340 860 b 342 876 342 865 342 871 b 289 932 342 911 321 932 "},"ﮍ":{"ha":468,"x_min":0,"x_max":0,"o":"m -7 -92 b 153 44 110 -79 153 -49 l 153 592 l 358 592 l 358 179 l 468 179 b 496 83 488 179 496 153 b 468 0 496 21 488 0 l 353 0 b 18 -265 329 -178 222 -257 m 21 758 l 21 860 l 83 860 l 83 1099 l 178 1099 l 178 967 b 301 1033 208 1008 246 1033 b 446 876 386 1033 446 975 b 421 758 446 842 438 803 m 340 860 b 342 876 342 865 342 871 b 289 932 342 911 321 932 b 178 860 253 932 210 907 "},"ژ":{"ha":439,"x_min":0,"x_max":0,"o":"m 257 949 b 156 1053 200 949 156 996 b 257 1158 156 1111 200 1158 b 360 1053 319 1158 360 1111 b 257 949 360 996 319 949 m 128 736 b 24 842 68 736 24 782 b 128 944 24 901 68 944 b 229 842 188 944 229 901 b 128 736 229 782 188 736 m 378 736 b 274 842 318 736 274 782 b 378 944 274 901 318 944 b 479 842 436 944 479 901 b 378 736 479 782 436 736 m -7 -92 b 153 44 110 -79 153 -49 l 153 592 l 358 592 l 358 86 b 18 -265 358 -153 253 -256 "},"ﮋ":{"ha":468,"x_min":0,"x_max":0,"o":"m 257 949 b 156 1053 200 949 156 996 b 257 1158 156 1111 200 1158 b 360 1053 319 1158 360 1111 b 257 949 360 996 319 949 m 128 736 b 24 842 68 736 24 782 b 128 944 24 901 68 944 b 229 842 188 944 229 901 b 128 736 229 782 188 736 m 274 842 b 378 944 274 901 318 944 b 479 842 436 944 479 901 b 378 736 479 782 436 736 b 274 842 318 736 274 782 m 468 179 b 496 83 488 179 496 153 b 468 0 496 21 488 0 l 353 0 b 18 -265 329 -178 222 -257 l -7 -92 b 153 44 110 -79 153 -49 l 153 592 l 358 592 l 358 179 l 468 179 "},"س":{"ha":1638,"x_min":0,"x_max":0,"o":"m 403 -254 b 14 94 129 -254 14 -65 b 78 358 14 174 33 257 l 257 294 b 219 122 231 224 219 174 b 407 -68 219 3 290 -68 b 593 149 522 -68 593 -18 l 593 490 l 799 490 l 799 257 b 889 179 799 208 825 179 b 981 290 972 179 981 219 l 981 490 l 1186 490 l 1186 257 b 1276 179 1186 208 1213 179 b 1368 290 1360 179 1368 221 l 1368 592 l 1574 592 l 1574 240 b 1307 0 1574 92 1463 0 b 1121 53 1242 0 1175 15 b 924 0 1065 13 1003 0 b 793 26 872 0 831 7 b 403 -254 764 -171 608 -254 "},"ﺲ":{"ha":1697,"x_min":0,"x_max":0,"o":"m 14 94 b 78 358 14 174 33 257 l 257 294 b 219 122 231 224 219 174 b 407 -68 219 3 290 -68 b 593 149 522 -68 593 -18 l 593 490 l 799 490 l 799 257 b 889 179 799 208 825 179 b 981 290 972 179 981 219 l 981 490 l 1186 490 l 1186 257 b 1276 179 1186 208 1213 179 b 1368 290 1360 179 1368 221 l 1368 592 l 1574 592 l 1574 307 b 1697 179 1574 217 1624 179 b 1725 83 1717 179 1725 153 b 1697 0 1725 21 1717 0 b 1508 74 1603 0 1543 26 b 1307 0 1461 26 1390 0 b 1121 53 1242 0 1175 15 b 924 0 1065 13 1003 0 b 793 26 872 0 831 7 b 403 -254 764 -171 608 -254 b 14 94 129 -254 14 -65 "},"ﺴ":{"ha":1232,"x_min":0,"x_max":0,"o":"m 0 179 l 36 179 b 128 290 118 179 128 219 l 128 490 l 333 490 l 333 257 b 424 179 333 208 360 179 b 515 290 507 179 515 219 l 515 490 l 721 490 l 721 257 b 811 179 721 208 747 179 b 903 290 893 179 903 221 l 903 592 l 1108 592 l 1108 307 b 1232 179 1108 217 1158 179 b 1260 83 1251 179 1260 153 b 1232 0 1260 21 1251 0 b 1043 74 1138 0 1078 26 b 840 0 994 26 924 0 b 656 53 776 0 710 15 b 458 0 600 13 536 0 b 254 56 379 0 308 11 b 38 0 206 15 151 0 l 0 0 "},"ﺳ":{"ha":1172,"x_min":0,"x_max":0,"o":"m 36 179 b 128 290 118 179 128 219 l 128 490 l 333 490 l 333 257 b 424 179 333 208 360 179 b 515 290 507 179 515 219 l 515 490 l 721 490 l 721 257 b 811 179 721 208 747 179 b 903 290 893 179 903 221 l 903 592 l 1108 592 l 1108 240 b 840 0 1108 92 996 0 b 656 53 776 0 710 15 b 458 0 600 13 536 0 b 254 56 379 0 308 11 b 38 0 206 15 151 0 l 0 0 l 0 179 "},"ش":{"ha":1638,"x_min":0,"x_max":0,"o":"m 403 -254 b 14 94 129 -254 14 -65 b 78 358 14 174 33 257 l 257 294 b 219 122 231 224 219 174 b 407 -68 219 3 290 -68 b 593 149 522 -68 593 -18 l 593 490 l 799 490 l 799 257 b 889 179 799 208 825 179 b 981 290 972 179 981 219 l 981 490 l 1186 490 l 1186 257 b 1276 179 1186 208 1213 179 b 1368 290 1360 179 1368 221 l 1368 592 l 1574 592 l 1574 240 b 1307 0 1574 92 1463 0 b 1121 53 1242 0 1175 15 b 924 0 1065 13 1003 0 b 793 26 872 0 831 7 b 403 -254 764 -171 608 -254 m 957 635 b 853 740 897 635 853 681 b 957 843 853 800 897 843 b 1058 740 1017 843 1058 800 b 957 635 1058 681 1017 635 m 1103 740 b 1207 843 1103 800 1147 843 b 1308 740 1265 843 1308 800 b 1207 635 1308 681 1265 635 b 1103 740 1147 635 1103 681 m 985 951 b 1086 1057 985 1010 1029 1057 b 1189 951 1149 1057 1189 1010 b 1086 847 1189 894 1149 847 b 985 951 1029 847 985 894 "},"ﺶ":{"ha":1697,"x_min":0,"x_max":0,"o":"m 14 94 b 78 358 14 174 33 257 l 257 294 b 219 122 231 224 219 174 b 407 -68 219 3 290 -68 b 593 149 522 -68 593 -18 l 593 490 l 799 490 l 799 257 b 889 179 799 208 825 179 b 981 290 972 179 981 219 l 981 490 l 1186 490 l 1186 257 b 1276 179 1186 208 1213 179 b 1368 290 1360 179 1368 221 l 1368 592 l 1574 592 l 1574 307 b 1697 179 1574 217 1624 179 b 1725 83 1717 179 1725 153 b 1697 0 1725 21 1717 0 b 1508 74 1603 0 1543 26 b 1307 0 1461 26 1390 0 b 1121 53 1242 0 1175 15 b 924 0 1065 13 1003 0 b 793 26 872 0 831 7 b 403 -254 764 -171 608 -254 b 14 94 129 -254 14 -65 m 853 740 b 957 843 853 800 897 843 b 1058 740 1017 843 1058 800 b 957 635 1058 681 1017 635 b 853 740 897 635 853 681 m 1103 740 b 1207 843 1103 800 1147 843 b 1308 740 1265 843 1308 800 b 1207 635 1308 681 1265 635 b 1103 740 1147 635 1103 681 m 985 951 b 1086 1057 985 1010 1029 1057 b 1189 951 1149 1057 1189 1010 b 1086 847 1189 894 1149 847 b 985 951 1029 847 985 894 "},"ﺸ":{"ha":1232,"x_min":0,"x_max":0,"o":"m 0 0 l 0 179 l 36 179 b 128 290 118 179 128 219 l 128 490 l 333 490 l 333 257 b 424 179 333 208 360 179 b 515 290 507 179 515 219 l 515 490 l 721 490 l 721 257 b 811 179 721 208 747 179 b 903 290 893 179 903 221 l 903 592 l 1108 592 l 1108 307 b 1232 179 1108 217 1158 179 b 1260 83 1251 179 1260 153 b 1232 0 1260 21 1251 0 b 1043 74 1138 0 1078 26 b 840 0 994 26 924 0 b 656 53 776 0 710 15 b 458 0 600 13 536 0 b 254 56 379 0 308 11 b 38 0 206 15 151 0 m 386 740 b 490 843 386 800 431 843 b 592 740 550 843 592 800 b 490 635 592 681 550 635 b 386 740 431 635 386 681 m 740 635 b 636 740 681 635 636 681 b 740 843 636 800 681 843 b 842 740 799 843 842 800 b 740 635 842 681 799 635 m 619 847 b 518 951 563 847 518 894 b 619 1057 518 1010 563 1057 b 722 951 682 1057 722 1010 b 619 847 722 894 682 847 "},"ﺷ":{"ha":1172,"x_min":0,"x_max":0,"o":"m 0 0 l 0 179 l 36 179 b 128 290 118 179 128 219 l 128 490 l 333 490 l 333 257 b 424 179 333 208 360 179 b 515 290 507 179 515 219 l 515 490 l 721 490 l 721 257 b 811 179 721 208 747 179 b 903 290 893 179 903 221 l 903 592 l 1108 592 l 1108 240 b 840 0 1108 92 996 0 b 656 53 776 0 710 15 b 458 0 600 13 536 0 b 254 56 379 0 308 11 b 38 0 206 15 151 0 m 386 740 b 490 843 386 800 431 843 b 592 740 550 843 592 800 b 490 635 592 681 550 635 b 386 740 431 635 386 681 m 636 740 b 740 843 636 800 681 843 b 842 740 799 843 842 800 b 740 635 842 681 799 635 b 636 740 681 635 636 681 m 619 847 b 518 951 563 847 518 894 b 619 1057 518 1010 563 1057 b 722 951 682 1057 722 1010 b 619 847 722 894 682 847 "},"ص":{"ha":1846,"x_min":0,"x_max":0,"o":"m 1451 607 b 1789 243 1668 607 1789 472 b 1753 0 1789 171 1778 89 l 947 0 b 796 38 881 0 833 11 b 403 -254 771 -167 613 -254 b 14 94 129 -254 14 -65 b 78 358 14 174 33 257 l 257 294 b 219 122 231 224 219 174 b 407 -68 219 3 290 -68 b 593 149 522 -68 593 -18 l 593 490 l 799 490 l 799 272 b 904 179 799 224 838 183 b 1451 607 1083 549 1328 607 m 1583 179 b 1586 225 1585 196 1586 211 b 1424 421 1586 344 1531 421 b 1135 179 1318 421 1208 326 l 1583 179 "},"ﺺ":{"ha":1865,"x_min":0,"x_max":0,"o":"m 14 94 b 78 358 14 174 33 257 l 257 294 b 219 122 231 224 219 174 b 407 -68 219 3 290 -68 b 593 149 522 -68 593 -18 l 593 490 l 799 490 l 799 272 b 904 179 799 224 838 183 b 1451 607 1083 549 1328 607 b 1789 243 1668 607 1789 472 b 1786 179 1789 222 1788 201 l 1865 179 b 1893 83 1885 179 1893 153 b 1865 0 1893 21 1885 0 l 947 0 b 796 38 881 0 833 11 b 403 -254 771 -167 613 -254 b 14 94 129 -254 14 -65 m 1424 421 b 1135 179 1318 421 1208 326 l 1583 179 b 1586 225 1585 196 1586 211 b 1424 421 1586 344 1531 421 "},"ﺼ":{"ha":1332,"x_min":0,"x_max":0,"o":"m 0 179 b 93 303 82 179 93 192 l 93 490 l 299 490 l 299 258 b 372 179 299 207 307 181 b 919 607 550 549 794 607 b 1256 243 1135 607 1256 472 b 1253 179 1256 222 1254 201 l 1332 179 b 1360 83 1351 179 1360 153 b 1332 0 1360 21 1351 0 l 414 0 b 226 42 342 0 276 14 b 0 0 186 14 124 0 m 1051 179 b 1054 225 1053 196 1054 211 b 890 421 1054 344 999 421 b 603 179 786 421 676 326 "},"ﺻ":{"ha":1313,"x_min":0,"x_max":0,"o":"m 919 607 b 1256 243 1135 607 1256 472 b 1219 0 1256 171 1244 89 l 414 0 b 226 42 342 0 276 14 b 0 0 186 14 124 0 l 0 179 b 93 303 82 179 93 192 l 93 490 l 299 490 l 299 258 b 372 179 299 207 307 181 b 919 607 550 549 794 607 m 1051 179 b 1054 225 1053 196 1054 211 b 890 421 1054 344 999 421 b 603 179 786 421 676 326 l 1051 179 "},"ض":{"ha":1846,"x_min":0,"x_max":0,"o":"m 1333 768 b 1231 872 1271 768 1231 814 b 1333 975 1231 932 1271 975 b 1433 872 1396 975 1433 932 b 1333 768 1433 814 1396 768 m 1451 607 b 1789 243 1668 607 1789 472 b 1753 0 1789 171 1778 89 l 947 0 b 796 38 881 0 833 11 b 403 -254 771 -167 613 -254 b 14 94 129 -254 14 -65 b 78 358 14 174 33 257 l 257 294 b 219 122 231 224 219 174 b 407 -68 219 3 290 -68 b 593 149 522 -68 593 -18 l 593 490 l 799 490 l 799 272 b 904 179 799 224 838 183 b 1451 607 1083 549 1328 607 m 1583 179 b 1586 225 1585 196 1586 211 b 1424 421 1586 344 1531 421 b 1135 179 1318 421 1208 326 l 1583 179 "},"ﺾ":{"ha":1865,"x_min":0,"x_max":0,"o":"m 14 94 b 78 358 14 174 33 257 l 257 294 b 219 122 231 224 219 174 b 407 -68 219 3 290 -68 b 593 149 522 -68 593 -18 l 593 490 l 799 490 l 799 272 b 904 179 799 224 838 183 b 1451 607 1083 549 1328 607 b 1789 243 1668 607 1789 472 b 1786 179 1789 222 1788 201 l 1865 179 b 1893 83 1885 179 1893 153 b 1865 0 1893 21 1885 0 l 947 0 b 796 38 881 0 833 11 b 403 -254 771 -167 613 -254 b 14 94 129 -254 14 -65 m 1424 421 b 1135 179 1318 421 1208 326 l 1583 179 b 1586 225 1585 196 1586 211 b 1424 421 1586 344 1531 421 m 1231 872 b 1333 975 1231 932 1271 975 b 1433 872 1396 975 1433 932 b 1333 768 1433 814 1396 768 b 1231 872 1271 768 1231 814 "},"ﻀ":{"ha":1332,"x_min":0,"x_max":0,"o":"m 0 179 b 93 303 82 179 93 192 l 93 490 l 299 490 l 299 258 b 372 179 299 207 307 181 b 919 607 550 549 794 607 b 1256 243 1135 607 1256 472 b 1253 179 1256 222 1254 201 l 1332 179 b 1360 83 1351 179 1360 153 b 1332 0 1360 21 1351 0 l 414 0 b 226 42 342 0 276 14 b 0 0 186 14 124 0 m 1051 179 b 1054 225 1053 196 1054 211 b 890 421 1054 344 999 421 b 603 179 786 421 676 326 m 779 768 b 676 872 717 768 676 814 b 779 975 676 932 717 975 b 879 872 842 975 879 932 b 779 768 879 814 842 768 "},"ﺿ":{"ha":1313,"x_min":0,"x_max":0,"o":"m 779 768 b 676 872 717 768 676 814 b 779 975 676 932 717 975 b 879 872 842 975 879 932 b 779 768 879 814 842 768 m 919 607 b 1256 243 1135 607 1256 472 b 1219 0 1256 171 1244 89 l 414 0 b 226 42 342 0 276 14 b 0 0 186 14 124 0 l 0 179 b 93 303 82 179 93 192 l 93 490 l 299 490 l 299 258 b 372 179 299 207 307 181 b 919 607 550 549 794 607 m 1051 179 b 1054 225 1053 196 1054 211 b 890 421 1054 344 999 421 b 603 179 786 421 676 326 l 1051 179 "},"ط":{"ha":1147,"x_min":0,"x_max":0,"o":"m 28 179 l 146 179 l 146 1050 l 351 1050 l 351 397 b 747 607 469 550 626 607 b 1090 244 971 607 1090 472 b 1054 0 1090 172 1079 90 l 28 0 m 886 179 b 889 225 888 196 889 211 b 719 421 889 344 833 421 b 351 179 604 421 464 325 "},"ﻂ":{"ha":1167,"x_min":0,"x_max":0,"o":"m 146 179 l 146 1050 l 351 1050 l 351 397 b 747 607 469 550 626 607 b 1090 244 971 607 1090 472 b 1088 179 1090 224 1089 201 l 1167 179 b 1194 83 1186 179 1194 153 b 1167 0 1194 21 1186 0 l 28 0 l 28 179 m 886 179 b 889 225 888 196 889 211 b 719 421 889 344 833 421 b 351 179 604 421 464 325 "},"ﻄ":{"ha":1126,"x_min":0,"x_max":0,"o":"m 106 179 l 106 1050 l 311 1050 l 311 399 b 706 607 431 550 586 607 b 1050 244 929 607 1050 472 b 1047 179 1050 224 1049 201 l 1126 179 b 1154 83 1146 179 1154 153 b 1126 0 1154 21 1146 0 l 0 0 l 0 179 m 844 179 b 849 225 846 196 849 211 b 679 421 849 344 792 421 b 313 179 554 421 421 321 "},"ﻃ":{"ha":1107,"x_min":0,"x_max":0,"o":"m 0 179 l 106 179 l 106 1050 l 311 1050 l 311 399 b 706 607 431 550 586 607 b 1050 244 929 607 1050 472 b 1014 0 1050 172 1039 90 l 0 0 m 844 179 b 849 225 846 196 849 211 b 679 421 849 344 792 421 b 313 179 554 421 421 321 "},"ظ":{"ha":1147,"x_min":0,"x_max":0,"o":"m 28 179 l 146 179 l 146 1050 l 351 1050 l 351 397 b 747 607 469 550 626 607 b 1090 244 971 607 1090 472 b 1054 0 1090 172 1079 90 l 28 0 m 886 179 b 889 225 888 196 889 211 b 719 421 889 344 833 421 b 351 179 604 421 464 325 m 701 768 b 599 872 639 768 599 814 b 701 975 599 932 639 975 b 801 872 764 975 801 932 b 701 768 801 814 764 768 "},"ﻆ":{"ha":1167,"x_min":0,"x_max":0,"o":"m 146 179 l 146 1050 l 351 1050 l 351 397 b 747 607 469 550 626 607 b 1090 244 971 607 1090 472 b 1088 179 1090 224 1089 201 l 1167 179 b 1194 83 1186 179 1194 153 b 1167 0 1194 21 1186 0 l 28 0 l 28 179 m 719 421 b 351 179 604 421 464 325 l 886 179 b 889 225 888 196 889 211 b 719 421 889 344 833 421 m 599 872 b 701 975 599 932 639 975 b 801 872 764 975 801 932 b 701 768 801 814 764 768 b 599 872 639 768 599 814 "},"ﻈ":{"ha":1126,"x_min":0,"x_max":0,"o":"m 106 179 l 106 1050 l 311 1050 l 311 399 b 706 607 431 550 586 607 b 1050 244 929 607 1050 472 b 1047 179 1050 224 1049 201 l 1126 179 b 1154 83 1146 179 1154 153 b 1126 0 1154 21 1146 0 l 0 0 l 0 179 m 844 179 b 849 225 846 196 849 211 b 679 421 849 344 792 421 b 313 179 554 421 421 321 m 642 768 b 539 872 579 768 539 814 b 642 975 539 932 579 975 b 742 872 704 975 742 932 b 642 768 742 814 704 768 "},"ﻇ":{"ha":1107,"x_min":0,"x_max":0,"o":"m 0 179 l 106 179 l 106 1050 l 311 1050 l 311 399 b 706 607 431 550 586 607 b 1050 244 929 607 1050 472 b 1014 0 1050 172 1039 90 l 0 0 m 844 179 b 849 225 846 196 849 211 b 679 421 849 344 792 421 b 313 179 554 421 421 321 m 539 872 b 642 975 539 932 579 975 b 742 872 704 975 742 932 b 642 768 742 814 704 768 b 539 872 579 768 539 814 "},"ع":{"ha":740,"x_min":0,"x_max":0,"o":"m 363 0 b 240 -90 285 0 240 -31 b 364 -175 240 -149 290 -175 b 468 -168 415 -175 443 -172 l 504 -339 b 354 -361 463 -353 419 -361 b 29 -97 160 -361 29 -275 b 194 156 29 26 90 115 b 151 321 168 201 151 261 b 492 607 151 489 272 607 b 671 585 554 607 610 600 l 633 407 b 514 421 597 414 553 421 b 357 299 407 421 357 376 b 397 179 357 250 376 210 l 706 179 l 706 0 l 363 0 "},"ﻊ":{"ha":801,"x_min":0,"x_max":0,"o":"m 801 179 b 829 83 821 179 829 153 b 801 0 829 21 821 0 l 679 0 b 392 28 563 0 471 11 b 240 -104 265 -10 240 -67 b 364 -175 240 -154 289 -175 b 468 -168 415 -175 443 -172 l 504 -339 b 354 -361 463 -354 421 -361 b 29 -122 160 -361 29 -279 b 240 136 29 -14 92 74 b 61 347 186 221 117 304 b 101 532 69 419 82 486 b 433 607 200 578 322 607 b 719 401 608 607 719 532 b 632 179 719 322 682 244 l 801 179 m 261 400 b 414 208 319 346 368 296 b 513 347 478 253 513 310 b 388 421 513 386 479 421 b 263 406 350 421 296 415 "},"ﻌ":{"ha":811,"x_min":0,"x_max":0,"o":"m 811 179 b 839 83 831 179 839 153 b 811 0 839 21 831 0 l 690 0 b 406 28 576 0 485 10 b 44 0 296 6 194 0 l 0 0 l 0 179 l 221 179 b 71 346 172 249 117 311 b 110 532 79 419 90 486 b 443 607 208 578 332 607 b 728 400 617 607 728 532 b 642 179 728 321 690 244 l 811 179 m 269 400 b 424 207 331 344 381 292 b 522 347 485 240 522 304 b 397 421 522 386 489 421 b 271 406 360 421 306 415 "},"ﻋ":{"ha":654,"x_min":0,"x_max":0,"o":"m 92 179 b 65 321 74 222 65 276 b 406 607 65 489 186 607 b 585 585 468 607 524 600 l 546 407 b 426 421 510 414 465 421 b 271 299 322 421 271 376 b 304 179 271 250 286 210 l 619 179 l 619 0 l 0 0 l 0 179 "},"غ":{"ha":740,"x_min":0,"x_max":0,"o":"m 492 768 b 389 872 429 768 389 814 b 492 975 389 932 429 975 b 592 872 554 975 592 932 b 492 768 592 814 554 768 m 363 0 b 240 -90 285 0 240 -31 b 364 -175 240 -149 290 -175 b 468 -168 415 -175 443 -172 l 504 -339 b 354 -361 463 -353 419 -361 b 29 -97 160 -361 29 -275 b 194 156 29 26 90 115 b 151 321 168 201 151 261 b 492 607 151 489 272 607 b 671 585 554 607 610 600 l 633 407 b 514 421 597 414 553 421 b 357 299 407 421 357 376 b 397 179 357 250 376 210 l 706 179 l 706 0 l 363 0 "},"ﻎ":{"ha":801,"x_min":0,"x_max":0,"o":"m 419 768 b 317 872 357 768 317 814 b 419 975 317 932 357 975 b 519 872 482 975 519 932 b 419 768 519 814 482 768 m 801 179 b 829 83 821 179 829 153 b 801 0 829 21 821 0 l 679 0 b 392 28 563 0 471 11 b 240 -104 265 -10 240 -67 b 364 -175 240 -154 289 -175 b 468 -168 415 -175 443 -172 l 504 -339 b 354 -361 463 -354 421 -361 b 29 -122 160 -361 29 -279 b 240 136 29 -14 92 74 b 61 347 186 221 117 304 b 101 532 69 419 82 486 b 433 607 200 578 322 607 b 719 401 608 607 719 532 b 632 179 719 322 682 244 l 801 179 m 261 400 b 414 208 319 346 368 296 b 513 347 478 253 513 310 b 388 421 513 386 479 421 b 263 406 350 421 296 415 "},"ﻐ":{"ha":811,"x_min":0,"x_max":0,"o":"m 429 768 b 326 872 367 768 326 814 b 429 975 326 932 367 975 b 529 872 492 975 529 932 b 429 768 529 814 492 768 m 811 179 b 839 83 831 179 839 153 b 811 0 839 21 831 0 l 690 0 b 406 28 576 0 485 10 b 44 0 296 6 194 0 l 0 0 l 0 179 l 221 179 b 71 346 172 249 117 311 b 110 532 79 419 90 486 b 443 607 208 578 332 607 b 728 400 617 607 728 532 b 642 179 728 321 690 244 l 811 179 m 269 400 b 424 207 331 344 381 292 b 522 347 485 240 522 304 b 397 421 522 386 489 421 b 271 406 360 421 306 415 "},"ﻏ":{"ha":654,"x_min":0,"x_max":0,"o":"m 0 179 l 92 179 b 65 321 74 222 65 276 b 406 607 65 489 186 607 b 585 585 468 607 524 600 l 546 407 b 426 421 510 414 465 421 b 271 299 322 421 271 376 b 304 179 271 250 286 210 l 619 179 l 619 0 l 0 0 m 303 872 b 406 975 303 932 343 975 b 506 872 468 975 506 932 b 406 768 506 814 468 768 b 303 872 343 768 303 814 "},"ف":{"ha":1522,"x_min":0,"x_max":0,"o":"m 401 0 b 42 292 175 0 42 124 b 86 517 42 378 65 461 l 263 471 b 240 335 246 399 240 367 b 435 179 240 238 318 179 l 804 179 b 786 286 794 207 786 243 b 1132 607 786 467 913 607 b 1458 296 1389 607 1458 411 b 1403 0 1458 208 1439 97 l 401 0 m 992 290 b 1014 179 992 253 999 218 l 1242 179 b 1251 274 1247 207 1251 246 b 1128 421 1251 350 1219 421 b 992 290 1038 421 992 367 m 1029 872 b 1132 975 1029 932 1069 975 b 1232 872 1194 975 1232 932 b 1132 768 1232 814 1194 768 b 1029 872 1069 768 1029 814 "},"ﻒ":{"ha":1536,"x_min":0,"x_max":0,"o":"m 401 0 b 42 292 175 0 42 124 b 86 517 42 378 65 461 l 263 471 b 240 335 246 399 240 367 b 435 179 240 238 318 179 l 838 179 b 799 319 815 215 799 265 b 1136 607 799 463 913 607 b 1467 328 1351 607 1467 469 b 1421 179 1467 276 1451 226 l 1536 179 b 1564 83 1556 179 1564 153 b 1536 0 1564 21 1556 0 l 1381 0 b 1124 18 1272 0 1181 10 b 885 0 1063 10 971 0 l 401 0 m 1133 421 b 1004 314 1057 421 1004 376 b 1131 181 1004 242 1088 188 b 1260 313 1174 183 1260 236 b 1133 421 1260 372 1213 421 m 1033 872 b 1136 975 1033 932 1074 975 b 1236 872 1199 975 1236 932 b 1136 768 1236 814 1199 768 b 1033 872 1074 768 1033 814 "},"ﻔ":{"ha":826,"x_min":0,"x_max":0,"o":"m 128 179 b 89 319 106 215 89 265 b 426 607 89 463 203 607 b 757 328 642 607 757 469 b 711 179 757 276 742 226 l 826 179 b 854 83 846 179 854 153 b 826 0 854 21 846 0 l 671 0 b 414 18 563 0 471 10 b 175 0 353 10 261 0 l 0 0 l 0 179 m 294 314 b 421 181 294 242 378 188 b 550 313 464 183 550 236 b 424 421 550 372 503 421 b 294 314 347 421 294 376 m 324 872 b 426 975 324 932 364 975 b 526 872 489 975 526 932 b 426 768 526 814 489 768 b 324 872 364 768 324 814 "},"ﻓ":{"ha":818,"x_min":0,"x_max":0,"o":"m 0 179 l 107 179 b 89 286 97 207 89 243 b 435 607 89 467 215 607 b 761 296 692 607 761 411 b 706 0 761 208 742 97 l 0 0 m 431 421 b 294 290 340 421 294 367 b 317 179 294 253 301 218 l 544 179 b 554 274 550 207 554 246 b 431 421 554 350 522 421 m 332 872 b 435 975 332 932 372 975 b 535 872 497 975 535 932 b 435 768 535 814 497 768 b 332 872 372 768 332 814 "},"ڤ":{"ha":1522,"x_min":0,"x_max":0,"o":"m 401 0 b 42 292 175 0 42 124 b 86 517 42 378 65 461 l 263 471 b 240 335 246 399 240 367 b 435 179 240 238 318 179 l 804 179 b 786 286 794 207 786 243 b 1132 607 786 467 913 607 b 1458 296 1389 607 1458 411 b 1403 0 1458 208 1439 97 l 401 0 m 1128 421 b 992 290 1038 421 992 367 b 1014 179 992 253 999 218 l 1242 179 b 1251 274 1247 207 1251 246 b 1128 421 1251 350 1219 421 m 1006 751 b 901 857 946 751 901 797 b 1006 960 901 917 946 960 b 1107 857 1065 960 1107 917 b 1006 751 1107 797 1065 751 m 1256 751 b 1151 857 1196 751 1151 797 b 1256 960 1151 917 1196 960 b 1357 857 1314 960 1357 917 b 1256 751 1357 797 1314 751 m 1033 1068 b 1135 1174 1033 1126 1078 1174 b 1238 1068 1197 1174 1238 1126 b 1135 964 1238 1011 1197 964 b 1033 1068 1078 964 1033 1011 "},"ﭫ":{"ha":1536,"x_min":0,"x_max":0,"o":"m 401 0 b 42 292 175 0 42 124 b 86 517 42 378 65 461 l 263 471 b 240 335 246 399 240 367 b 435 179 240 238 318 179 l 838 179 b 799 319 815 215 799 265 b 1136 607 799 463 913 607 b 1467 328 1351 607 1467 469 b 1421 179 1467 276 1451 226 l 1536 179 b 1564 83 1556 179 1564 153 b 1536 0 1564 21 1556 0 l 1381 0 b 1124 18 1272 0 1181 10 b 885 0 1063 10 971 0 l 401 0 m 1133 421 b 1004 314 1057 421 1004 376 b 1131 181 1004 242 1088 188 b 1260 313 1174 183 1260 236 b 1133 421 1260 372 1213 421 m 1010 751 b 906 857 950 751 906 797 b 1010 960 906 917 950 960 b 1111 857 1069 960 1111 917 b 1010 751 1111 797 1069 751 m 1156 857 b 1260 960 1156 917 1200 960 b 1361 857 1318 960 1361 917 b 1260 751 1361 797 1318 751 b 1156 857 1200 751 1156 797 m 1139 964 b 1038 1068 1082 964 1038 1011 b 1139 1174 1038 1126 1082 1174 b 1242 1068 1201 1174 1242 1126 b 1139 964 1242 1011 1201 964 "},"ﭭ":{"ha":826,"x_min":0,"x_max":0,"o":"m 0 0 l 0 179 l 128 179 b 89 319 106 215 89 265 b 426 607 89 463 203 607 b 757 328 642 607 757 469 b 711 179 757 276 742 226 l 826 179 b 854 83 846 179 854 153 b 826 0 854 21 846 0 l 671 0 b 414 18 563 0 471 10 b 175 0 353 10 261 0 m 294 314 b 421 181 294 242 378 188 b 550 313 464 183 550 236 b 424 421 550 372 503 421 b 294 314 347 421 294 376 m 300 751 b 196 857 240 751 196 797 b 300 960 196 917 240 960 b 401 857 360 960 401 917 b 300 751 401 797 360 751 m 446 857 b 550 960 446 917 490 960 b 651 857 608 960 651 917 b 550 751 651 797 608 751 b 446 857 490 751 446 797 m 429 964 b 328 1068 372 964 328 1011 b 429 1174 328 1126 372 1174 b 532 1068 492 1174 532 1126 b 429 964 532 1011 492 964 "},"ﭬ":{"ha":818,"x_min":0,"x_max":0,"o":"m 0 179 l 107 179 b 89 286 97 207 89 243 b 435 607 89 467 215 607 b 761 296 692 607 761 411 b 706 0 761 208 742 97 l 0 0 m 431 421 b 294 290 340 421 294 367 b 317 179 294 253 301 218 l 544 179 b 554 274 550 207 554 246 b 431 421 554 350 522 421 m 308 751 b 204 857 249 751 204 797 b 308 960 204 917 249 960 b 410 857 368 960 410 917 b 308 751 410 797 368 751 m 454 857 b 558 960 454 917 499 960 b 660 857 617 960 660 917 b 558 751 660 797 617 751 b 454 857 499 751 454 797 m 438 964 b 336 1068 381 964 336 1011 b 438 1174 336 1126 381 1174 b 540 1068 500 1174 540 1126 b 438 964 540 1011 500 964 "},"ڡ":{"ha":1522,"x_min":0,"x_max":0,"o":"m 42 292 b 86 517 42 378 65 461 l 263 471 b 240 335 246 399 240 367 b 435 179 240 238 318 179 l 804 179 b 786 286 794 207 786 243 b 1132 607 786 467 913 607 b 1458 296 1389 607 1458 411 b 1403 0 1458 208 1439 97 l 401 0 b 42 292 175 0 42 124 m 992 290 b 1014 179 992 253 999 218 l 1242 179 b 1251 274 1247 207 1251 246 b 1128 421 1251 350 1219 421 b 992 290 1038 421 992 367 "},"ٯ":{"ha":1119,"x_min":0,"x_max":0,"o":"m 542 -254 b 14 94 164 -254 14 -115 b 51 290 14 149 26 219 l 233 240 b 219 128 224 199 219 160 b 551 -68 219 25 268 -68 b 849 39 751 -68 838 -18 b 724 26 811 31 771 26 b 413 303 533 26 413 128 b 746 607 413 463 539 607 b 1056 297 964 607 1056 451 l 1056 133 b 542 -254 1056 -106 918 -254 m 757 214 b 850 221 801 214 828 217 l 850 256 b 733 421 850 329 831 421 b 618 314 667 421 618 379 b 757 214 618 249 660 214 "},"ق":{"ha":1119,"x_min":0,"x_max":0,"o":"m 619 768 b 515 872 560 768 515 814 b 619 975 515 932 560 975 b 721 872 679 975 721 932 b 619 768 721 814 679 768 m 869 768 b 765 872 810 768 765 814 b 869 975 765 932 810 975 b 971 872 928 975 971 932 b 869 768 971 814 928 768 m 542 -254 b 14 94 164 -254 14 -115 b 51 290 14 149 26 219 l 233 240 b 219 128 224 199 219 160 b 551 -68 219 25 268 -68 b 849 39 751 -68 838 -18 b 724 26 811 31 771 26 b 413 303 533 26 413 128 b 746 607 413 463 539 607 b 1056 297 964 607 1056 451 l 1056 133 b 542 -254 1056 -106 918 -254 m 757 214 b 850 221 801 214 828 217 l 850 256 b 733 421 850 329 831 421 b 618 314 667 421 618 379 b 757 214 618 249 660 214 "},"ﻖ":{"ha":1150,"x_min":0,"x_max":0,"o":"m 14 94 b 51 290 14 149 26 219 l 239 240 b 225 128 229 199 225 160 b 551 -68 225 25 268 -68 b 844 0 738 -68 814 -44 l 776 0 b 426 288 533 0 426 118 b 753 607 426 463 560 607 b 1056 311 967 607 1056 465 l 1056 179 l 1150 179 b 1178 83 1169 179 1178 153 b 1150 0 1178 21 1169 0 l 1038 0 b 549 -254 990 -160 843 -254 b 14 94 164 -254 14 -115 m 743 421 b 638 299 679 421 638 368 b 765 179 638 225 679 179 l 850 179 l 850 283 b 743 421 850 369 818 421 m 626 768 b 522 872 567 768 522 814 b 626 975 522 932 567 975 b 728 872 686 975 728 932 b 626 768 728 814 686 768 m 876 768 b 772 872 817 768 772 814 b 876 975 772 932 817 975 b 978 872 935 975 978 932 b 876 768 978 814 935 768 "},"ﻘ":{"ha":826,"x_min":0,"x_max":0,"o":"m 0 179 l 128 179 b 89 319 106 215 89 265 b 426 607 89 463 203 607 b 757 328 642 607 757 469 b 711 179 757 276 742 226 l 826 179 b 854 83 846 179 854 153 b 826 0 854 21 846 0 l 671 0 b 414 18 563 0 471 10 b 175 0 353 10 261 0 l 0 0 m 294 314 b 421 181 294 242 378 188 b 550 313 464 183 550 236 b 424 421 550 372 503 421 b 294 314 347 421 294 376 m 300 768 b 196 872 240 768 196 814 b 300 975 196 932 240 975 b 401 872 360 975 401 932 b 300 768 401 814 360 768 m 446 872 b 550 975 446 932 490 975 b 651 872 608 975 651 932 b 550 768 651 814 608 768 b 446 872 490 768 446 814 "},"ﻗ":{"ha":818,"x_min":0,"x_max":0,"o":"m 0 179 l 107 179 b 89 286 97 207 89 243 b 435 607 89 467 215 607 b 761 296 692 607 761 411 b 706 0 761 208 742 97 l 0 0 m 431 421 b 294 290 340 421 294 367 b 317 179 294 253 301 218 l 544 179 b 554 274 550 207 554 246 b 431 421 554 350 522 421 m 204 872 b 308 975 204 932 249 975 b 410 872 368 975 410 932 b 308 768 410 814 368 768 b 204 872 249 768 204 814 m 454 872 b 558 975 454 932 499 975 b 660 872 617 975 660 932 b 558 768 660 814 617 768 b 454 872 499 768 454 814 "},"ك":{"ha":1207,"x_min":0,"x_max":0,"o":"m 28 292 b 72 517 28 378 51 461 l 249 471 b 226 335 232 399 226 367 b 421 179 226 238 304 179 l 800 179 b 921 326 897 179 921 218 l 921 1050 l 1126 1050 l 1126 301 b 800 0 1126 65 1021 0 l 388 0 b 28 292 161 0 28 124 m 439 444 l 439 547 l 492 547 b 478 604 482 565 478 585 b 636 735 478 671 532 735 b 710 724 665 735 690 729 l 696 622 b 651 628 682 625 665 628 b 601 589 621 628 601 615 b 617 547 601 575 607 558 l 725 547 l 725 444 "},"ﻚ":{"ha":1249,"x_min":0,"x_max":0,"o":"m 28 292 b 72 517 28 378 51 461 l 249 471 b 226 335 232 399 226 367 b 421 179 226 238 304 179 l 800 179 b 921 326 897 179 921 218 l 921 1050 l 1126 1050 l 1126 283 b 1249 179 1135 210 1182 179 b 1276 83 1268 179 1276 153 b 1249 0 1276 21 1268 0 b 1060 75 1154 0 1094 26 b 800 0 1006 19 919 0 l 388 0 b 28 292 161 0 28 124 m 439 547 l 492 547 b 478 604 482 565 478 585 b 636 735 478 671 532 735 b 710 724 665 735 690 729 l 696 622 b 651 628 682 625 665 628 b 601 589 621 628 601 615 b 617 547 601 575 607 558 l 725 547 l 725 444 l 439 444 "},"ﻜ":{"ha":700,"x_min":0,"x_max":0,"o":"m 0 179 l 403 179 b 33 479 400 328 338 422 l 33 672 l 426 1051 l 560 915 l 240 607 b 607 179 546 519 600 363 l 700 179 b 728 83 719 179 728 153 b 700 0 728 21 719 0 l 0 0 "},"ﻛ":{"ha":664,"x_min":0,"x_max":0,"o":"m 240 607 b 608 129 574 511 608 335 l 608 0 l 0 0 l 0 179 l 403 179 b 33 479 400 328 338 422 l 33 672 l 426 1051 l 560 915 l 240 607 "},"ک":{"ha":1208,"x_min":0,"x_max":0,"o":"m 785 607 b 1153 129 1118 511 1153 335 l 1153 0 l 388 0 b 28 292 161 0 28 124 b 72 517 28 378 51 461 l 249 471 b 226 335 232 399 226 367 b 421 179 226 238 304 179 l 947 179 b 578 479 944 328 882 422 l 578 672 l 971 1051 l 1104 915 l 785 607 "},"ﮏ":{"ha":1236,"x_min":0,"x_max":0,"o":"m 388 0 b 28 292 161 0 28 124 b 72 517 28 378 51 461 l 249 471 b 226 335 232 399 226 367 b 421 179 226 238 304 179 l 947 179 b 578 479 944 328 882 422 l 578 672 l 971 1051 l 1104 915 l 785 607 b 1151 179 1090 519 1144 363 l 1236 179 b 1264 83 1256 179 1264 153 b 1236 0 1264 21 1256 0 l 388 0 "},"ﮑ":{"ha":700,"x_min":0,"x_max":0,"o":"m 0 179 l 403 179 b 33 479 400 328 338 422 l 33 672 l 426 1051 l 560 915 l 240 607 b 607 179 546 519 600 363 l 700 179 b 728 83 719 179 728 153 b 700 0 728 21 719 0 l 0 0 "},"ﮐ":{"ha":664,"x_min":0,"x_max":0,"o":"m 240 607 b 608 129 574 511 608 335 l 608 0 l 0 0 l 0 179 l 403 179 b 33 479 400 328 338 422 l 33 672 l 426 1051 l 560 915 l 240 607 "},"گ":{"ha":1208,"x_min":0,"x_max":0,"o":"m 554 760 l 458 856 l 822 1203 l 917 1107 m 785 607 b 1153 129 1118 511 1153 335 l 1153 0 l 388 0 b 28 292 161 0 28 124 b 72 517 28 378 51 461 l 249 471 b 226 335 232 399 226 367 b 421 179 226 238 304 179 l 947 179 b 578 479 944 328 882 422 l 578 672 l 971 1051 l 1104 915 l 785 607 "},"ﮓ":{"ha":1236,"x_min":0,"x_max":0,"o":"m 388 0 b 28 292 161 0 28 124 b 72 517 28 378 51 461 l 249 471 b 226 335 232 399 226 367 b 421 179 226 238 304 179 l 947 179 b 578 479 944 328 882 422 l 578 672 l 971 1051 l 1104 915 l 785 607 b 1151 179 1090 519 1144 363 l 1236 179 b 1264 83 1256 179 1264 153 b 1236 0 1264 21 1256 0 l 388 0 m 458 856 l 822 1203 l 917 1107 l 554 760 "},"ﮕ":{"ha":700,"x_min":0,"x_max":0,"o":"m 403 179 b 33 479 400 328 338 422 l 33 672 l 426 1051 l 560 915 l 240 607 b 607 179 546 519 600 363 l 700 179 b 728 83 719 179 728 153 b 700 0 728 21 719 0 l 0 0 l 0 179 m 278 1203 l 372 1107 l 10 760 l -86 856 "},"ﮔ":{"ha":664,"x_min":0,"x_max":0,"o":"m 10 760 l -86 856 l 278 1203 l 372 1107 m 240 607 b 608 129 574 511 608 335 l 608 0 l 0 0 l 0 179 l 403 179 b 33 479 400 328 338 422 l 33 672 l 426 1051 l 560 915 l 240 607 "},"ل":{"ha":879,"x_min":0,"x_max":0,"o":"m 403 -254 b 14 94 129 -254 14 -67 b 79 358 14 174 33 257 l 257 294 b 219 122 231 224 219 174 b 407 -68 219 3 290 -68 b 593 149 524 -68 593 -17 l 593 1050 l 799 1050 l 799 97 b 403 -254 799 -150 632 -254 "},"ﻞ":{"ha":938,"x_min":0,"x_max":0,"o":"m 403 -254 b 14 94 129 -254 14 -67 b 79 358 14 174 33 257 l 257 294 b 219 122 231 224 219 174 b 407 -68 219 3 290 -68 b 593 149 524 -68 593 -17 l 593 1050 l 799 1050 l 799 97 b 403 -254 799 -150 632 -254 m 811 0 l 811 179 l 938 179 b 965 83 957 179 965 153 b 938 0 965 21 957 0 "},"ﻠ":{"ha":449,"x_min":0,"x_max":0,"o":"m 449 179 b 476 83 468 179 476 153 b 449 0 476 21 468 0 b 260 75 354 0 294 26 b 0 0 206 19 119 0 l 0 179 b 121 326 97 179 121 218 l 121 1050 l 326 1050 l 326 283 b 449 179 335 210 382 179 "},"ﻟ":{"ha":407,"x_min":0,"x_max":0,"o":"m 0 179 b 121 326 97 179 121 218 l 121 1050 l 326 1050 l 326 301 b 0 0 326 65 221 0 "},"م":{"ha":943,"x_min":0,"x_max":0,"o":"m 569 607 b 888 314 783 607 888 457 b 524 0 888 181 824 0 l 338 0 b 229 -103 268 0 229 -22 l 229 -361 l 29 -361 l 29 -67 b 257 176 29 76 113 163 b 225 314 232 222 225 274 b 569 607 225 488 368 607 m 551 179 b 682 304 663 179 682 244 b 560 421 682 374 632 421 b 431 286 504 421 431 386 b 461 179 431 243 446 206 l 551 179 "},"ﻢ":{"ha":1040,"x_min":0,"x_max":0,"o":"m 29 -361 l 29 -67 b 303 179 29 92 131 179 l 306 179 l 306 203 b 651 535 306 393 442 535 b 967 211 846 535 967 404 b 965 179 967 200 967 189 l 1040 179 b 1068 83 1060 179 1068 153 b 1040 0 1068 21 1060 0 l 890 0 b 614 -99 829 -64 735 -99 l 474 -99 b 371 0 431 -68 396 -35 l 338 0 b 229 -103 268 0 229 -22 l 229 -361 m 513 179 b 549 81 517 146 529 104 l 617 81 b 761 215 704 81 761 128 b 640 347 761 281 719 347 b 511 199 563 347 511 282 b 513 179 511 193 511 186 "},"ﻤ":{"ha":800,"x_min":0,"x_max":0,"o":"m 65 179 l 65 203 b 411 535 65 393 201 535 b 726 211 606 535 726 404 b 725 179 726 200 726 189 l 800 179 b 828 83 819 179 828 153 b 800 0 828 21 819 0 l 650 0 b 375 -99 590 -64 496 -99 l 233 -99 b 131 0 190 -68 157 -35 l 0 0 l 0 179 m 272 179 b 301 81 275 146 288 104 l 376 81 b 521 215 464 81 521 128 b 400 347 521 281 479 347 b 271 199 317 347 271 282 b 272 179 271 193 271 186 "},"ﻣ":{"ha":781,"x_min":0,"x_max":0,"o":"m 0 0 l 0 179 l 93 179 b 64 314 74 217 64 263 b 407 607 64 488 207 607 b 725 314 621 607 725 457 b 361 0 725 181 663 0 m 269 286 b 300 179 269 250 282 210 l 385 179 b 519 304 496 179 519 244 b 399 421 519 374 471 421 b 269 286 325 421 269 376 "},"ن":{"ha":893,"x_min":0,"x_max":0,"o":"m 432 568 b 329 672 369 568 329 614 b 432 775 329 732 369 775 b 532 672 494 775 532 732 b 432 568 532 614 494 568 m 417 -254 b 28 94 143 -254 28 -65 b 92 358 28 174 47 257 l 271 294 b 233 122 244 224 233 174 b 421 -68 233 3 304 -68 b 607 149 536 -68 607 -18 l 607 490 l 813 490 l 813 97 b 417 -254 813 -150 646 -254 "},"ﻦ":{"ha":911,"x_min":0,"x_max":0,"o":"m 432 568 b 329 672 369 568 329 614 b 432 775 329 732 369 775 b 532 672 494 775 532 732 b 432 568 532 614 494 568 m 911 179 b 939 83 931 179 939 153 b 911 0 939 21 931 0 l 803 0 b 417 -254 764 -178 613 -254 b 28 94 143 -254 28 -65 b 92 358 28 174 47 257 l 271 294 b 233 122 244 224 233 174 b 421 -68 233 3 304 -68 b 607 149 536 -68 607 -18 l 607 490 l 813 490 l 813 179 l 911 179 "},"ﻨ":{"ha":450,"x_min":0,"x_max":0,"o":"m 224 753 b 121 857 161 753 121 799 b 224 960 121 917 161 960 b 324 857 286 960 324 917 b 224 753 324 799 286 753 m 450 179 b 478 83 469 179 478 153 b 450 0 478 21 469 0 b 260 75 354 0 294 26 b 0 0 207 19 121 0 l 0 179 b 121 326 96 179 121 204 l 121 592 l 326 592 l 326 307 b 450 179 326 217 376 179 "},"ﻧ":{"ha":390,"x_min":0,"x_max":0,"o":"m 224 753 b 121 857 161 753 121 799 b 224 960 121 917 161 960 b 324 857 286 960 324 917 b 224 753 324 799 286 753 m 0 179 b 121 326 96 179 121 204 l 121 592 l 326 592 l 326 301 b 0 0 326 65 221 0 "},"ں":{"ha":893,"x_min":0,"x_max":0,"o":"m 417 -254 b 28 94 143 -254 28 -65 b 92 358 28 174 47 257 l 271 294 b 233 122 244 224 233 174 b 421 -68 233 3 304 -68 b 607 149 536 -68 607 -18 l 607 490 l 813 490 l 813 97 b 417 -254 813 -150 646 -254 "},"ﮟ":{"ha":911,"x_min":0,"x_max":0,"o":"m 911 179 b 939 83 931 179 939 153 b 911 0 939 21 931 0 l 803 0 b 417 -254 764 -178 613 -254 b 28 94 143 -254 28 -65 b 92 358 28 174 47 257 l 271 294 b 233 122 244 224 233 174 b 421 -68 233 3 304 -68 b 607 149 536 -68 607 -18 l 607 490 l 813 490 l 813 179 l 911 179 "},"ه":{"ha":731,"x_min":0,"x_max":0,"o":"m 354 -7 b 29 278 163 -7 29 94 b 354 607 29 481 163 607 b 675 278 546 607 675 475 b 354 -7 675 99 557 -7 m 354 179 b 464 293 417 179 464 221 b 354 421 464 375 417 421 b 240 296 286 421 240 375 b 354 179 240 221 281 179 "},"ﻩ":{"ha":731,"x_min":0,"x_max":0,"o":"m 354 -7 b 29 278 163 -7 29 94 b 354 607 29 481 163 607 b 675 278 546 607 675 475 b 354 -7 675 99 557 -7 m 354 179 b 464 293 417 179 464 221 b 354 421 464 375 417 421 b 240 296 286 421 240 375 b 354 179 240 221 281 179 "},"ﻪ":{"ha":789,"x_min":0,"x_max":0,"o":"m 789 179 b 817 83 808 179 817 153 b 789 0 817 21 808 0 b 546 51 668 0 590 15 b 356 10 493 26 431 10 b 29 289 183 10 29 100 b 404 592 29 436 142 592 l 689 592 l 689 288 b 789 179 689 208 708 179 m 472 413 l 376 413 b 235 303 288 413 235 371 b 385 197 235 238 276 197 b 472 210 415 197 451 201 "},"ﻬ":{"ha":715,"x_min":0,"x_max":0,"o":"m 57 179 l 57 250 b 367 600 57 453 167 600 b 661 311 599 600 661 413 b 631 179 661 267 650 221 l 715 179 b 743 83 735 179 743 153 b 715 0 743 21 735 0 l 628 0 b 665 -119 650 -36 665 -78 b 385 -333 665 -243 567 -333 b 57 -43 142 -333 57 -221 l 57 0 l 0 0 l 0 179 m 318 175 b 456 308 401 175 456 219 b 364 414 456 364 428 414 b 263 290 301 414 263 365 l 263 175 m 263 -25 b 371 -147 263 -107 292 -147 b 460 -75 440 -147 460 -111 b 436 0 460 -50 451 -22 l 263 0 "},"ﻫ":{"ha":899,"x_min":0,"x_max":0,"o":"m 99 179 b 67 311 78 217 67 263 b 126 478 67 367 82 431 b 47 481 100 479 74 479 l 71 640 b 856 178 475 629 856 579 b 835 0 856 125 849 67 l 478 0 b 315 28 413 0 357 11 b 149 0 279 11 222 0 l 0 0 l 0 179 m 236 331 b 318 182 236 264 272 214 b 408 331 372 213 408 267 b 322 436 408 396 376 436 b 236 331 269 436 236 394 m 683 179 b 685 199 685 186 685 193 b 564 392 685 289 640 350 b 578 315 574 367 578 340 b 544 179 578 265 565 218 "},"ہ":{"ha":731,"x_min":0,"x_max":0,"o":"m 354 -7 b 29 278 163 -7 29 94 b 354 607 29 481 163 607 b 675 278 546 607 675 475 b 354 -7 675 99 557 -7 m 354 179 b 464 293 417 179 464 221 b 354 421 464 375 417 421 b 240 296 286 421 240 375 b 354 179 240 221 281 179 "},"ﮧ":{"ha":803,"x_min":0,"x_max":0,"o":"m 42 36 b 435 415 140 264 272 415 b 651 276 525 415 586 376 b 803 179 707 196 733 179 b 831 83 822 179 831 153 b 803 0 831 21 822 0 b 510 149 649 0 583 35 b 417 236 468 214 447 236 b 199 -31 354 236 269 126 "},"ﮩ":{"ha":724,"x_min":0,"x_max":0,"o":"m 0 179 l 276 179 b 229 0 253 118 233 54 b 325 -158 229 -76 246 -133 b 713 179 331 79 476 179 l 724 179 b 751 83 743 179 751 153 b 724 0 751 21 743 0 l 715 0 b 485 -257 554 0 485 -72 b 488 -335 485 -282 485 -307 b 439 -336 471 -336 456 -336 b 36 -51 215 -336 36 -233 b 40 0 36 -35 38 -18 l 0 0 "},"ﮨ":{"ha":390,"x_min":0,"x_max":0,"o":"m 0 179 b 121 326 96 179 121 204 l 121 592 l 326 592 l 326 301 b 0 0 326 65 221 0 m 121 -412 b 64 -215 81 -353 64 -282 b 94 -58 64 -160 75 -104 l 225 -85 b 214 -167 218 -111 214 -139 b 272 -343 214 -228 233 -287 l 121 -412 "},"ۂ":{"ha":731,"x_min":0,"x_max":0,"o":"m 29 278 b 354 607 29 481 163 607 b 675 278 546 607 675 475 b 354 -7 675 99 557 -7 b 29 278 163 -7 29 94 m 249 882 b 228 956 235 906 228 931 b 394 1096 228 1038 292 1096 b 488 1086 428 1096 463 1092 l 468 971 b 413 978 453 975 435 978 b 350 928 374 978 350 963 b 364 882 350 911 356 896 l 504 882 l 504 764 l 190 764 l 190 882 m 240 296 b 354 179 240 221 281 179 b 464 293 417 179 464 221 b 354 421 464 375 417 421 b 240 296 286 421 240 375 "},"ھ":{"ha":1083,"x_min":0,"x_max":0,"o":"m 256 640 b 1040 178 660 629 1040 579 b 1019 0 1040 125 1033 67 l 663 0 b 501 28 597 0 542 11 b 310 0 458 11 393 0 b 42 40 204 0 113 14 l 83 215 b 283 179 139 196 215 183 b 251 311 263 218 251 263 b 311 478 251 367 267 431 b 232 481 285 479 258 479 l 256 640 m 504 182 b 593 331 557 214 593 267 b 508 436 593 396 561 436 b 421 331 454 436 421 394 b 504 182 421 264 457 214 m 871 199 b 749 392 871 289 825 350 b 763 315 758 367 763 342 b 729 179 763 265 750 218 l 869 179 b 871 199 871 186 871 193 "},"ﮫ":{"ha":1001,"x_min":0,"x_max":0,"o":"m 83 215 b 338 179 156 193 254 179 l 343 179 l 343 250 b 653 600 343 453 453 600 b 947 311 885 600 947 413 b 921 179 947 267 939 221 l 1001 179 b 1029 83 1021 179 1029 153 b 1001 0 1029 21 1021 0 l 914 0 b 951 -119 936 -36 951 -78 b 671 -333 951 -243 853 -333 b 343 -43 428 -333 343 -221 l 343 0 l 336 0 b 42 40 219 0 119 14 m 604 179 b 742 308 686 179 742 217 b 650 414 742 364 714 414 b 549 290 588 414 549 365 l 549 179 m 549 0 l 549 -25 b 657 -147 549 -107 578 -147 b 746 -75 726 -147 746 -111 b 722 0 746 -50 738 -22 "},"ﮭ":{"ha":715,"x_min":0,"x_max":0,"o":"m 57 179 l 57 250 b 367 600 57 453 167 600 b 661 311 599 600 661 413 b 631 179 661 267 650 221 l 715 179 b 743 83 735 179 743 153 b 715 0 743 21 735 0 l 628 0 b 665 -119 650 -36 665 -78 b 385 -333 665 -243 567 -333 b 57 -43 142 -333 57 -221 l 57 0 l 0 0 l 0 179 m 318 175 b 456 308 401 175 456 219 b 364 414 456 364 428 414 b 263 290 301 414 263 365 l 263 175 m 263 -25 b 371 -147 263 -107 292 -147 b 460 -75 440 -147 460 -111 b 436 0 460 -50 451 -22 l 263 0 "},"ﮬ":{"ha":899,"x_min":0,"x_max":0,"o":"m 99 179 b 67 311 78 217 67 263 b 126 478 67 367 82 431 b 47 481 100 479 74 479 l 71 640 b 856 178 475 629 856 579 b 835 0 856 125 849 67 l 478 0 b 315 28 413 0 357 11 b 149 0 279 11 222 0 l 0 0 l 0 179 m 236 331 b 318 182 236 264 272 214 b 408 331 372 213 408 267 b 322 436 408 396 376 436 b 236 331 269 436 236 394 m 683 179 b 685 199 685 186 685 193 b 564 392 685 289 640 350 b 578 315 574 367 578 340 b 544 179 578 265 565 218 "},"ة":{"ha":731,"x_min":0,"x_max":0,"o":"m 228 768 b 124 872 168 768 124 814 b 228 975 124 932 168 975 b 329 872 288 975 329 932 b 228 768 329 814 288 768 m 478 768 b 374 872 418 768 374 814 b 478 975 374 932 418 975 b 579 872 536 975 579 932 b 478 768 579 814 536 768 m 354 -7 b 29 278 163 -7 29 94 b 354 607 29 481 163 607 b 675 278 546 607 675 475 b 354 -7 675 99 557 -7 m 354 179 b 464 293 417 179 464 221 b 354 421 464 375 417 421 b 240 296 286 421 240 375 b 354 179 240 221 281 179 "},"ﺔ":{"ha":789,"x_min":0,"x_max":0,"o":"m 278 753 b 174 857 218 753 174 799 b 278 960 174 917 218 960 b 379 857 338 960 379 917 b 278 753 379 799 338 753 m 528 753 b 424 857 468 753 424 799 b 528 960 424 917 468 960 b 629 857 586 960 629 917 b 528 753 629 799 586 753 m 789 179 b 817 83 808 179 817 153 b 789 0 817 21 808 0 b 546 51 668 0 590 15 b 356 10 493 26 431 10 b 29 289 183 10 29 100 b 404 592 29 436 142 592 l 689 592 l 689 288 b 789 179 689 208 708 179 m 472 413 l 376 413 b 235 303 288 413 235 371 b 385 197 235 238 276 197 b 472 210 415 197 451 201 "},"ۃ":{"ha":731,"x_min":0,"x_max":0,"o":"m 228 768 b 124 872 168 768 124 814 b 228 975 124 932 168 975 b 329 872 288 975 329 932 b 228 768 329 814 288 768 m 478 768 b 374 872 418 768 374 814 b 478 975 374 932 418 975 b 579 872 536 975 579 932 b 478 768 579 814 536 768 m 354 -7 b 29 278 163 -7 29 94 b 354 607 29 481 163 607 b 675 278 546 607 675 475 b 354 -7 675 99 557 -7 m 354 179 b 464 293 417 179 464 221 b 354 421 464 375 417 421 b 240 296 286 421 240 375 b 354 179 240 221 281 179 "},"و":{"ha":763,"x_min":0,"x_max":0,"o":"m 189 -81 b 272 -85 218 -83 246 -85 b 492 39 410 -85 493 -46 b 368 26 454 31 414 26 b 69 303 190 26 69 128 b 396 607 69 465 196 607 b 699 311 614 607 699 465 l 699 33 b 297 -269 699 -106 643 -269 b 200 -265 267 -269 235 -268 m 401 214 b 493 221 440 214 472 218 l 493 276 b 388 421 493 379 456 421 b 275 313 324 421 275 375 b 401 214 275 250 318 214 "},"ﻮ":{"ha":785,"x_min":0,"x_max":0,"o":"m 407 0 b 69 288 197 0 69 118 b 396 607 69 464 204 607 b 699 311 610 607 699 465 l 699 179 l 785 179 b 813 83 804 179 813 153 b 785 0 813 21 804 0 l 694 0 b 299 -269 675 -149 590 -269 b 200 -265 268 -269 235 -268 l 189 -81 b 289 -86 225 -83 258 -86 b 488 0 400 -86 471 -62 l 407 0 m 281 300 b 408 179 281 225 324 179 l 493 179 l 493 283 b 390 421 493 369 463 421 b 281 300 321 421 281 363 "},"ؤ":{"ha":763,"x_min":0,"x_max":0,"o":"m 69 303 b 396 607 69 465 196 607 b 699 311 614 607 699 465 l 699 33 b 297 -269 699 -106 643 -269 b 200 -265 267 -269 235 -268 l 189 -81 b 272 -85 218 -83 246 -85 b 492 39 410 -85 493 -46 b 368 26 454 31 414 26 b 69 303 190 26 69 128 m 290 882 b 269 956 276 906 269 931 b 436 1096 269 1038 333 1096 b 529 1086 469 1096 504 1092 l 510 971 b 454 978 494 975 476 978 b 392 928 415 978 392 963 b 406 882 392 911 397 896 l 546 882 l 546 764 l 232 764 l 232 882 m 388 421 b 275 313 324 421 275 375 b 401 214 275 250 318 214 b 493 221 440 214 472 218 l 493 276 b 388 421 493 379 456 421 "},"ﺆ":{"ha":785,"x_min":0,"x_max":0,"o":"m 69 288 b 396 607 69 464 204 607 b 699 311 610 607 699 465 l 699 179 l 785 179 b 813 83 804 179 813 153 b 785 0 813 21 804 0 l 694 0 b 299 -269 675 -149 590 -269 b 200 -265 268 -269 235 -268 l 189 -81 b 289 -86 225 -83 258 -86 b 488 0 400 -86 471 -62 l 407 0 b 69 288 197 0 69 118 m 290 882 b 269 956 276 906 269 931 b 436 1096 269 1038 333 1096 b 529 1086 469 1096 504 1092 l 510 971 b 454 978 494 975 476 978 b 392 928 415 978 392 963 b 406 882 392 911 397 896 l 546 882 l 546 764 l 232 764 l 232 882 m 281 300 b 408 179 281 225 324 179 l 493 179 l 493 283 b 390 421 493 369 463 421 b 281 300 321 421 281 363 "},"ى":{"ha":1074,"x_min":0,"x_max":0,"o":"m 525 -269 b 14 94 226 -269 14 -161 b 51 290 14 139 21 199 l 240 243 b 225 136 228 188 225 154 b 525 -69 225 -1 329 -69 b 806 15 713 -69 806 -33 b 474 360 806 83 474 138 b 808 607 474 489 589 607 b 972 586 879 607 928 597 l 938 392 b 818 407 904 400 856 407 b 688 349 728 407 688 381 b 1017 29 688 261 1017 229 b 525 -269 1017 -90 918 -269 "},"ﻰ":{"ha":1074,"x_min":0,"x_max":0,"o":"m 1074 179 b 1101 83 1093 179 1101 153 b 1074 0 1101 21 1093 0 l 1021 0 b 1063 -115 1049 -32 1063 -71 b 540 -361 1063 -249 878 -361 b 14 -11 172 -361 14 -215 b 51 185 14 32 21 93 l 233 136 b 219 19 222 79 219 51 b 554 -161 219 -110 307 -161 b 857 -62 765 -161 857 -118 b 750 29 857 -25 831 8 l 543 83 l 594 236 l 782 192 b 919 179 831 181 875 179 l 1074 179 "},"ي":{"ha":1074,"x_min":0,"x_max":0,"o":"m 525 -269 b 14 94 226 -269 14 -161 b 51 290 14 139 21 199 l 240 243 b 225 136 228 188 225 154 b 525 -69 225 -1 329 -69 b 806 15 713 -69 806 -33 b 474 360 806 83 474 138 b 808 607 474 489 589 607 b 972 586 879 607 928 597 l 938 392 b 818 407 904 400 856 407 b 688 349 728 407 688 381 b 1017 29 688 261 1017 229 b 525 -269 1017 -90 918 -269 m 396 -583 b 292 -482 336 -583 292 -540 b 396 -376 292 -422 336 -376 b 497 -482 456 -376 497 -422 b 396 -583 497 -540 456 -583 m 646 -583 b 542 -482 586 -583 542 -540 b 646 -376 542 -422 586 -376 b 747 -482 704 -376 747 -422 b 646 -583 747 -540 704 -583 "},"ﻲ":{"ha":1074,"x_min":0,"x_max":0,"o":"m 1074 179 b 1101 83 1093 179 1101 153 b 1074 0 1101 21 1093 0 l 1021 0 b 1063 -115 1049 -32 1063 -71 b 540 -361 1063 -249 878 -361 b 14 -11 172 -361 14 -215 b 51 185 14 32 21 93 l 233 136 b 219 19 222 79 219 51 b 554 -161 219 -110 307 -161 b 857 -62 765 -161 857 -118 b 750 29 857 -25 831 8 l 543 83 l 594 236 l 782 192 b 919 179 831 181 875 179 l 1074 179 m 413 -468 b 514 -574 472 -468 514 -514 b 413 -675 514 -632 472 -675 b 308 -574 353 -675 308 -632 b 413 -468 308 -514 353 -468 m 663 -468 b 764 -574 721 -468 764 -514 b 663 -675 764 -632 721 -675 b 558 -574 603 -675 558 -632 b 663 -468 558 -514 603 -468 "},"ﻴ":{"ha":504,"x_min":0,"x_max":0,"o":"m 504 179 b 532 83 524 179 532 153 b 504 0 532 21 524 0 b 314 75 408 0 349 26 b 46 0 261 21 174 0 l 0 0 l 0 179 l 40 179 b 175 326 151 179 175 208 l 175 592 l 381 592 l 381 307 b 504 179 381 217 431 179 m 124 -107 b 225 -212 183 -107 225 -153 b 124 -314 225 -271 183 -314 b 19 -212 64 -314 19 -271 b 124 -107 19 -153 64 -107 m 374 -107 b 475 -212 432 -107 475 -153 b 374 -314 475 -271 432 -314 b 269 -212 314 -314 269 -271 b 374 -107 269 -153 314 -107 "},"ﻳ":{"ha":486,"x_min":0,"x_max":0,"o":"m 0 179 l 40 179 b 175 326 151 179 175 208 l 175 592 l 381 592 l 381 301 b 46 0 381 71 285 0 l 0 0 m 106 -314 b 1 -212 46 -314 1 -271 b 106 -107 1 -153 46 -107 b 207 -212 165 -107 207 -153 b 106 -314 207 -271 165 -314 m 356 -314 b 251 -212 296 -314 251 -271 b 356 -107 251 -153 296 -107 b 457 -212 414 -107 457 -153 b 356 -314 457 -271 414 -314 "},"ئ":{"ha":1074,"x_min":0,"x_max":0,"o":"m 14 94 b 51 290 14 139 21 199 l 240 243 b 225 136 228 188 225 154 b 525 -69 225 -1 329 -69 b 806 15 713 -69 806 -33 b 474 360 806 83 474 138 b 808 607 474 489 589 607 b 972 586 879 607 928 597 l 938 392 b 818 407 904 400 856 407 b 688 349 728 407 688 381 b 1017 29 688 261 1017 229 b 525 -269 1017 -90 918 -269 b 14 94 226 -269 14 -161 m 122 522 b 101 596 108 546 101 571 b 268 736 101 678 165 736 b 361 726 301 736 336 732 l 342 611 b 286 618 326 615 308 618 b 224 568 247 618 224 603 b 238 522 224 551 229 536 l 378 522 l 378 404 l 64 404 l 64 522 "},"ﺊ":{"ha":1074,"x_min":0,"x_max":0,"o":"m 14 -11 b 51 185 14 32 21 93 l 233 136 b 219 19 222 79 219 51 b 554 -161 219 -110 307 -161 b 857 -62 765 -161 857 -118 b 750 29 857 -25 831 8 l 543 83 l 594 236 l 782 192 b 919 179 831 181 875 179 l 1074 179 b 1101 83 1093 179 1101 153 b 1074 0 1101 21 1093 0 l 1021 0 b 1063 -115 1049 -32 1063 -71 b 540 -361 1063 -249 878 -361 b 14 -11 172 -361 14 -215 m 147 417 b 126 490 133 440 126 465 b 293 631 126 572 190 631 b 386 621 326 631 361 626 l 367 506 b 311 513 351 510 333 513 b 249 463 272 513 249 497 b 263 417 249 446 254 431 l 403 417 l 403 299 l 89 299 l 89 417 "},"ﺌ":{"ha":504,"x_min":0,"x_max":0,"o":"m 0 0 l 0 179 l 40 179 b 175 326 151 179 175 208 l 175 592 l 381 592 l 381 307 b 504 179 381 217 431 179 b 532 83 524 179 532 153 b 504 0 532 21 524 0 b 314 75 408 0 349 26 b 46 0 261 21 174 0 m 144 867 b 124 940 131 890 124 915 b 290 1081 124 1022 188 1081 b 383 1071 324 1081 358 1076 l 364 956 b 308 963 349 960 331 963 b 246 913 269 963 246 947 b 260 867 246 896 251 881 l 400 867 l 400 749 l 86 749 l 86 867 "},"ﺋ":{"ha":486,"x_min":0,"x_max":0,"o":"m 0 179 l 40 179 b 175 326 151 179 175 208 l 175 592 l 381 592 l 381 301 b 46 0 381 71 285 0 l 0 0 m 86 867 l 144 867 b 124 940 131 890 124 915 b 290 1081 124 1022 188 1081 b 383 1071 324 1081 358 1076 l 364 956 b 308 963 349 960 331 963 b 246 913 269 963 246 947 b 260 867 246 896 251 881 l 400 867 l 400 749 l 86 749 "},"ی":{"ha":1074,"x_min":0,"x_max":0,"o":"m 525 -269 b 14 94 226 -269 14 -161 b 51 290 14 139 21 199 l 240 243 b 225 136 228 188 225 154 b 525 -69 225 -1 329 -69 b 806 15 713 -69 806 -33 b 474 360 806 83 474 138 b 808 607 474 489 589 607 b 972 586 879 607 928 597 l 938 392 b 818 407 904 400 856 407 b 688 349 728 407 688 381 b 1017 29 688 261 1017 229 b 525 -269 1017 -90 918 -269 "},"ﯽ":{"ha":1074,"x_min":0,"x_max":0,"o":"m 1074 179 b 1101 83 1093 179 1101 153 b 1074 0 1101 21 1093 0 l 1021 0 b 1063 -115 1049 -32 1063 -71 b 540 -361 1063 -249 878 -361 b 14 -11 172 -361 14 -215 b 51 185 14 32 21 93 l 233 136 b 219 19 222 79 219 51 b 554 -161 219 -110 307 -161 b 857 -62 765 -161 857 -118 b 750 29 857 -25 831 8 l 543 83 l 594 236 l 782 192 b 919 179 831 181 875 179 l 1074 179 "},"ﯿ":{"ha":504,"x_min":0,"x_max":0,"o":"m 504 179 b 532 83 524 179 532 153 b 504 0 532 21 524 0 b 314 75 408 0 349 26 b 46 0 261 21 174 0 l 0 0 l 0 179 l 40 179 b 175 326 151 179 175 208 l 175 592 l 381 592 l 381 307 b 504 179 381 217 431 179 m 124 -107 b 225 -212 183 -107 225 -153 b 124 -314 225 -271 183 -314 b 19 -212 64 -314 19 -271 b 124 -107 19 -153 64 -107 m 374 -107 b 475 -212 432 -107 475 -153 b 374 -314 475 -271 432 -314 b 269 -212 314 -314 269 -271 b 374 -107 269 -153 314 -107 "},"ﯾ":{"ha":486,"x_min":0,"x_max":0,"o":"m 0 179 l 40 179 b 175 326 151 179 175 208 l 175 592 l 381 592 l 381 301 b 46 0 381 71 285 0 l 0 0 m 106 -314 b 1 -212 46 -314 1 -271 b 106 -107 1 -153 46 -107 b 207 -212 165 -107 207 -153 b 106 -314 207 -271 165 -314 m 356 -314 b 251 -212 296 -314 251 -271 b 356 -107 251 -153 296 -107 b 457 -212 414 -107 457 -153 b 356 -314 457 -271 414 -314 "},"ے":{"ha":1081,"x_min":0,"x_max":0,"o":"m 519 -18 b 42 194 151 -18 42 51 b 315 526 42 407 315 414 l 315 579 l 506 579 l 506 514 b 235 218 506 311 235 288 b 551 164 235 183 271 164 b 1065 201 713 164 893 176 l 1072 24 b 519 -18 893 -4 692 -18 "},"ﮯ":{"ha":613,"x_min":0,"x_max":0,"o":"m 504 -361 b 25 -94 136 -361 25 -274 b 424 179 25 100 161 179 l 613 179 b 640 83 632 179 640 153 b 613 0 640 21 632 0 l 411 0 b 219 -89 272 0 219 -31 b 536 -181 219 -146 272 -181 b 1049 -142 696 -181 876 -168 l 1056 -319 b 504 -361 878 -347 676 -361 "},"ۓ":{"ha":1081,"x_min":0,"x_max":0,"o":"m 519 -18 b 42 194 151 -18 42 51 b 315 526 42 407 315 414 l 315 579 l 506 579 l 506 514 b 235 218 506 311 235 288 b 551 164 235 183 271 164 b 1065 201 713 164 893 176 l 1072 24 b 519 -18 893 -4 692 -18 m 307 854 b 286 928 293 878 286 903 b 453 1068 286 1010 350 1068 b 546 1058 486 1068 521 1064 l 526 943 b 471 950 511 947 493 950 b 408 900 432 950 408 935 b 422 854 408 883 414 868 l 563 854 l 563 736 l 249 736 l 249 854 "},"ﮱ":{"ha":613,"x_min":0,"x_max":0,"o":"m 25 -94 b 424 179 25 100 161 179 l 613 179 b 640 83 632 179 640 153 b 613 0 640 21 632 0 l 411 0 b 219 -89 272 0 219 -31 b 536 -181 219 -146 272 -181 b 1049 -142 696 -181 876 -168 l 1056 -319 b 504 -361 878 -347 676 -361 b 25 -94 136 -361 25 -274 m 276 454 b 256 528 263 478 256 503 b 422 668 256 610 319 668 b 515 658 456 668 490 664 l 496 543 b 440 550 481 547 463 550 b 378 500 401 550 378 535 b 392 454 378 483 383 468 l 532 454 l 532 336 l 218 336 l 218 454 "},"ە":{"ha":731,"x_min":0,"x_max":0,"o":"m 354 -7 b 29 278 163 -7 29 94 b 354 607 29 481 163 607 b 675 278 546 607 675 475 b 354 -7 675 99 557 -7 m 354 179 b 464 293 417 179 464 221 b 354 421 464 375 417 421 b 240 296 286 421 240 375 b 354 179 240 221 281 179 "},"ـ":{"ha":72,"x_min":0,"x_max":0,"o":"m 0 179 l 72 179 b 100 83 92 179 100 153 b 72 0 100 21 92 0 l 0 0 "},"ﻻ":{"ha":931,"x_min":0,"x_max":0,"o":"m 268 179 l 268 764 l 474 764 l 474 179 l 533 179 b 644 306 617 179 644 225 l 644 1050 l 850 1050 l 850 254 b 592 0 850 107 768 0 l 28 0 l 28 179 "},"ﻼ":{"ha":974,"x_min":0,"x_max":0,"o":"m 268 179 l 268 764 l 474 764 l 474 179 l 533 179 b 644 306 617 179 644 225 l 644 1050 l 850 1050 l 850 307 b 974 179 850 217 900 179 b 1001 83 993 179 1001 153 b 974 0 1001 21 993 0 b 786 72 881 0 822 25 b 592 0 744 26 679 0 l 28 0 l 28 179 "},"ﻷ":{"ha":931,"x_min":0,"x_max":0,"o":"m 268 179 l 268 764 l 474 764 l 474 179 l 533 179 b 644 306 617 179 644 225 l 644 1050 l 850 1050 l 850 254 b 592 0 850 107 768 0 l 28 0 l 28 179 m 288 960 b 272 1017 278 978 272 997 b 404 1128 272 1082 322 1128 b 478 1118 431 1128 458 1124 l 461 1029 b 418 1035 450 1032 435 1035 b 369 994 389 1035 369 1022 b 379 960 369 982 374 971 l 490 960 l 490 867 l 243 867 l 243 960 "},"ﻸ":{"ha":974,"x_min":0,"x_max":0,"o":"m 268 179 l 268 764 l 474 764 l 474 179 l 533 179 b 644 306 617 179 644 225 l 644 1050 l 850 1050 l 850 307 b 974 179 850 217 900 179 b 1001 83 993 179 1001 153 b 974 0 1001 21 993 0 b 786 72 881 0 822 25 b 592 0 744 26 679 0 l 28 0 l 28 179 m 243 867 l 243 960 l 288 960 b 272 1017 278 978 272 997 b 404 1128 272 1082 322 1128 b 478 1118 431 1128 458 1124 l 461 1029 b 418 1035 450 1032 435 1035 b 369 994 389 1035 369 1022 b 379 960 369 982 374 971 l 490 960 l 490 867 "},"ﻹ":{"ha":931,"x_min":0,"x_max":0,"o":"m 268 179 l 268 764 l 474 764 l 474 179 l 533 179 b 644 306 617 179 644 225 l 644 1050 l 850 1050 l 850 254 b 592 0 850 107 768 0 l 28 0 l 28 179 m 290 -268 b 274 -210 279 -250 274 -229 b 406 -99 274 -144 324 -99 b 479 -108 432 -99 460 -103 l 463 -197 b 419 -192 451 -194 436 -192 b 371 -232 390 -192 371 -204 b 382 -268 371 -244 375 -257 l 492 -268 l 492 -360 l 244 -360 l 244 -268 "},"ﻺ":{"ha":974,"x_min":0,"x_max":0,"o":"m 268 179 l 268 764 l 474 764 l 474 179 l 533 179 b 644 306 617 179 644 225 l 644 1050 l 850 1050 l 850 307 b 974 179 850 217 900 179 b 1001 83 993 179 1001 153 b 974 0 1001 21 993 0 b 786 72 881 0 822 25 b 592 0 744 26 679 0 l 28 0 l 28 179 m 244 -360 l 244 -268 l 290 -268 b 274 -210 279 -250 274 -229 b 406 -99 274 -144 324 -99 b 479 -108 432 -99 460 -103 l 463 -197 b 419 -192 451 -194 436 -192 b 371 -232 390 -192 371 -204 b 382 -268 371 -244 375 -257 l 492 -268 l 492 -360 "},"ﻵ":{"ha":931,"x_min":0,"x_max":0,"o":"m 268 179 l 268 764 l 474 764 l 474 179 l 533 179 b 644 306 617 179 644 225 l 644 1050 l 850 1050 l 850 254 b 592 0 850 107 768 0 l 28 0 l 28 179 m 129 964 b 254 1022 161 996 207 1022 b 467 982 308 1022 406 982 b 536 1014 492 982 510 990 l 601 943 b 472 869 560 889 522 869 b 253 907 399 869 297 907 b 188 883 222 907 201 893 l 129 964 "},"ﻶ":{"ha":974,"x_min":0,"x_max":0,"o":"m 268 179 l 268 764 l 474 764 l 474 179 l 533 179 b 644 306 617 179 644 225 l 644 1050 l 850 1050 l 850 307 b 974 179 850 217 900 179 b 1001 83 993 179 1001 153 b 974 0 1001 21 993 0 b 786 72 881 0 822 25 b 592 0 744 26 679 0 l 28 0 l 28 179 m 129 964 b 254 1022 161 996 207 1022 b 467 982 308 1022 406 982 b 536 1014 492 982 510 990 l 601 943 b 472 869 560 889 522 869 b 253 907 399 869 297 907 b 188 883 222 907 201 893 l 129 964 "},"ﷲ":{"ha":2053,"x_min":0,"x_max":0,"o":"m 29 289 b 410 592 29 436 147 592 l 694 592 l 694 288 b 794 179 694 208 714 179 b 914 326 890 179 914 218 l 914 814 l 1119 814 l 1119 301 b 1243 179 1119 218 1160 179 b 1363 326 1339 179 1363 218 l 1363 1050 l 1568 1050 l 1568 301 b 1243 0 1568 65 1464 0 b 1054 75 1147 1 1089 28 b 794 0 1000 19 914 0 b 551 51 672 0 594 15 b 361 10 499 26 436 10 b 29 289 189 10 29 100 m 1767 1050 l 1972 1050 l 1972 0 l 1767 0 m 382 413 b 240 303 293 413 240 371 b 390 197 240 238 282 197 b 478 210 421 197 457 201 l 478 413 l 382 413 m 835 981 b 850 1058 835 1004 839 1029 l 906 1044 b 901 1013 903 1032 901 1022 b 939 968 901 979 919 968 b 971 1013 963 968 971 985 b 969 1032 971 1019 971 1025 l 1026 1043 b 1032 993 1029 1026 1032 1010 l 1032 989 b 1068 979 1042 983 1056 979 b 1097 1017 1088 979 1097 994 b 1088 1064 1097 1029 1094 1046 l 1151 1089 b 1176 990 1169 1051 1176 1018 b 1089 890 1176 928 1140 890 b 1014 917 1057 890 1032 903 b 936 881 999 894 974 881 b 835 981 872 881 835 918 m 958 1106 l 958 1301 l 1053 1301 l 1053 1129 l 967 1106 "},"ﷺ":{"ha":1619,"x_min":0,"x_max":0,"o":"m 49 368 b 217 500 49 451 99 500 l 328 500 l 328 408 b 353 378 328 389 333 378 l 357 378 b 389 410 382 378 389 383 l 389 500 l 517 500 l 517 404 b 542 378 517 386 522 378 l 722 378 l 722 447 l 849 447 l 849 378 l 1081 378 b 1104 410 1096 378 1104 383 l 1104 608 l 1232 608 l 1232 396 b 1251 378 1232 383 1238 378 l 1389 378 b 1383 410 1386 390 1383 403 b 1518 518 1383 475 1432 518 b 1596 507 1543 518 1565 515 l 1574 401 b 1540 406 1563 404 1549 406 b 1518 390 1525 406 1518 400 b 1521 378 1518 386 1518 383 l 1610 378 l 1610 256 l 1247 256 b 1176 271 1213 256 1192 261 b 1085 256 1156 258 1125 256 l 849 256 l 849 3 b 865 -12 849 -8 853 -12 l 872 -12 b 882 -4 879 -12 882 -10 l 882 83 l 1010 83 l 1010 -7 b 1019 -12 1010 -11 1011 -12 b 1031 -6 1028 -12 1031 -11 l 1031 83 l 1157 83 l 1157 -8 b 1168 -12 1157 -11 1160 -12 b 1179 -7 1176 -12 1179 -11 l 1179 119 l 1306 119 l 1306 -47 b 1192 -135 1306 -104 1265 -135 b 1124 -119 1167 -135 1146 -129 b 1050 -135 1097 -132 1074 -135 b 971 -119 1019 -135 994 -131 b 883 -135 942 -132 919 -135 l 865 -135 b 794 -119 831 -135 808 -128 b 701 -135 772 -132 743 -135 l 461 -135 b 350 -183 439 -167 400 -183 l 251 -183 b 221 -135 238 -168 228 -151 l 215 -135 b 197 -161 203 -135 197 -139 l 197 -264 l 76 -264 l 76 -133 b 192 -12 76 -50 118 -12 l 207 -12 b 353 93 221 50 272 93 b 485 -12 419 93 474 58 l 696 -12 b 722 17 715 -12 722 -7 l 722 256 l 532 256 b 461 271 499 256 476 261 b 361 256 439 258 407 256 l 336 256 b 249 272 299 256 267 261 b 165 257 225 261 199 257 b 49 368 99 257 49 297 m 615 617 b 635 685 615 638 621 658 l 753 663 b 747 640 750 657 747 647 b 813 607 747 621 771 607 b 894 642 869 607 894 624 b 825 676 894 651 889 657 l 858 783 b 958 768 910 771 929 768 b 981 801 975 768 981 775 l 981 1043 l 1106 1043 l 1106 785 b 1121 768 1106 772 1113 768 b 1135 785 1131 768 1135 771 l 1135 872 l 1263 872 l 1263 783 b 1279 768 1263 771 1267 768 b 1464 908 1319 854 1381 908 b 1603 757 1553 908 1603 858 b 1586 646 1603 728 1597 689 l 1286 646 b 1208 661 1253 646 1231 651 b 1125 646 1192 651 1171 646 b 1069 661 1099 646 1079 653 b 1014 646 1050 650 1031 646 b 1026 607 1021 638 1026 624 b 806 483 1026 540 944 483 b 615 617 675 483 615 536 m 39 758 b 208 890 39 840 89 890 l 318 890 l 318 785 b 333 768 318 774 321 768 b 347 788 346 768 347 772 l 347 968 l 474 968 l 474 785 b 488 768 474 774 476 768 b 503 796 500 768 503 774 l 503 1043 l 631 1043 l 631 779 b 488 646 631 667 589 646 b 419 661 456 646 432 653 b 326 646 399 649 368 646 b 239 663 289 646 257 651 b 156 647 215 651 189 647 b 39 758 89 647 39 688 m 1332 8 b 1471 125 1332 76 1382 125 b 1604 -18 1572 125 1604 58 l 1604 -97 b 1408 -257 1604 -211 1543 -257 b 1360 -256 1397 -257 1390 -257 l 1353 -142 b 1400 -144 1371 -143 1386 -144 b 1476 -112 1451 -144 1479 -133 b 1449 -114 1468 -114 1457 -114 b 1332 8 1382 -114 1332 -71 m 664 1043 l 792 1043 l 792 701 l 664 701 m 321 175 b 379 233 321 208 344 233 b 435 175 410 233 435 208 b 379 119 435 143 411 119 b 321 175 344 119 321 143 m 447 175 b 506 233 447 208 471 233 b 560 175 536 233 560 208 b 506 119 560 143 536 119 b 447 175 471 119 447 143 m 329 1026 b 335 1060 329 1036 331 1047 l 374 1053 b 372 1038 372 1044 372 1040 b 378 1031 372 1033 374 1031 b 383 1038 382 1031 383 1032 l 383 1049 l 421 1053 b 422 1031 422 1043 422 1036 l 426 1031 b 433 1040 432 1031 433 1035 b 431 1057 433 1046 432 1053 l 475 1069 b 485 1026 482 1053 485 1038 b 442 982 485 996 464 982 b 410 992 431 982 421 985 b 371 981 403 986 390 981 b 329 1026 343 981 329 996 m 346 -19 b 319 -50 326 -19 319 -31 b 324 -76 319 -54 319 -62 l 339 -76 b 374 -47 361 -76 374 -64 b 346 -19 374 -31 365 -19 m 1447 1 b 1468 -19 1447 -12 1454 -19 l 1489 -19 l 1489 -4 b 1468 24 1489 14 1483 24 b 1447 1 1454 24 1447 17 m 1479 768 l 1479 769 b 1454 796 1479 788 1471 796 b 1407 768 1436 796 1419 785 m 203 406 b 169 386 178 406 169 399 b 194 367 169 372 178 367 l 208 367 l 208 406 l 203 406 m 160 776 b 185 757 160 763 168 757 l 199 757 l 199 796 l 193 796 b 160 776 168 796 160 789 "},"¹":{"ha":535,"x_min":0,"x_max":0,"o":"m 404 401 l 254 401 l 254 842 l 131 738 l 50 829 l 271 992 l 404 992 "},"²":{"ha":535,"x_min":0,"x_max":0,"o":"m 276 1000 b 501 833 407 1000 501 940 b 421 674 501 749 481 719 l 222 521 l 222 518 l 501 518 l 501 401 l 33 401 l 33 525 l 304 754 b 351 821 332 778 351 800 b 269 875 351 856 318 875 b 178 800 215 875 181 842 l 36 808 b 276 1000 46 933 133 1000 "},"³":{"ha":535,"x_min":0,"x_max":0,"o":"m 271 1000 b 499 842 400 1000 499 943 b 383 713 499 776 460 726 l 383 710 b 511 571 463 701 511 639 b 267 393 511 460 411 393 b 24 557 128 393 47 453 l 175 588 b 267 518 185 544 213 518 b 361 585 321 518 361 538 b 247 650 361 626 338 650 l 199 650 l 199 767 l 244 767 b 349 829 335 767 349 799 b 271 875 349 858 318 875 b 182 814 226 875 192 853 l 29 842 b 271 1000 57 946 138 1000 "},"⁄":{"ha":232,"x_min":0,"x_max":0,"o":"m 456 963 l -118 -44 l -224 15 l 339 1028 "},"½":{"ha":1235,"x_min":0,"x_max":0,"o":"m 942 963 l 368 -44 l 263 15 l 825 1028 m 365 401 l 215 401 l 215 842 l 92 738 l 11 829 l 232 992 l 365 992 m 999 599 b 1224 432 1129 599 1224 539 b 1143 272 1224 347 1203 318 l 944 119 l 944 117 l 1224 117 l 1224 0 l 756 0 l 756 124 l 1026 353 b 1074 419 1054 376 1074 399 b 992 474 1074 454 1040 474 b 900 399 938 474 903 440 l 758 407 b 999 599 768 532 856 599 "},"¼":{"ha":1235,"x_min":0,"x_max":0,"o":"m 704 118 l 704 226 l 981 590 l 1144 590 l 1144 235 l 1224 235 l 1224 118 l 1144 118 l 1144 0 l 994 0 l 994 118 m 825 1028 l 942 963 l 368 -44 l 263 15 m 11 829 l 232 992 l 365 992 l 365 401 l 215 401 l 215 842 l 92 738 m 854 235 l 994 235 l 994 424 l 992 424 "},"¾":{"ha":1235,"x_min":0,"x_max":0,"o":"m 157 588 b 249 518 167 544 194 518 b 343 585 303 518 343 538 b 229 650 343 626 319 650 l 181 650 l 181 767 l 226 767 b 331 829 317 767 331 799 b 253 875 331 858 300 875 b 164 814 208 875 174 853 l 11 842 b 253 1000 39 946 119 1000 b 481 842 382 1000 481 943 b 365 713 481 776 442 726 l 365 710 b 493 571 444 701 493 639 b 249 393 493 460 393 393 b 6 557 110 393 29 453 m 986 590 l 1150 590 l 1150 235 l 1229 235 l 1229 118 l 1150 118 l 1150 0 l 1000 0 l 1000 118 l 710 118 l 710 226 m 296 15 l 858 1028 l 975 963 l 401 -44 m 1000 235 l 1000 424 l 997 424 l 860 235 "},"٫":{"ha":386,"x_min":0,"x_max":0,"o":"m 193 -287 l 17 -287 l 119 103 l 318 103 "},"٬":{"ha":349,"x_min":0,"x_max":0,"o":"m 192 -103 l 17 -103 l 89 179 l 281 179 "},"٠":{"ha":750,"x_min":0,"x_max":0,"o":"m 203 408 l 375 574 l 546 407 l 375 236 "},"١":{"ha":750,"x_min":0,"x_max":0,"o":"m 274 907 l 479 907 l 479 0 l 274 0 "},"٢":{"ha":750,"x_min":0,"x_max":0,"o":"m 74 907 l 279 907 l 279 744 b 394 721 317 729 360 721 b 488 899 472 721 497 764 l 693 910 b 422 533 714 638 632 533 b 279 553 367 533 317 540 l 279 0 l 74 0 "},"٣":{"ha":750,"x_min":0,"x_max":0,"o":"m 240 907 l 240 744 b 267 743 249 743 258 743 b 313 897 317 743 325 771 l 475 910 b 475 743 481 844 481 789 l 483 743 b 551 896 556 743 564 771 l 731 910 b 521 565 747 672 683 565 b 401 592 474 565 438 574 b 300 565 375 574 342 565 b 240 572 279 565 258 567 l 240 0 l 35 0 l 35 907 "},"٤":{"ha":750,"x_min":0,"x_max":0,"o":"m 649 -4 b 453 -17 590 -12 513 -17 b 81 211 215 -17 81 38 b 264 465 81 313 138 401 b 119 649 167 503 119 563 b 544 910 119 824 263 910 b 607 908 565 910 572 910 l 607 721 b 556 722 589 721 572 722 b 331 639 389 722 331 689 b 482 565 331 593 381 565 b 582 572 511 565 544 567 l 581 381 b 292 247 367 363 292 303 b 489 178 292 203 335 178 b 640 185 532 178 593 181 "},"٥":{"ha":750,"x_min":0,"x_max":0,"o":"m 375 -11 b 36 396 156 -11 36 107 b 375 908 36 724 163 908 b 714 396 589 908 714 724 b 375 -11 714 107 594 -11 m 375 181 b 508 408 468 181 508 253 b 375 717 508 568 472 717 b 242 408 278 717 242 568 b 375 181 242 253 282 181 "},"٦":{"ha":750,"x_min":0,"x_max":0,"o":"m 442 717 l 65 717 l 65 907 l 647 907 l 647 0 l 442 0 "},"٧":{"ha":750,"x_min":0,"x_max":0,"o":"m 746 878 l 504 0 l 246 0 l 4 878 l 211 924 l 375 258 l 539 924 "},"٨":{"ha":750,"x_min":0,"x_max":0,"o":"m 539 -31 l 375 635 l 211 -31 l 4 15 l 246 893 l 504 893 l 746 15 "},"٩":{"ha":750,"x_min":0,"x_max":0,"o":"m 32 608 b 357 907 32 792 144 907 l 661 907 l 661 1 l 456 1 l 456 339 b 374 335 426 336 399 335 b 32 608 132 335 32 444 m 243 619 b 389 524 243 565 276 524 b 456 528 408 524 431 525 l 456 717 l 386 717 b 243 619 278 717 243 676 "},"۰":{"ha":750,"x_min":0,"x_max":0,"o":"m 203 408 l 375 574 l 546 407 l 375 236 "},"۱":{"ha":750,"x_min":0,"x_max":0,"o":"m 274 907 l 479 907 l 479 0 l 274 0 "},"۲":{"ha":750,"x_min":0,"x_max":0,"o":"m 74 907 l 279 907 l 279 744 b 394 721 317 729 360 721 b 488 899 472 721 497 764 l 693 910 b 422 533 714 638 632 533 b 279 553 367 533 317 540 l 279 0 l 74 0 "},"۳":{"ha":750,"x_min":0,"x_max":0,"o":"m 240 907 l 240 744 b 267 743 249 743 258 743 b 313 897 317 743 325 771 l 475 910 b 475 743 481 844 481 789 l 483 743 b 551 896 556 743 564 771 l 731 910 b 521 565 747 672 683 565 b 401 592 474 565 438 574 b 300 565 375 574 342 565 b 240 572 279 565 258 567 l 240 0 l 35 0 l 35 907 "},"۴":{"ha":750,"x_min":0,"x_max":0,"o":"m 18 907 l 224 907 l 224 688 b 340 668 261 679 300 672 b 331 736 335 690 331 715 b 528 922 331 860 397 922 b 668 903 572 922 624 915 l 626 744 b 549 760 603 754 572 760 b 482 701 504 760 482 740 b 489 663 482 690 485 675 b 706 686 561 665 635 672 l 728 517 b 449 488 638 499 542 488 b 224 514 369 488 293 496 l 224 0 l 18 0 "},"۵":{"ha":750,"x_min":0,"x_max":0,"o":"m 240 -8 b 24 351 104 -8 24 90 b 375 908 24 710 196 908 b 726 351 554 908 726 711 b 511 -8 726 90 646 -8 b 375 56 440 -8 403 19 b 240 -8 347 19 310 -8 m 304 185 b 375 226 332 185 358 206 b 447 185 392 206 418 185 b 515 364 494 185 515 243 b 375 715 515 488 483 715 b 235 364 267 715 235 488 b 304 185 235 242 256 185 "},"۶":{"ha":750,"x_min":0,"x_max":0,"o":"m 706 485 l 250 -36 l 90 97 l 314 351 b 86 628 171 388 86 481 b 493 911 86 815 224 911 b 579 908 521 911 549 910 l 579 721 b 500 725 550 724 524 725 b 297 629 361 725 297 686 b 468 529 297 578 347 540 l 547 618 "},"۷":{"ha":750,"x_min":0,"x_max":0,"o":"m 746 878 l 504 0 l 246 0 l 4 878 l 211 924 l 375 258 l 539 924 "},"۸":{"ha":750,"x_min":0,"x_max":0,"o":"m 539 -31 l 375 635 l 211 -31 l 4 15 l 246 893 l 504 893 l 746 15 "},"۹":{"ha":750,"x_min":0,"x_max":0,"o":"m 32 608 b 357 907 32 792 144 907 l 661 907 l 661 1 l 456 1 l 456 339 b 374 335 426 336 399 335 b 32 608 132 335 32 444 m 243 619 b 389 524 243 565 276 524 b 456 528 408 524 431 525 l 456 717 l 386 717 b 243 619 278 717 243 676 "},"…":{"ha":1389,"x_min":0,"x_max":0,"o":"m 232 247 b 360 119 303 247 360 189 b 232 -8 360 51 304 -8 b 104 119 161 -8 104 50 b 232 247 104 190 163 247 m 694 247 b 822 119 767 247 822 188 b 694 -8 822 50 767 -8 b 567 119 624 -8 567 50 b 694 247 567 190 625 247 m 1157 247 b 1285 119 1231 247 1285 188 b 1157 -8 1285 49 1226 -8 b 1029 119 1085 -8 1029 50 b 1157 247 1029 190 1086 247 "},"¡":{"ha":617,"x_min":0,"x_max":0,"o":"m 308 683 b 436 556 376 683 436 629 b 308 428 436 488 381 428 b 181 556 238 428 181 486 b 308 683 181 626 239 683 m 413 -308 l 204 -308 l 204 350 l 413 350 "},"¿":{"ha":772,"x_min":0,"x_max":0,"o":"m 368 683 b 496 556 440 683 496 624 b 368 428 496 485 438 428 b 240 556 297 428 240 486 b 368 683 240 625 299 683 m 472 300 b 394 136 472 222 461 196 l 303 53 b 246 -44 264 18 246 -14 b 346 -142 246 -101 285 -142 b 483 -18 422 -142 476 -96 l 697 -32 b 350 -333 678 -228 543 -333 b 38 -60 168 -333 38 -229 b 203 208 38 56 93 124 b 264 319 251 246 264 271 l 264 350 l 472 350 "},"·":{"ha":411,"x_min":0,"x_max":0,"o":"m 206 521 b 333 393 278 521 333 463 b 206 265 333 321 275 265 b 78 393 135 265 78 322 b 206 521 78 463 133 521 "},"•":{"ha":694,"x_min":0,"x_max":0,"o":"m 347 738 b 593 492 486 738 593 625 b 347 246 593 353 481 246 b 101 492 217 246 101 350 b 347 738 101 625 210 738 "},"­":{"ha":411,"x_min":0,"x_max":0,"o":"m 376 263 l 35 263 l 35 429 l 376 429 "},"–":{"ha":694,"x_min":0,"x_max":0,"o":"m 694 263 l 0 263 l 0 429 l 694 429 "},"—":{"ha":1389,"x_min":0,"x_max":0,"o":"m 1389 263 l 0 263 l 0 429 l 1389 429 "},"‑":{"ha":411,"x_min":0,"x_max":0,"o":"m 376 263 l 35 263 l 35 429 l 376 429 "},"‚":{"ha":411,"x_min":0,"x_max":0,"o":"m 232 -175 l 54 -175 l 157 217 l 357 217 "},"„":{"ha":722,"x_min":0,"x_max":0,"o":"m 461 217 l 661 217 l 536 -175 l 358 -175 m 164 217 l 364 217 l 239 -175 l 61 -175 "},"“":{"ha":722,"x_min":0,"x_max":0,"o":"m 483 983 l 661 983 l 558 592 l 358 592 m 186 983 l 364 983 l 261 592 l 61 592 "},"”":{"ha":722,"x_min":0,"x_max":0,"o":"m 461 983 l 661 983 l 536 592 l 358 592 m 164 983 l 364 983 l 239 592 l 61 592 "},"‘":{"ha":411,"x_min":0,"x_max":0,"o":"m 254 592 l 54 592 l 179 983 l 357 983 "},"’":{"ha":411,"x_min":0,"x_max":0,"o":"m 232 592 l 54 592 l 157 983 l 357 983 "},"«":{"ha":747,"x_min":0,"x_max":0,"o":"m 211 346 l 372 106 l 246 21 l 25 346 l 246 671 l 372 586 m 547 346 l 708 106 l 582 21 l 361 346 l 582 671 l 708 586 "},"»":{"ha":747,"x_min":0,"x_max":0,"o":"m 386 346 l 165 21 l 39 106 l 200 346 l 39 586 l 165 671 m 722 346 l 501 21 l 375 106 l 536 346 l 375 586 l 501 671 "},"‹":{"ha":411,"x_min":0,"x_max":0,"o":"m 211 346 l 372 106 l 246 21 l 25 346 l 246 671 l 372 586 "},"›":{"ha":411,"x_min":0,"x_max":0,"o":"m 386 346 l 165 21 l 39 106 l 200 346 l 39 586 l 165 671 "},"۔":{"ha":519,"x_min":0,"x_max":0,"o":"m 114 226 b 263 179 147 196 197 179 l 478 179 l 478 0 l 263 0 b 42 88 172 0 96 18 l 114 226 "},"،":{"ha":411,"x_min":0,"x_max":0,"o":"m 186 390 l 363 390 l 260 0 l 61 0 "},"؛":{"ha":411,"x_min":0,"x_max":0,"o":"m 185 686 l 360 686 l 258 322 l 60 322 m 165 -8 b 39 118 94 -8 39 47 b 165 244 39 189 94 244 b 292 118 236 244 292 189 b 165 -8 292 47 238 -8 "},"؟":{"ha":769,"x_min":0,"x_max":0,"o":"m 288 364 b 232 463 288 399 276 428 b 61 735 114 556 61 622 b 372 1008 61 910 200 1008 b 718 708 567 1008 697 903 l 507 694 b 369 819 501 763 456 819 b 268 719 311 819 268 782 b 443 513 268 653 361 592 b 493 385 479 478 493 442 l 493 322 l 288 322 m 390 -8 b 264 118 319 -8 264 47 b 390 244 264 189 319 244 b 517 118 463 244 517 189 b 390 -8 517 47 463 -8 "},"٭":{"ha":1169,"x_min":0,"x_max":0,"o":"m 249 -108 l 406 261 l 57 469 l 68 521 l 483 469 l 571 869 l 613 869 l 694 469 l 1110 521 l 1125 469 l 763 263 l 932 -108 l 894 -136 l 592 139 l 282 -136 "},"﴾":{"ha":711,"x_min":0,"x_max":0,"o":"m 124 410 b 42 478 67 438 42 460 b 124 544 42 494 67 517 l 124 621 b 143 649 124 636 129 649 b 163 636 149 649 157 640 l 263 547 b 282 538 272 540 276 538 b 299 550 294 538 299 544 b 288 574 299 558 296 567 l 208 683 b 219 715 199 699 204 715 b 224 715 221 715 222 715 l 318 700 b 644 1089 360 858 592 1089 b 647 1064 660 1089 660 1078 b 442 729 549 946 465 835 b 436 697 439 719 438 708 l 503 706 b 513 707 506 706 510 707 b 522 681 532 707 535 694 l 435 578 b 419 554 426 568 419 560 b 433 544 419 544 426 544 b 442 544 436 544 439 544 b 453 549 444 546 449 546 l 556 624 b 581 635 565 631 574 635 b 590 621 588 635 590 631 l 590 544 b 674 478 621 533 674 508 b 590 410 674 446 621 421 l 590 332 b 581 318 590 322 588 318 b 556 329 574 318 565 322 l 453 406 b 442 410 449 408 444 408 b 433 410 439 410 436 410 b 419 399 426 410 419 410 b 435 374 419 394 426 386 l 522 274 b 513 247 535 260 532 247 b 503 249 510 247 506 249 l 442 257 l 436 257 b 647 -110 454 117 550 -12 b 644 -135 661 -122 660 -135 b 318 254 592 -135 360 96 l 224 239 b 219 239 222 239 221 239 b 208 271 204 239 197 256 l 288 381 b 299 404 296 388 299 396 b 282 415 299 410 294 415 b 263 406 276 415 271 414 l 163 317 b 143 306 157 311 149 306 b 124 332 129 306 124 317 l 124 410 m 253 682 l 318 588 l 318 625 l 349 625 l 376 669 l 376 625 l 401 625 l 401 589 l 489 678 l 396 660 b 442 806 401 704 415 743 l 442 864 b 338 661 393 814 353 722 m 253 272 l 338 292 b 442 89 353 232 393 139 l 442 149 b 396 293 415 210 401 249 l 489 275 l 401 365 l 401 326 l 376 326 l 376 283 l 349 326 l 318 326 l 318 365 m 294 478 b 318 426 294 458 304 440 b 360 410 329 417 344 410 b 426 478 399 410 426 439 b 360 544 426 515 397 544 b 294 478 325 544 294 513 m 561 363 l 561 435 b 640 478 581 440 640 456 b 561 519 640 497 581 515 l 561 592 l 464 518 l 519 518 l 519 493 b 561 476 536 492 551 485 b 519 461 551 469 536 463 l 519 436 l 464 436 m 124 507 b 76 478 93 496 76 485 b 156 435 76 464 139 440 l 156 361 l 256 439 l 194 439 l 194 463 b 156 478 178 467 167 469 b 194 492 167 485 178 488 l 194 514 l 256 514 l 156 593 l 156 519 b 124 507 143 515 133 511 "},"﴿":{"ha":711,"x_min":0,"x_max":0,"o":"m 42 478 b 125 544 42 508 94 533 l 125 621 b 135 635 125 631 128 635 b 160 624 142 635 150 631 l 263 549 b 274 544 267 546 271 546 b 282 544 276 544 279 544 b 296 554 289 544 296 544 b 281 578 296 560 289 568 l 193 681 b 203 707 181 694 183 707 b 213 706 206 707 210 706 l 279 697 b 274 729 278 708 276 719 b 68 1064 250 835 167 946 b 71 1089 56 1078 56 1089 b 397 700 124 1089 356 858 l 492 715 b 496 715 493 715 494 715 b 507 683 511 715 517 699 l 428 574 b 417 550 419 567 417 558 b 433 538 417 544 421 538 b 453 547 439 538 443 540 l 553 636 b 572 649 558 640 567 649 b 592 621 586 649 592 636 l 592 544 b 674 478 649 517 674 494 b 592 410 674 460 649 438 l 592 332 b 572 306 592 317 586 306 b 553 317 567 306 558 311 l 453 406 b 433 415 444 414 439 415 b 417 404 421 415 417 410 b 428 381 417 396 419 388 l 507 271 b 496 239 518 256 511 239 b 492 239 494 239 493 239 l 397 254 b 71 -135 356 96 124 -135 b 68 -110 56 -135 54 -122 b 279 257 165 -12 261 117 l 274 257 l 213 249 b 203 247 210 249 206 247 b 193 274 183 247 181 260 l 281 374 b 296 399 289 386 296 394 b 282 410 296 410 289 410 b 274 410 279 410 276 410 b 263 406 271 408 267 408 l 160 329 b 135 318 150 322 142 318 b 125 332 128 318 125 322 l 125 410 b 42 478 94 421 42 446 m 314 589 l 314 625 l 339 625 l 339 669 l 367 625 l 397 625 l 397 588 l 463 682 l 378 661 b 274 864 363 722 322 814 l 274 806 b 319 660 300 743 314 704 l 226 678 m 319 293 b 274 149 314 249 300 210 l 274 89 b 378 292 322 139 363 232 l 463 272 l 397 365 l 397 326 l 367 326 l 339 283 l 339 326 l 314 326 l 314 365 l 226 275 l 319 293 m 289 478 b 356 410 289 439 317 410 b 397 426 371 410 386 417 b 421 478 411 440 421 458 b 356 544 421 513 390 544 b 289 478 318 544 289 515 m 154 363 l 251 436 l 196 436 l 196 461 b 154 479 179 463 164 469 b 196 493 164 485 179 492 l 196 518 l 251 518 l 154 592 l 154 519 b 75 478 135 515 75 497 b 154 435 75 456 135 440 m 521 514 l 521 492 b 560 478 538 488 549 485 b 521 463 549 469 538 467 l 521 439 l 460 439 l 560 361 l 560 435 b 639 478 576 440 639 464 b 592 507 639 485 622 496 b 560 519 582 511 572 515 l 560 593 l 460 514 "}," ":{"ha":1588,"x_min":0,"x_max":0,"o":""}," ":{"ha":794,"x_min":0,"x_max":0,"o":""}," ":{"ha":32,"x_min":0,"x_max":0,"o":""}," ":{"ha":411,"x_min":0,"x_max":0,"o":""}," ":{"ha":158,"x_min":0,"x_max":0,"o":""},"‎":{"ha":0,"x_min":0,"x_max":0,"o":"m 15 1275 l 81 1340 l -119 1340 l -119 1376 l 81 1376 l 15 1439 l 42 1467 l 151 1357 l 42 1247 "},"‏":{"ha":0,"x_min":0,"x_max":0,"o":"m -151 1357 l -42 1467 l -15 1442 l -81 1376 l 121 1376 l 121 1340 l -79 1340 l -15 1275 l -42 1249 "},"‍":{"ha":0,"x_min":0,"x_max":0,"o":"m 158 1376 l 158 1267 l 122 1267 l 122 1340 l -121 1340 l -121 1267 l -157 1267 l -157 1376 "},"‌":{"ha":0,"x_min":0,"x_max":0,"o":"m -83 1467 l 0 1382 l 82 1465 l 107 1439 l 26 1357 l 107 1275 l 82 1249 l 0 1331 l -83 1247 l -108 1275 l -26 1357 l -108 1439 "},"‪":{"ha":0,"x_min":0,"x_max":0,"o":"m 1 1340 l 1 1376 l 81 1376 l 15 1439 l 42 1467 l 151 1357 l 42 1247 l 15 1275 l 81 1340 m -135 1340 l -135 1376 l -44 1376 l -44 1340 "},"‭":{"ha":0,"x_min":0,"x_max":0,"o":"m -58 1275 l 7 1340 l -164 1340 l -164 1376 l 6 1376 l -58 1439 l -33 1467 l 76 1357 l -33 1247 m 44 1275 l 129 1357 l 44 1439 l 69 1467 l 179 1357 l 69 1247 "},"‬":{"ha":0,"x_min":0,"x_max":0,"o":"m -19 1407 l -82 1343 l -108 1369 l 0 1478 l 108 1369 l 82 1343 l 18 1407 l 18 1246 l -19 1246 "},"‫":{"ha":0,"x_min":0,"x_max":0,"o":"m -42 1467 l -15 1442 l -81 1376 l -1 1376 l -1 1340 l -79 1340 l -15 1275 l -42 1249 l -151 1357 m 44 1376 l 135 1376 l 135 1340 l 44 1340 "},"‮":{"ha":0,"x_min":0,"x_max":0,"o":"m -179 1396 l -69 1506 l -44 1479 l -128 1396 l -44 1313 l -69 1286 m -75 1396 l 33 1506 l 60 1479 l -6 1413 l 165 1413 l 165 1378 l -6 1378 l 60 1313 l 33 1286 "},"﻿":{"ha":0,"x_min":0,"x_max":0,"o":""},"¢":{"ha":822,"x_min":0,"x_max":0,"o":"m 106 338 b 431 692 106 532 231 667 l 431 783 l 514 783 l 514 692 b 753 606 610 692 682 665 l 619 464 b 514 517 581 503 544 517 l 514 158 b 629 218 557 158 594 183 l 756 69 b 514 -17 706 19 614 -15 l 514 -112 l 431 -112 l 431 -17 b 106 338 235 -7 106 147 m 431 517 b 306 339 353 503 306 433 b 431 158 306 249 350 183 l 431 517 "},"¤":{"ha":822,"x_min":0,"x_max":0,"o":"m 201 786 b 411 853 260 828 332 853 b 621 786 490 853 561 829 l 689 853 l 772 771 l 704 703 b 772 492 750 639 772 571 b 704 281 772 413 750 343 l 772 213 l 689 131 l 621 197 b 411 131 561 154 490 131 b 201 197 332 131 261 154 l 133 131 l 50 213 l 118 281 b 50 492 75 340 50 413 b 118 703 50 571 75 643 l 50 771 l 133 853 m 233 492 b 411 306 233 388 313 306 b 589 492 513 306 589 390 b 410 678 589 594 511 678 b 233 492 315 678 233 599 "},"€":{"ha":822,"x_min":0,"x_max":0,"o":"m 53 433 l 111 433 b 110 485 110 443 110 472 b 113 553 110 518 111 531 l 18 553 l 61 681 l 133 681 b 558 1000 190 893 336 1000 b 775 960 626 1000 746 979 l 711 779 b 560 814 682 797 625 814 b 353 681 465 814 393 775 l 679 681 l 638 553 l 324 553 b 321 493 322 536 321 511 b 322 433 321 471 322 450 l 606 433 l 565 308 l 343 308 b 522 164 371 219 428 164 b 689 244 594 164 644 190 l 803 104 b 503 -17 738 29 624 -17 b 126 308 299 -17 169 93 l 14 308 "},"ƒ":{"ha":822,"x_min":0,"x_max":0,"o":"m 44 6 b 108 -10 64 -6 86 -10 b 217 142 188 -10 201 68 l 282 461 l 124 461 l 124 603 l 310 603 l 338 743 b 608 1000 375 933 442 1000 b 790 958 676 1000 731 986 l 717 801 b 644 817 693 811 668 817 b 536 708 582 817 551 783 l 514 603 l 689 603 l 689 461 l 486 461 l 406 53 b 126 -193 372 -111 285 -193 b -28 -160 74 -193 19 -179 "},"₺":{"ha":822,"x_min":0,"x_max":0,"o":"m 149 756 l 149 983 l 349 983 l 349 847 l 563 936 l 563 794 l 349 706 l 349 600 l 563 689 l 563 547 l 349 458 l 349 179 l 353 179 b 592 493 524 182 592 325 l 592 507 l 797 507 l 797 490 b 326 -12 797 188 640 -12 b 149 -1 254 -12 219 -10 l 149 367 l 38 319 l 38 460 l 149 508 l 149 614 l 38 567 l 38 708 "},"₹":{"ha":822,"x_min":0,"x_max":0,"o":"m 103 850 l 103 983 l 779 983 l 779 850 l 561 850 b 604 751 585 819 599 782 l 779 751 l 779 618 l 603 618 b 346 399 589 481 486 407 l 635 0 l 378 0 l 104 404 l 104 519 l 219 519 b 390 618 296 519 367 546 l 104 618 l 106 751 l 396 751 b 224 850 371 829 306 850 "},"£":{"ha":822,"x_min":0,"x_max":0,"o":"m 67 575 l 200 575 l 200 667 b 544 1000 200 860 339 1000 b 835 906 667 1000 772 965 l 696 757 b 569 817 658 794 608 817 b 408 635 429 817 408 708 l 408 575 l 625 575 l 625 433 l 408 433 l 408 158 l 760 158 l 760 0 l 67 0 l 67 158 l 200 158 l 200 433 l 67 433 "},"¥":{"ha":822,"x_min":0,"x_max":0,"o":"m 203 983 l 411 617 l 619 983 l 872 983 l 615 581 l 754 581 l 754 447 l 536 447 l 519 419 l 519 353 l 754 353 l 754 219 l 519 219 l 519 0 l 303 0 l 303 219 l 68 219 l 68 353 l 303 353 l 303 419 l 286 447 l 68 447 l 68 581 l 207 581 l -50 983 "},"∙":{"ha":411,"x_min":0,"x_max":0,"o":"m 206 521 b 333 393 278 521 333 463 b 206 265 333 321 275 265 b 78 393 135 265 78 322 b 206 521 78 463 133 521 "},"∕":{"ha":232,"x_min":0,"x_max":0,"o":"m 456 963 l -118 -44 l -224 15 l 339 1028 "},"−":{"ha":925,"x_min":0,"x_max":0,"o":"m 843 333 l 82 333 l 82 508 l 843 508 "},"×":{"ha":925,"x_min":0,"x_max":0,"o":"m 703 790 l 826 671 l 586 421 l 836 181 l 708 51 l 464 296 l 218 50 l 94 169 l 336 421 l 89 660 l 218 792 l 464 549 "},"÷":{"ha":925,"x_min":0,"x_max":0,"o":"m 463 803 b 582 683 529 803 582 747 b 463 564 582 619 531 564 b 343 683 397 564 343 618 b 463 803 343 747 396 803 m 843 333 l 82 333 l 82 508 l 843 508 m 463 278 b 582 158 529 278 582 222 b 463 39 582 94 531 39 b 343 158 399 39 343 93 b 463 278 343 222 397 278 "},"≠":{"ha":925,"x_min":0,"x_max":0,"o":"m 82 642 l 469 642 l 539 803 l 686 743 l 642 642 l 843 642 l 843 467 l 565 467 l 525 375 l 843 375 l 843 200 l 449 200 l 376 35 l 235 88 l 282 200 l 82 200 l 82 375 l 357 375 l 396 467 l 82 467 "},"≥":{"ha":925,"x_min":0,"x_max":0,"o":"m 765 592 l 765 435 l 96 172 l 96 364 l 549 515 l 96 665 l 96 860 m 90 150 l 771 150 l 771 -21 l 90 -21 "},"≤":{"ha":925,"x_min":0,"x_max":0,"o":"m 765 860 l 765 665 l 313 515 l 765 364 l 765 172 l 96 435 l 96 592 m 771 150 l 771 -21 l 90 -21 l 90 150 "},"±":{"ha":925,"x_min":0,"x_max":0,"o":"m 82 624 l 375 624 l 375 801 l 550 801 l 550 624 l 843 624 l 843 449 l 550 449 l 550 271 l 375 271 l 375 449 l 82 449 m 82 215 l 843 215 l 843 40 l 82 40 "},"≈":{"ha":925,"x_min":0,"x_max":0,"o":"m 821 592 b 603 418 767 481 693 418 b 329 515 508 418 424 515 b 214 399 304 515 268 481 l 104 503 b 338 676 160 613 251 676 b 603 581 429 676 525 581 b 713 697 636 581 674 626 l 821 592 m 821 317 b 601 135 761 200 683 135 b 329 233 497 135 435 233 b 214 115 299 233 263 197 l 104 224 b 338 401 158 335 254 401 b 601 306 451 401 503 306 b 713 421 636 306 668 346 l 821 317 "},"¬":{"ha":925,"x_min":0,"x_max":0,"o":"m 843 197 l 668 197 l 668 467 l 82 467 l 82 642 l 843 642 "},"∞":{"ha":1115,"x_min":0,"x_max":0,"o":"m 307 643 b 564 485 421 643 499 569 b 824 643 635 565 708 643 b 1046 404 960 643 1046 538 b 815 154 1046 267 953 154 b 558 317 703 154 622 232 b 294 154 488 226 415 154 b 68 397 163 154 68 267 b 307 643 68 538 167 643 m 172 396 b 308 257 172 315 231 257 b 503 392 393 257 453 336 b 301 543 451 460 399 543 b 172 396 217 543 172 476 m 617 401 b 818 257 668 339 724 257 b 942 397 893 257 942 329 b 811 543 942 478 896 543 b 617 401 725 543 665 458 "},"∫":{"ha":569,"x_min":0,"x_max":0,"o":"m 453 1213 b 542 1196 490 1213 524 1203 l 522 1068 b 469 1081 506 1076 489 1081 b 358 808 351 1081 358 896 b 381 144 358 646 381 325 b 140 -244 381 -118 306 -244 b 26 -221 94 -244 49 -232 l 50 -89 b 113 -104 67 -93 88 -104 b 217 144 189 -104 217 -40 b 194 842 217 318 194 664 b 453 1213 194 1111 296 1213 "},"Ω":{"ha":1043,"x_min":0,"x_max":0,"o":"m 54 151 l 253 151 l 253 156 b 75 544 139 257 75 392 b 525 994 75 801 268 994 b 967 551 793 994 967 783 b 785 156 967 401 899 253 l 785 151 l 986 151 l 986 0 l 593 0 l 593 113 b 772 513 729 196 772 363 b 524 840 772 664 697 840 b 269 506 349 840 269 667 b 449 113 269 360 318 193 l 449 0 l 54 0 "},"∆":{"ha":963,"x_min":0,"x_max":0,"o":"m 924 110 l 924 0 l 38 0 l 38 108 l 371 1001 l 600 1001 m 475 806 b 401 579 456 731 424 653 l 236 151 l 715 151 l 560 558 b 479 806 533 642 501 726 l 475 806 "},"∏":{"ha":1054,"x_min":0,"x_max":0,"o":"m 33 979 l 1019 979 l 1019 810 l 869 810 l 869 -135 l 682 -135 l 682 810 l 371 810 l 371 -135 l 183 -135 l 183 810 l 33 810 "},"∑":{"ha":817,"x_min":0,"x_max":0,"o":"m 767 819 l 303 819 l 303 814 l 596 451 l 272 42 l 272 38 l 790 38 l 790 -135 l 32 -135 l 32 -17 l 382 422 l 46 849 l 46 979 l 767 979 "},"√":{"ha":867,"x_min":0,"x_max":0,"o":"m 553 -197 l 401 -197 l 183 414 l 76 371 l 44 474 l 296 576 l 447 129 b 476 8 456 92 468 36 l 478 7 b 503 143 488 63 494 110 l 749 1175 l 882 1175 "},"µ":{"ha":797,"x_min":0,"x_max":0,"o":"m 74 675 l 282 675 l 282 329 b 390 167 282 215 314 167 b 515 333 478 167 515 221 l 515 675 l 724 675 l 724 0 l 524 0 l 524 92 l 521 92 b 324 -17 483 24 408 -17 b 282 -12 310 -17 294 -15 l 282 -317 l 74 -317 "},"∂":{"ha":842,"x_min":0,"x_max":0,"o":"m 367 1107 b 774 569 610 1107 774 892 b 360 -11 774 310 671 -11 b 53 324 171 -11 53 150 b 368 690 53 549 193 690 b 585 575 456 690 539 646 l 586 575 b 588 621 588 585 588 610 b 342 953 588 767 513 953 b 149 886 271 953 206 928 l 94 1024 b 367 1107 174 1082 268 1107 m 242 318 b 378 144 242 238 286 144 b 568 422 500 144 558 329 b 408 542 549 488 478 542 b 242 318 297 542 242 417 "},"‰":{"ha":1621,"x_min":0,"x_max":0,"o":"m 883 963 l 310 -44 l 204 15 l 767 1028 m 289 1000 b 535 756 425 1000 535 889 b 289 510 535 622 424 510 b 44 756 153 510 44 622 b 289 1000 44 890 154 1000 m 178 756 b 289 643 178 693 229 643 b 401 756 351 643 401 696 b 289 867 401 819 347 867 b 178 756 229 867 178 817 m 793 474 b 1038 229 929 474 1038 361 b 793 -17 1038 94 926 -17 b 549 229 657 -17 549 96 b 793 474 549 363 657 474 m 1331 474 b 1576 229 1464 474 1576 363 b 1331 -17 1576 93 1464 -17 b 1086 229 1194 -17 1086 96 b 1331 474 1086 364 1196 474 m 682 229 b 793 117 682 169 733 117 b 904 229 858 117 904 171 b 792 340 904 292 853 340 b 682 229 732 340 682 289 m 1219 229 b 1331 117 1219 165 1271 117 b 1443 229 1389 117 1443 164 b 1331 340 1443 292 1390 340 b 1219 229 1271 340 1219 292 "},"◌":{"ha":639,"x_min":0,"x_max":0,"o":"m 319 475 b 282 514 294 475 282 489 b 319 551 282 540 294 551 b 357 514 344 551 357 540 b 319 475 357 489 344 475 m 199 444 b 163 485 175 444 163 458 b 199 521 163 508 175 521 b 239 485 226 521 239 508 b 199 444 239 458 226 444 m 439 444 b 399 485 414 444 399 458 b 439 521 399 508 414 521 b 475 485 463 521 475 508 b 439 444 475 458 463 444 m 111 357 b 75 396 86 357 75 369 b 111 433 75 421 86 433 b 150 396 138 433 150 421 b 111 357 150 369 138 357 m 526 357 b 489 396 500 357 489 369 b 526 433 489 421 500 433 b 564 396 551 433 564 421 b 526 357 564 369 551 357 m 81 239 b 44 276 57 239 44 251 b 81 314 44 301 57 314 b 119 276 106 314 119 303 b 81 239 119 251 106 239 m 557 239 b 519 276 532 239 519 251 b 557 314 519 301 532 314 b 594 276 582 314 594 301 b 557 239 594 251 582 239 m 111 119 b 75 157 86 119 75 132 b 111 194 75 182 86 194 b 150 157 138 194 150 182 b 111 119 150 132 138 119 m 526 119 b 489 157 500 119 489 132 b 526 194 489 182 500 194 b 564 157 551 194 564 182 b 526 119 564 132 551 119 m 199 32 b 163 69 175 32 163 44 b 199 107 163 94 175 107 b 239 69 226 107 239 94 b 199 32 239 44 226 32 m 439 32 b 399 69 414 32 399 43 b 439 107 399 93 414 107 b 475 69 463 107 475 94 b 439 32 475 44 463 32 m 319 1 b 282 39 294 1 282 14 b 319 78 282 64 294 78 b 357 39 344 78 357 64 b 319 1 357 14 344 1 "},"◊":{"ha":865,"x_min":0,"x_max":0,"o":"m 794 489 l 504 -71 l 354 -71 l 71 489 l 360 1049 l 511 1049 m 431 899 b 403 818 425 874 413 840 l 238 493 l 401 160 b 429 78 410 143 421 108 l 435 78 b 460 151 440 101 457 146 l 628 485 l 469 804 b 435 899 456 832 443 865 l 431 899 "},"❊":{"ha":885,"x_min":0,"x_max":0,"o":"m 194 72 l 331 279 l 99 192 l 56 378 l 304 400 l 90 528 l 210 676 l 381 496 l 347 743 l 539 743 l 504 496 l 676 676 l 796 528 l 582 400 l 829 378 l 788 192 l 556 279 l 692 71 l 519 -12 l 443 226 l 367 -12 "},"¶":{"ha":861,"x_min":0,"x_max":0,"o":"m 18 736 b 354 983 18 906 124 983 l 779 983 l 779 -185 l 629 -185 l 629 850 l 478 850 l 478 -185 l 328 -185 l 328 499 b 18 736 128 499 18 585 "},"§":{"ha":822,"x_min":0,"x_max":0,"o":"m 407 1008 b 718 857 526 1008 661 972 l 543 757 b 415 842 524 810 471 842 b 325 768 371 842 325 818 b 758 390 325 633 758 642 b 642 210 758 315 708 242 b 718 44 690 169 718 108 b 376 -210 718 -135 529 -210 b 53 -35 240 -210 113 -167 l 231 53 b 382 -43 246 -12 321 -43 b 493 29 428 -43 493 -28 b 75 407 493 160 75 139 b 196 613 75 499 119 565 b 108 772 140 649 108 706 b 407 1008 108 932 265 1008 m 267 446 b 344 347 267 397 303 367 l 519 267 l 521 267 b 567 351 550 286 567 317 b 492 444 567 397 531 426 l 315 528 b 267 446 283 510 267 483 "},"©":{"ha":1111,"x_min":0,"x_max":0,"o":"m 556 1008 b 1072 492 840 1008 1072 776 b 556 -25 1072 204 839 -25 b 39 492 269 -25 39 207 b 556 1008 39 775 271 1008 m 181 492 b 556 100 181 282 344 100 b 931 492 771 100 931 285 b 554 883 931 701 768 883 b 181 492 342 883 181 697 m 567 788 b 817 582 697 788 797 714 l 686 582 b 578 663 675 638 631 663 b 443 499 479 663 443 588 b 575 324 443 415 481 324 b 686 417 636 324 683 351 l 817 417 b 569 199 799 286 703 199 b 293 496 396 199 293 329 b 567 788 293 667 390 788 "},"®":{"ha":1111,"x_min":0,"x_max":0,"o":"m 39 492 b 556 1008 39 775 271 1008 b 1072 492 840 1008 1072 776 b 556 -25 1072 204 839 -25 b 39 492 269 -25 39 207 m 554 883 b 181 492 342 883 181 697 b 556 100 181 282 344 100 b 931 492 771 100 931 285 b 554 883 931 701 768 883 m 357 226 l 357 768 l 556 768 b 779 593 707 768 779 707 b 653 442 779 506 740 454 l 792 226 l 646 226 l 522 435 l 499 435 l 499 226 m 497 660 l 497 543 l 557 543 b 638 601 607 543 638 556 b 557 660 638 638 618 660 "},"™":{"ha":1389,"x_min":0,"x_max":0,"o":"m 658 983 l 860 983 l 996 611 l 1132 983 l 1333 983 l 1333 411 l 1183 411 l 1183 783 l 1181 783 l 1044 411 l 947 411 l 811 783 l 808 783 l 808 411 l 658 411 m 56 850 l 56 983 l 536 983 l 536 850 l 371 850 l 371 411 l 221 411 l 221 850 "},"°":{"ha":556,"x_min":0,"x_max":0,"o":"m 278 1000 b 517 761 411 1000 517 892 b 278 522 517 631 411 522 b 39 761 149 522 39 626 b 278 1000 39 894 147 1000 m 156 761 b 278 639 156 693 210 639 b 400 761 344 639 400 693 b 278 883 400 828 346 883 b 156 761 211 883 156 829 "},"¦":{"ha":308,"x_min":0,"x_max":0,"o":"m 67 451 l 67 938 l 242 938 l 242 451 m 242 243 l 242 -243 l 67 -243 l 67 243 "},"ℓ":{"ha":758,"x_min":0,"x_max":0,"o":"m 418 1078 b 628 826 550 1078 628 979 b 338 339 628 675 540 528 l 339 285 b 461 140 340 207 385 140 b 653 269 529 140 597 183 l 731 189 b 421 -12 663 57 556 -12 b 156 229 239 -12 167 107 b 82 174 108 192 96 182 l 33 272 b 154 369 68 301 117 335 l 154 722 b 418 1078 154 933 247 1078 m 338 510 b 504 832 444 629 504 739 b 426 946 504 901 483 946 b 338 733 374 946 338 864 l 338 510 "},"†":{"ha":822,"x_min":0,"x_max":0,"o":"m 47 692 l 311 692 l 311 983 l 503 983 l 503 692 l 775 692 l 775 517 l 503 517 l 503 -185 l 311 -185 l 311 517 l 47 517 "},"‡":{"ha":822,"x_min":0,"x_max":0,"o":"m 47 733 l 315 733 l 315 983 l 507 983 l 507 733 l 775 733 l 775 567 l 507 567 l 507 232 l 775 232 l 775 65 l 507 65 l 507 -185 l 315 -185 l 315 65 l 47 65 l 47 232 l 315 232 l 315 567 l 47 567 "},"℮":{"ha":1356,"x_min":0,"x_max":0,"o":"m 679 -26 b 104 476 314 -26 104 207 b 676 1004 104 747 321 1004 b 1250 474 1117 1004 1250 718 l 324 474 b 315 465 318 474 315 472 l 315 201 b 326 160 315 188 318 169 b 675 10 401 64 524 10 b 1049 174 838 10 949 79 l 1149 174 b 679 -26 1036 38 915 -26 m 315 511 b 324 503 315 504 318 503 l 1032 503 b 1040 511 1036 503 1040 504 l 1040 781 b 1024 819 1040 796 1033 808 b 671 968 928 939 772 968 b 329 822 558 968 429 925 b 315 782 321 813 315 799 l 315 511 "},"٪":{"ha":750,"x_min":0,"x_max":0,"o":"m 113 31 l 506 933 l 656 878 l 263 -24 m 29 779 l 167 918 l 308 779 l 167 640 m 446 138 l 585 278 l 725 138 l 585 0 "},"ˉ":{"ha":361,"x_min":0,"x_max":0,"o":"m 417 821 l -56 821 l -56 954 l 417 954 "},"´":{"ha":361,"x_min":0,"x_max":0,"o":"m 225 783 l 42 783 l 182 983 l 465 983 "},"˘":{"ha":361,"x_min":0,"x_max":0,"o":"m 36 983 b 182 917 47 924 136 917 b 326 983 239 917 304 917 l 436 983 b 181 783 421 842 313 783 b -75 983 46 783 -67 839 "},"ˇ":{"ha":361,"x_min":0,"x_max":0,"o":"m 90 983 l 178 875 l 264 983 l 451 983 l 286 783 l 60 783 l -101 983 "},"¸":{"ha":361,"x_min":0,"x_max":0,"o":"m 176 -83 l 185 -83 b 351 -199 300 -83 351 -122 b 157 -333 351 -286 256 -333 b -15 -292 111 -333 43 -319 l 19 -226 b 122 -250 76 -249 107 -250 b 218 -206 151 -250 218 -249 b 149 -158 218 -175 183 -158 b 99 -169 131 -158 115 -162 l 54 -129 l 140 0 l 233 0 "},"ˆ":{"ha":361,"x_min":0,"x_max":0,"o":"m -96 783 l 69 983 l 296 983 l 457 783 l 265 783 l 178 892 l 92 783 "},"¨":{"ha":361,"x_min":0,"x_max":0,"o":"m 32 1008 b 153 894 90 1008 153 965 b 35 775 153 829 104 775 b -81 894 -32 775 -81 832 b 32 1008 -81 954 -29 1008 m 321 1008 b 442 894 385 1008 442 961 b 324 775 442 829 393 775 b 208 894 260 775 208 829 b 321 1008 208 956 261 1008 "},"˙":{"ha":361,"x_min":0,"x_max":0,"o":"m 176 1008 b 297 894 242 1008 297 961 b 179 775 297 829 249 775 b 64 894 114 775 64 832 b 176 1008 64 956 117 1008 "},"˝":{"ha":361,"x_min":0,"x_max":0,"o":"m 365 983 l 649 983 l 408 783 l 225 783 m -1 983 l 282 983 l 42 783 l -142 783 "},"¯":{"ha":361,"x_min":0,"x_max":0,"o":"m 417 821 l -56 821 l -56 954 l 417 954 "},"˛":{"ha":361,"x_min":0,"x_max":0,"o":"m 228 17 b 113 -169 157 -49 113 -121 b 171 -233 113 -203 139 -233 b 246 -201 196 -233 224 -219 l 285 -275 b 133 -333 238 -311 192 -333 b -12 -204 46 -333 -12 -279 b 133 17 -12 -136 50 -49 l 228 17 "},"˚":{"ha":361,"x_min":0,"x_max":0,"o":"m 181 1065 b 335 911 267 1065 335 992 b 181 757 335 832 268 757 b 26 911 99 757 26 828 b 181 1065 26 993 96 1065 m 110 911 b 181 840 110 872 142 840 b 251 911 221 840 251 874 b 179 982 251 950 221 982 b 110 911 144 982 110 951 "},"˜":{"ha":361,"x_min":0,"x_max":0,"o":"m 85 983 b 206 954 131 983 168 969 b 283 933 244 938 265 933 b 344 983 315 933 332 956 l 453 983 b 272 792 431 851 369 792 b 164 821 232 792 199 806 b 76 850 136 833 106 850 b 18 792 49 850 28 824 l -92 792 b 85 983 -74 903 -7 983 "},"ؕ":{"ha":0,"x_min":0,"x_max":0,"o":"m -212 865 l -150 865 l -150 1104 l -56 1104 l -56 972 b 68 1039 -25 1014 13 1039 b 213 882 153 1039 213 981 b 188 764 213 847 204 808 l -212 764 m 107 865 b 108 882 108 871 108 876 b 56 938 108 917 88 938 b -56 865 19 938 -24 913 "},"﮲":{"ha":0,"x_min":0,"x_max":0,"o":"m 1 758 b -101 863 -61 758 -101 804 b 1 965 -101 922 -61 965 b 101 863 64 965 101 922 b 1 758 101 804 64 758 "},"﮳":{"ha":0,"x_min":0,"x_max":0,"o":"m 1 -314 b -101 -212 -61 -314 -101 -271 b 1 -107 -101 -153 -61 -107 b 101 -212 64 -107 101 -153 b 1 -314 101 -271 64 -314 "},"﮴":{"ha":0,"x_min":0,"x_max":0,"o":"m -124 758 b -228 863 -183 758 -228 804 b -124 965 -228 922 -183 965 b -22 863 -64 965 -22 922 b -124 758 -22 804 -64 758 m 126 758 b 22 863 67 758 22 804 b 126 965 22 922 67 965 b 228 863 185 965 228 922 b 126 758 228 804 185 758 "},"﮵":{"ha":0,"x_min":0,"x_max":0,"o":"m -124 -314 b -228 -212 -183 -314 -228 -271 b -124 -107 -228 -153 -183 -107 b -22 -212 -64 -107 -22 -153 b -124 -314 -22 -271 -64 -314 m 126 -314 b 22 -212 67 -314 22 -271 b 126 -107 22 -153 67 -107 b 228 -212 185 -107 228 -153 b 126 -314 228 -271 185 -314 "},"﮹":{"ha":0,"x_min":0,"x_max":0,"o":"m -124 -315 b -228 -212 -183 -315 -228 -272 b -124 -108 -228 -154 -183 -108 b -22 -212 -64 -108 -22 -154 b -124 -315 -22 -272 -64 -315 m 126 -315 b 22 -212 67 -315 22 -272 b 126 -108 22 -154 67 -108 b 228 -212 185 -108 228 -154 b 126 -315 228 -272 185 -315 m 4 -524 b -100 -422 -54 -524 -100 -481 b 4 -317 -100 -361 -54 -317 b 106 -422 65 -317 106 -361 b 4 -524 106 -481 65 -524 "},"﮶":{"ha":0,"x_min":0,"x_max":0,"o":"m 6 954 b -96 1058 -51 954 -96 1001 b 6 1164 -96 1117 -51 1164 b 108 1058 68 1164 108 1117 b 6 954 108 1001 68 954 m -124 742 b -228 847 -183 742 -228 788 b -124 950 -228 907 -183 950 b -22 847 -64 950 -22 907 b -124 742 -22 788 -64 742 m 126 742 b 22 847 67 742 22 788 b 126 950 22 907 67 950 b 228 847 185 950 228 907 b 126 742 228 788 185 742 "},"ٰ":{"ha":0,"x_min":0,"x_max":0,"o":"m -47 1015 l 47 1015 l 47 781 l -39 757 l -47 757 "},"ٖ":{"ha":0,"x_min":0,"x_max":0,"o":"m -47 -142 l 47 -142 l 47 -376 l -39 -400 l -47 -400 "},"ٔ":{"ha":0,"x_min":0,"x_max":0,"o":"m -79 832 b -94 889 -89 850 -94 869 b 38 1000 -94 954 -44 1000 b 111 990 64 1000 92 996 l 94 901 b 51 907 83 904 68 907 b 3 867 22 907 3 894 b 13 832 3 854 7 843 l 124 832 l 124 739 l -124 739 l -124 832 "},"ٕ":{"ha":0,"x_min":0,"x_max":0,"o":"m -78 -268 b -94 -210 -89 -250 -94 -229 b 38 -99 -94 -144 -44 -99 b 111 -108 64 -99 92 -103 l 94 -197 b 51 -192 83 -194 68 -192 b 3 -232 22 -192 3 -204 b 14 -268 3 -244 7 -257 l 124 -268 l 124 -360 l -124 -360 l -124 -268 "},"ً":{"ha":0,"x_min":0,"x_max":0,"o":"m -165 907 l -150 996 l 161 1043 l 165 1042 l 150 953 l -161 906 m -165 743 l -150 832 l 161 879 l 165 878 l 150 789 l -161 742 "},"ٌ":{"ha":0,"x_min":0,"x_max":0,"o":"m 100 1092 b 207 953 164 1092 207 1036 b 47 750 207 808 125 750 b -108 831 -50 750 -71 831 b -151 799 -121 831 -132 824 l -207 843 b -104 921 -181 888 -139 921 b 51 839 -35 921 -7 839 b 107 871 76 839 96 851 l 100 871 b -12 965 40 871 -12 897 b 100 1092 -12 1029 32 1092 m 103 943 b 126 944 113 943 119 943 l 126 949 b 94 1003 126 983 114 1003 b 65 969 78 1003 65 986 b 103 943 65 954 79 943 "},"ٍ":{"ha":0,"x_min":0,"x_max":0,"o":"m -167 -250 l -151 -161 l 160 -114 l 164 -115 l 149 -204 l -162 -251 m -167 -394 l -151 -306 l 160 -258 l 164 -260 l 149 -349 l -162 -396 "},"َ":{"ha":0,"x_min":0,"x_max":0,"o":"m -165 743 l -150 832 l 161 879 l 165 878 l 150 789 l -161 742 "},"ُ":{"ha":0,"x_min":0,"x_max":0,"o":"m 21 1092 b 128 953 85 1092 128 1036 b -33 750 128 808 47 750 b -128 775 -68 750 -99 758 l -93 853 b -33 839 -71 843 -51 839 b 29 871 -3 839 17 851 l 28 871 b -93 965 -40 871 -93 897 b 21 1092 -93 1029 -49 1092 m 47 943 b 14 1003 47 964 43 1003 b -14 972 -4 1003 -14 986 b 31 943 -14 954 6 943 "},"ِ":{"ha":0,"x_min":0,"x_max":0,"o":"m -165 -250 l -150 -161 l 161 -114 l 165 -115 l 150 -204 l -161 -251 "},"ّ":{"ha":0,"x_min":0,"x_max":0,"o":"m 147 958 b 172 860 165 921 172 888 b 85 760 172 797 136 760 b 8 786 53 760 28 772 b -71 750 -7 764 -33 750 b -172 850 -135 750 -172 788 b -157 928 -172 874 -168 899 l -100 914 b -104 882 -103 901 -104 892 b -68 839 -104 849 -86 839 b -36 882 -44 839 -36 856 b -37 901 -36 889 -36 894 l 22 913 b 28 863 25 896 28 879 l 28 858 b 63 850 38 853 50 850 b 92 886 82 850 92 864 b 82 933 92 899 89 915 l 147 958 "},"ْ":{"ha":0,"x_min":0,"x_max":0,"o":"m 1 750 b -117 864 -78 750 -117 797 b 1 994 -117 926 -75 994 b 117 864 75 994 117 926 b 1 750 117 797 78 750 m 1 839 b 32 869 24 839 32 854 b 1 908 32 886 22 908 b -32 869 -22 908 -32 888 b 1 839 -32 854 -24 839 "},"ٓ":{"ha":0,"x_min":0,"x_max":0,"o":"m 107 742 b -112 779 33 742 -68 779 b -178 756 -143 779 -164 765 l -236 836 b -111 894 -204 868 -158 894 b 101 854 -57 894 40 854 b 171 886 126 854 144 863 l 236 815 b 107 742 194 761 157 742 "},"٘":{"ha":0,"x_min":0,"x_max":0,"o":"m -35 936 b -50 872 -46 906 -50 889 b 3 824 -50 843 -33 824 b 50 881 36 824 50 843 l 50 957 l 132 957 l 132 881 b 3 742 132 794 82 742 b -132 858 -78 742 -132 785 b -107 961 -132 899 -119 931 "}}}
